<svg width="16" height="28" viewBox="0 0 16 28" fill="none" xmlns="http://www.w3.org/2000/svg">
<path fill-rule="evenodd" clip-rule="evenodd" d="M15.3673 12.3702C15.7578 12.7609 15.9772 13.2907 15.9772 13.8432C15.9772 14.3956 15.7578 14.9254 15.3673 15.3161L3.58185 27.1015C3.38967 27.3005 3.15979 27.4592 2.90561 27.5684C2.65144 27.6775 2.37806 27.735 2.10144 27.7374C1.82481 27.7398 1.55048 27.6871 1.29445 27.5824C1.03841 27.4776 0.805804 27.3229 0.610194 27.1273C0.414584 26.9317 0.25989 26.6991 0.155138 26.4431C0.0503863 26.187 -0.00232512 25.9127 7.86605e-05 25.6361C0.00248244 25.3594 0.0599539 25.0861 0.169139 24.8319C0.278325 24.5777 0.437037 24.3478 0.636016 24.1557L10.9485 13.8432L0.636016 3.53065C0.256521 3.13773 0.0465323 2.61147 0.051279 2.06523C0.0560258 1.51899 0.275127 0.996461 0.661394 0.610194C1.04766 0.223927 1.57019 0.00482546 2.11643 7.87555e-05C2.66267 -0.00466795 3.18893 0.20532 3.58185 0.584816L15.3673 12.3702Z" fill="white"/>
</svg>
