<svg width="232" height="557" viewBox="0 0 232 557" fill="none" xmlns="http://www.w3.org/2000/svg">
<path d="M-11.5469 556.682C55.8326 543.852 116.861 509.296 161.225 458.855C205.59 408.414 230.57 345.18 231.944 279.839C233.319 214.498 211.003 151.056 168.769 100.235C126.534 49.4139 66.9708 14.3293 0.143405 0.910169L-8.0447 35.574C50.4387 47.3177 102.565 78.0216 139.526 122.497C176.487 166.973 196.017 222.493 194.814 279.676C193.611 336.858 171.75 392.197 132.925 436.34C94.0997 480.483 40.6912 510.724 -18.2754 521.953L-11.5469 556.682Z" fill="url(#paint0_linear_1882_346)" fill-opacity="0.1"/>
<defs>
<linearGradient id="paint0_linear_1882_346" x1="-20.9674" y1="558.327" x2="-109.903" y2="-1.25909" gradientUnits="userSpaceOnUse">
<stop stop-color="#0B60B0"/>
<stop offset="1" stop-color="white"/>
</linearGradient>
</defs>
</svg>
