<svg width="40" height="40" viewBox="0 0 40 40" fill="none" xmlns="http://www.w3.org/2000/svg">
<path opacity="0.5" d="M15.9869 5.33299C15.7238 5.56909 15.4485 5.79106 15.1619 5.99799C14.6652 6.33133 14.1069 6.56133 13.5202 6.67799C13.2652 6.72799 12.9986 6.74966 12.4669 6.79133C11.1319 6.89799 10.4636 6.95133 9.9069 7.14799C9.27022 7.37241 8.69195 7.73668 8.2146 8.21403C7.73725 8.69137 7.37298 9.26965 7.14857 9.90633C6.9519 10.463 6.89857 11.1313 6.7919 12.4663C6.77276 12.8192 6.73493 13.1708 6.67857 13.5197C6.5619 14.1063 6.3319 14.6647 5.99857 15.1613C5.85357 15.378 5.68023 15.5813 5.33357 15.9863C4.46523 17.0063 4.03023 17.5163 3.77523 18.0497C3.1869 19.283 3.1869 20.7163 3.77523 21.9497C4.03023 22.483 4.46523 22.993 5.33357 24.013C5.68023 24.418 5.85357 24.6213 5.99857 24.838C6.3319 25.3347 6.5619 25.893 6.67857 26.4797C6.72857 26.7347 6.75023 27.0013 6.7919 27.533C6.89857 28.868 6.9519 29.5363 7.14857 30.093C7.37298 30.7297 7.73725 31.3079 8.2146 31.7853C8.69195 32.2626 9.27022 32.6269 9.9069 32.8513C10.4636 33.048 11.1319 33.1013 12.4669 33.208C12.9986 33.2497 13.2652 33.2713 13.5202 33.3213C14.1069 33.438 14.6652 33.6697 15.1619 34.0013C15.3786 34.1463 15.5819 34.3197 15.9869 34.6663C17.0069 35.5347 17.5169 35.9697 18.0502 36.2247C19.2836 36.813 20.7169 36.813 21.9502 36.2247C22.4836 35.9697 22.9936 35.5347 24.0136 34.6663C24.4186 34.3197 24.6219 34.1463 24.8386 34.0013C25.3352 33.668 25.8936 33.438 26.4802 33.3213C26.7352 33.2713 27.0019 33.2497 27.5336 33.208C28.8686 33.1013 29.5369 33.048 30.0936 32.8513C30.7302 32.6269 31.3085 32.2626 31.7859 31.7853C32.2632 31.3079 32.6275 30.7297 32.8519 30.093C33.0486 29.5363 33.1019 28.868 33.2086 27.533C33.2502 27.0013 33.2719 26.7347 33.3219 26.4797C33.4386 25.893 33.6702 25.3347 34.0019 24.838C34.1469 24.6213 34.3202 24.418 34.6669 24.013C35.5352 22.993 35.9702 22.483 36.2252 21.9497C36.8136 20.7163 36.8136 19.283 36.2252 18.0497C35.9702 17.5163 35.5352 17.0063 34.6669 15.9863C34.4308 15.7233 34.2088 15.4479 34.0019 15.1613C33.6684 14.6647 33.4372 14.1066 33.3219 13.5197C33.2655 13.1708 33.2277 12.8192 33.2086 12.4663C33.1019 11.1313 33.0486 10.463 32.8519 9.90633C32.6275 9.26965 32.2632 8.69137 31.7859 8.21403C31.3085 7.73668 30.7302 7.37241 30.0936 7.14799C29.5369 6.95133 28.8686 6.89799 27.5336 6.79133C27.1807 6.77219 26.8291 6.73436 26.4802 6.67799C25.8933 6.5627 25.3352 6.33152 24.8386 5.99799C24.552 5.79106 24.2766 5.56909 24.0136 5.33299C22.9936 4.46466 22.4836 4.02966 21.9502 3.77466C21.3415 3.48328 20.6751 3.33203 20.0002 3.33203C19.3253 3.33203 18.659 3.48328 18.0502 3.77466C17.5169 4.02966 17.0069 4.46466 15.9869 5.33299Z" fill="#0B60B0"/>
<path d="M27.2899 16.438C27.5371 16.1822 27.6739 15.8394 27.6709 15.4837C27.6678 15.1279 27.5252 14.7876 27.2736 14.536C27.022 14.2845 26.6817 14.1418 26.3259 14.1387C25.9702 14.1357 25.6274 14.2725 25.3716 14.5197L17.2883 22.603L14.6299 19.9447C14.3741 19.6975 14.0313 19.5607 13.6756 19.5637C13.3198 19.5668 12.9795 19.7095 12.7279 19.961C12.4764 20.2126 12.3337 20.5529 12.3306 20.9087C12.3276 21.2644 12.4644 21.6072 12.7116 21.863L16.3283 25.4797C16.5826 25.7335 16.9273 25.8761 17.2866 25.8761C17.6459 25.8761 17.9906 25.7335 18.2449 25.4797L27.2899 16.438Z" fill="#0B60B0"/>
</svg>
