<svg width="22" height="22" viewBox="0 0 22 22" fill="none" xmlns="http://www.w3.org/2000/svg">
<path d="M21.8758 6.99053C21.9249 8.72781 21.3057 10.4183 20.1443 11.7173C18.9829 13.0162 17.3669 13.8258 15.6258 13.981C15.6116 13.4492 15.5059 12.9238 15.3133 12.4276C16.6723 12.2886 17.9326 11.6579 18.8545 10.6555C19.7764 9.65303 20.2955 8.34871 20.3133 6.99053C20.3081 5.58949 19.7603 4.24427 18.7835 3.23436C17.8068 2.22445 16.4762 1.62749 15.0683 1.5675C13.6603 1.50751 12.2833 1.9891 11.2232 2.91223C10.1631 3.83535 9.50147 5.12903 9.37578 6.5245C8.87242 6.34775 8.3463 6.24314 7.81328 6.21382C8.04464 4.51347 8.88108 2.95179 10.171 1.81185C11.4609 0.671911 13.1189 0.0291494 14.8445 6.96677e-05C15.769 -0.00404293 16.6852 0.173963 17.5402 0.52381C18.3951 0.873658 19.1719 1.38841 19.8256 2.03836C20.4793 2.6883 20.9971 3.46056 21.349 4.31054C21.7009 5.16052 21.8799 6.07138 21.8758 6.99053ZM7.03203 7.76725C5.16702 7.76725 3.3784 8.50383 2.05963 9.81494C0.740872 11.1261 0 12.9043 0 14.7585C0 16.6127 0.740872 18.3909 2.05963 19.702C3.3784 21.0132 5.16702 21.7497 7.03203 21.7497C8.89684 21.7497 10.6853 21.0132 12.0039 19.7023C13.3225 18.3913 14.0633 16.6133 14.0633 14.7593C14.0633 12.9053 13.3225 11.1272 12.0039 9.81627C10.6853 8.5053 8.89684 7.76725 7.03203 7.76725Z" fill="#C7D200"/>
</svg>
