<svg width="13" height="13" viewBox="0 0 13 13" fill="none" xmlns="http://www.w3.org/2000/svg">
<path d="M8.984 0V0.703C8.57388 0.772706 8.18444 0.932921 7.844 1.172L7.328 0.687L6.6405 1.422L7.1405 1.8905C6.91233 2.22415 6.75774 2.60253 6.687 3.0005H5.984V4.0005H6.687C6.76 4.4155 6.924 4.7935 7.156 5.1255L6.6245 5.6405L7.3445 6.3605L7.8595 5.8285C8.1915 6.0605 8.5695 6.2245 8.9845 6.2975V7H9.9845V6.297C10.3824 6.22641 10.7608 6.07199 11.0945 5.844L11.5625 6.344L12.2975 5.656L11.8125 5.141C12.0475 4.806 12.2075 4.4185 12.2815 4H12.984V3H12.281C12.2092 2.59511 12.049 2.21101 11.812 1.875L12.281 1.406L11.5775 0.703L11.109 1.172C10.773 0.934954 10.3889 0.774827 9.984 0.703V0H8.984ZM9.484 1.6565C9.72656 1.65491 9.96702 1.7015 10.1914 1.79357C10.4158 1.88565 10.6197 2.02137 10.7913 2.19287C10.9628 2.36436 11.0986 2.56822 11.1907 2.7926C11.2829 3.01699 11.3295 3.25744 11.328 3.5C11.328 4.5275 10.5115 5.344 9.484 5.344C8.4565 5.344 7.64 4.5275 7.64 3.5C7.64 2.4725 8.4565 1.656 9.484 1.656V1.6565ZM2.999 4.609L2.078 4.984L2.437 5.889C1.95915 6.17503 1.55716 6.57187 1.265 7.046L0.375 6.686L0 7.6085L0.89 7.9675C0.819779 8.23797 0.783169 8.51607 0.781 8.7955C0.781 9.0805 0.8235 9.3585 0.89 9.6235L0 9.9835L0.375 10.905L1.265 10.545C1.55456 11.0253 1.95684 11.4277 2.437 11.7175L2.077 12.6075L2.9995 12.9825L3.3595 12.0925C3.62997 12.1627 3.90807 12.1993 4.1875 12.2015C4.4725 12.2015 4.7515 12.159 5.0155 12.0925L5.3755 12.9825L6.297 12.6075L5.937 11.7175C6.41162 11.426 6.8086 11.0238 7.094 10.5455L7.999 10.9045L8.374 9.983L7.469 9.623C7.534 9.358 7.578 9.0795 7.578 8.795C7.578 8.51 7.5345 8.231 7.468 7.9665L8.3745 7.6075L7.9995 6.685L7.0945 7.045C6.80719 6.57213 6.41037 6.17531 5.9375 5.888L6.2975 4.983L5.375 4.608L5.0165 5.513C4.74566 5.44388 4.46751 5.40745 4.188 5.4045C3.903 5.4045 3.625 5.4475 3.36 5.5135L3 4.6085L2.999 4.609ZM4.187 6.405C5.5185 6.405 6.577 7.465 6.577 8.796C6.578 10.1275 5.5185 11.202 4.187 11.202C3.87093 11.2024 3.55788 11.1404 3.2658 11.0197C2.97371 10.8989 2.70832 10.7217 2.48482 10.4982C2.26132 10.2747 2.08411 10.0093 1.96334 9.7172C1.84257 9.42512 1.78061 9.11207 1.781 8.796C1.781 7.4645 2.856 6.405 4.187 6.405Z" fill="#1E3A8A"/>
</svg>
