<svg width="13" height="13" viewBox="0 0 13 13" fill="none" xmlns="http://www.w3.org/2000/svg">
<path d="M8.86 0L6.86 1.9845L5.72 0.8435L5 1.5635L5.375 1.9385L2.813 4.5005C2.5219 4.79318 2.35849 5.1892 2.35849 5.602C2.35849 6.0148 2.5219 6.41082 2.813 6.7035L3.735 7.6255L0 11.344L0.72 12.064L4.438 8.329L5.36 9.25C5.65268 9.5411 6.0487 9.70451 6.4615 9.70451C6.8743 9.70451 7.27032 9.5411 7.563 9.25L10.1255 6.6875L10.5005 7.0625L11.2205 6.3425L10.0785 5.203L12.0625 3.203L11.36 2.5L9.36 4.485L7.5785 2.703L9.5635 0.703L8.86 0ZM6.0785 2.64L9.4225 5.984L6.86 8.5475C6.666 8.741 6.257 8.741 6.063 8.5475L3.5165 6.0005C3.3225 5.8065 3.3225 5.3975 3.5165 5.2035L6.0785 2.641V2.64Z" fill="#1E3A8A"/>
</svg>
