<svg width="15" height="15" viewBox="0 0 15 15" fill="none" xmlns="http://www.w3.org/2000/svg">
<path d="M14.5312 10.3125V9.375H13.5469C13.4859 9.08165 13.3693 8.80271 13.2033 8.55328L13.9017 7.85484L13.2389 7.19203L12.5405 7.89047C12.291 7.72463 12.0121 7.60816 11.7188 7.54734V6.5625H10.7812V7.54734C10.4879 7.60816 10.209 7.72463 9.95953 7.89047L9.26109 7.19203L8.59828 7.85484L9.29672 8.55328C9.13072 8.80271 9.01408 9.08165 8.95313 9.375H7.96875V10.3125H8.95313C9.01406 10.6111 9.13313 10.8886 9.29625 11.1342L8.59781 11.8327L9.26063 12.4955L9.95906 11.797C10.2086 11.9631 10.4877 12.0797 10.7812 12.1406V13.125H11.7188V12.1406C12.0121 12.0798 12.291 11.9633 12.5405 11.7975L13.2389 12.4959L13.9017 11.8331L13.2033 11.1347C13.3693 10.8851 13.486 10.606 13.5469 10.3125H14.5312ZM11.25 11.25C10.877 11.25 10.5194 11.1018 10.2556 10.8381C9.99191 10.5744 9.84375 10.2167 9.84375 9.84375C9.84375 9.47079 9.99191 9.1131 10.2556 8.84938C10.5194 8.58566 10.877 8.4375 11.25 8.4375C11.623 8.4375 11.9806 8.58566 12.2444 8.84938C12.5081 9.1131 12.6562 9.47079 12.6562 9.84375C12.6562 10.2167 12.5081 10.5744 12.2444 10.8381C11.9806 11.1018 11.623 11.25 11.25 11.25Z" fill="#1E3A8A"/>
<path d="M9.84375 2.8125C9.84375 1.52016 8.79234 0.46875 7.5 0.46875C6.66563 0.46875 5.88797 0.917812 5.47031 1.64062C5.32103 1.90041 5.22092 2.18548 5.175 2.48156C4.62225 2.08724 3.96024 1.8752 3.28125 1.875C1.47188 1.875 0 3.34687 0 5.15625C0.000593523 5.75698 0.166092 6.34602 0.478453 6.85916C0.790814 7.37229 1.23805 7.78983 1.77141 8.06625C1.26562 8.49656 0.9375 9.12937 0.9375 9.84375C0.9375 11.1361 1.98891 12.1875 3.28125 12.1875C3.62531 12.1875 3.95016 12.1087 4.24453 11.9747C4.37438 13.1452 5.35781 14.0625 6.5625 14.0625C6.87042 14.0633 7.17545 14.0031 7.45995 13.8853C7.74445 13.7675 8.00278 13.5945 8.22 13.3762L7.55672 12.713C7.42648 12.844 7.27154 12.9479 7.10088 13.0186C6.93022 13.0893 6.74723 13.1255 6.5625 13.125C5.78719 13.125 5.15625 12.4941 5.15625 11.7188C5.15625 10.9434 5.78719 10.3125 6.5625 10.3125V9.375C6.21797 9.375 5.89359 9.45422 5.59922 9.58781C5.53303 8.99656 5.24446 8.4526 4.79203 8.06625C5.32521 7.7897 5.77226 7.37211 6.08445 6.85898C6.39664 6.34586 6.562 5.75688 6.5625 5.15625C6.5625 5.08734 6.55594 5.01984 6.55172 4.95188C6.84234 5.08125 7.16203 5.15625 7.5 5.15625C8.79234 5.15625 9.84375 4.10484 9.84375 2.8125ZM6.28125 2.10938C6.40511 1.89578 6.58286 1.71844 6.79673 1.59505C7.01059 1.47167 7.25309 1.40657 7.5 1.40625C8.27531 1.40625 8.90625 2.03719 8.90625 2.8125C8.90625 3.58781 8.27531 4.21875 7.5 4.21875C6.72469 4.21875 6.09375 3.58781 6.09375 2.8125H6.07969C6.09656 2.5425 6.16031 2.31938 6.28125 2.10938ZM4.6875 9.84375C4.6875 10.6191 4.05656 11.25 3.28125 11.25C2.50594 11.25 1.875 10.6191 1.875 9.84375C1.875 9.06844 2.50594 8.4375 3.28125 8.4375C4.05656 8.4375 4.6875 9.06844 4.6875 9.84375ZM3.28125 7.5C1.98891 7.5 0.9375 6.44859 0.9375 5.15625C0.9375 3.86391 1.98891 2.8125 3.28125 2.8125C4.57359 2.8125 5.625 3.86391 5.625 5.15625C5.625 6.44859 4.57359 7.5 3.28125 7.5Z" fill="#1E3A8A"/>
</svg>
