<svg width="14" height="13" viewBox="0 0 14 13" fill="none" xmlns="http://www.w3.org/2000/svg">
<path d="M6.29879 11.1978C5.56393 11.1978 4.87876 11.0695 4.24329 10.8129C3.60781 10.5563 3.04488 10.2064 2.55451 9.76312C2.41454 9.63481 2.35038 9.48038 2.36205 9.29981C2.37371 9.11925 2.45536 8.96458 2.607 8.8358C2.75864 8.70703 2.93361 8.6459 3.1319 8.65244C3.3302 8.65897 3.50516 8.72592 3.6568 8.8533C4.03006 9.15657 4.43552 9.38986 4.87317 9.55316C5.31081 9.71646 5.78602 9.79812 6.29879 9.79812C7.46523 9.79812 8.45671 9.38986 9.27322 8.57335C10.0897 7.75684 10.498 6.76537 10.498 5.59892C10.498 4.43248 10.0897 3.441 9.27322 2.6245C8.45671 1.80799 7.46523 1.39973 6.29879 1.39973C5.33064 1.39973 4.47634 1.69134 3.73588 2.27456C2.99543 2.85778 2.50249 3.59847 2.25707 4.49664C2.19875 4.69493 2.09377 4.8699 1.94213 5.02153C1.79049 5.17317 1.61553 5.24899 1.41723 5.24899C1.21894 5.24899 1.05867 5.17037 0.936423 5.01314C0.81418 4.8559 0.776154 4.6779 0.822345 4.47914C1.09063 3.19605 1.72937 2.12876 2.73858 1.27725C3.74778 0.425751 4.93452 0 6.29879 0C7.86182 0 9.18574 0.542396 10.2705 1.62719C11.3553 2.71198 11.8977 4.03589 11.8977 5.59892C11.8977 6.25213 11.7927 6.86755 11.5828 7.44517C11.3728 8.02279 11.0812 8.55049 10.7079 9.02826L13.5074 11.8277C13.6357 11.956 13.6999 12.1193 13.6999 12.3176C13.6999 12.5159 13.6357 12.6792 13.5074 12.8075C13.3791 12.9358 13.2158 13 13.0175 13C12.8192 13 12.6559 12.9358 12.5276 12.8075L9.72813 10.0081C9.24989 10.3813 8.72219 10.6729 8.14504 10.8829C7.56788 11.0929 6.95247 11.1978 6.29879 11.1978ZM6.07134 6.54374L6.71871 4.53163C6.7537 4.43831 6.80923 4.35969 6.88528 4.29577C6.96133 4.23185 7.05161 4.19966 7.15613 4.19919H7.57605C7.66936 4.19919 7.75101 4.22252 7.821 4.26918C7.89099 4.31584 7.94931 4.37999 7.99597 4.46164L8.92329 6.29879C9.07492 6.29879 9.20043 6.34848 9.29981 6.44786C9.39919 6.54724 9.44865 6.67252 9.44818 6.82369C9.44772 6.97486 9.39803 7.10037 9.29911 7.20022C9.2002 7.30006 9.07492 7.34952 8.92329 7.34859H8.60835C8.51503 7.34859 8.42475 7.32246 8.3375 7.2702C8.25025 7.21794 8.18306 7.14493 8.13594 7.05114L7.45357 5.7039L6.68372 8.06595C6.64872 8.17093 6.5904 8.25258 6.50875 8.3109C6.4271 8.36922 6.33378 8.39839 6.2288 8.39839H5.91387C5.80889 8.39839 5.71277 8.36642 5.62552 8.3025C5.53827 8.23858 5.47692 8.1539 5.44146 8.04845L4.44415 4.75908L3.6568 6.99865C3.62181 7.10363 3.56068 7.18832 3.47343 7.25271C3.38618 7.31709 3.284 7.34905 3.16689 7.34859H0.524902C0.373265 7.34859 0.247989 7.2989 0.149075 7.19952C0.0501603 7.10013 0.000469832 6.97486 3.25518e-06 6.82369C-0.000463322 6.67252 0.0492272 6.54724 0.149075 6.44786C0.248922 6.34848 0.374198 6.29879 0.524902 6.29879H2.79946L3.83177 3.30686C3.86676 3.20188 3.92811 3.12023 4.01583 3.06191C4.10355 3.00359 4.19966 2.97443 4.30417 2.97443H4.63661C4.75326 2.97443 4.8524 3.00942 4.93405 3.07941C5.01571 3.14939 5.07403 3.23688 5.10902 3.34186L6.07134 6.54374Z" fill="#1E3A8A"/>
</svg>
