<svg width="16" height="16" viewBox="0 0 16 16" fill="none" xmlns="http://www.w3.org/2000/svg">
<path d="M10.8 11.5L10.947 11.647C11.2053 11.9053 11.3341 12.0341 11.4902 12.025C11.6463 12.0166 11.7604 11.8745 11.9886 11.5889L12.9 10.45M10.9197 5.13701V6.25001M10.9197 5.13701C10.9197 4.60921 11.3635 4.18151 11.9102 4.18151C12.4562 4.18151 12.9 4.60921 12.9 5.13631V6.25001M10.9197 5.13701V3.22671C10.9197 2.6996 10.4766 2.2719 9.92989 2.2719C9.38319 2.2719 8.93939 2.6989 8.93939 3.22671M8.93939 3.22671V6.25001M8.93939 3.22671V1.9548C8.93939 1.427 8.49698 1 7.94958 1C7.40218 1 6.95978 1.427 6.95978 1.9548V3.86301M6.95978 3.86301C6.95978 3.33591 6.51598 2.9082 5.96928 2.9082C5.42328 2.9082 4.97948 3.33521 4.97948 3.86301V8.44592C4.97948 8.73712 4.60637 8.87502 4.40337 8.65942L2.80037 6.95211C2.6641 6.79418 2.48144 6.6833 2.27844 6.63528C2.07544 6.58726 1.86246 6.60456 1.66987 6.68471C0.964266 6.97661 0.798366 8.00632 1.25687 8.59992C2.04227 9.61632 2.84587 11.003 3.49547 12.2259C4.37747 13.887 6.11698 15 8.05038 15M6.95978 3.86301V6.25001M8.69998 10.4178V10.688C8.69998 11.5294 8.69998 11.9501 8.80358 12.3351C8.93303 12.8127 9.17662 13.2516 9.51339 13.614C9.78639 13.9094 10.1476 14.139 10.8693 14.5989C11.192 14.8047 11.3537 14.9076 11.5259 14.9559C11.738 15.0147 11.9627 15.0147 12.1748 14.9559C12.3463 14.9076 12.508 14.8047 12.8307 14.5989C13.5524 14.139 13.9136 13.9094 14.1866 13.614C14.5234 13.2516 14.767 12.8127 14.8964 12.3351C15 11.9501 15 11.5301 15 10.688V10.4178C15 9.89422 15 9.63242 14.9006 9.41122C14.8382 9.27468 14.7506 9.15118 14.6423 9.04722C14.4652 8.87922 14.2139 8.78682 13.7113 8.60272L12.6795 8.22472C12.2693 8.07492 12.0642 8.00002 11.85 8.00002C11.6358 8.00002 11.4307 8.07492 11.0205 8.22542L9.98869 8.60342C9.48609 8.78682 9.23479 8.87852 9.05769 9.04722C8.94915 9.15111 8.86127 9.27462 8.79868 9.41122C8.69998 9.63242 8.69998 9.89422 8.69998 10.4178Z" stroke="#1E3A8A" stroke-width="1.05" stroke-linecap="round" stroke-linejoin="round"/>
</svg>
