<svg width="221" height="565" viewBox="0 0 221 565" fill="none" xmlns="http://www.w3.org/2000/svg">
<path d="M-31.1351 564.94C36.3666 552.469 98.3846 517.57 144.281 466.229C190.178 414.888 217.093 350.303 220.41 283.554C223.727 216.805 203.239 152.05 162.461 100.397C121.682 48.7438 63.1543 13.4114 -3.08416 0.460067L-11.8112 35.6752C46.1568 47.0095 97.377 77.9303 133.064 123.134C168.751 168.338 186.681 225.007 183.778 283.422C180.875 341.837 157.321 398.358 117.154 443.289C76.9883 488.22 22.7138 518.761 -36.3597 529.675L-31.1351 564.94Z" fill="url(#paint0_linear_2197_231)" fill-opacity="0.1"/>
<defs>
<linearGradient id="paint0_linear_2197_231" x1="-224.148" y1="42.8961" x2="78.1897" y2="522.102" gradientUnits="userSpaceOnUse">
<stop stop-color="#C7D200"/>
<stop offset="1" stop-color="white"/>
</linearGradient>
</defs>
</svg>
