<svg width="72" height="72" viewBox="0 0 72 72" fill="none" xmlns="http://www.w3.org/2000/svg">
<path opacity="0.2" d="M56.9232 42.224C56.7436 42.5473 56.5313 42.8513 56.2896 43.1312L38.3472 64.6592C37.4241 65.7392 36.1126 66.4119 34.6969 66.5315C33.2812 66.6511 31.8754 66.208 30.7842 65.2982C29.693 64.3884 29.0043 63.0852 28.8674 61.6711C28.7305 60.2569 29.1564 58.8458 30.0528 57.7436L45.1728 39.5996L30.0528 21.4556C29.5787 20.9136 29.2178 20.2824 28.9912 19.5989C28.7647 18.9154 28.6772 18.1935 28.7337 17.4757C28.7903 16.7579 28.9899 16.0586 29.3207 15.4191C29.6515 14.7795 30.1069 14.2126 30.66 13.7516C31.2132 13.2906 31.853 12.945 32.5417 12.7349C33.2304 12.5248 33.9542 12.4546 34.6704 12.5284C35.3867 12.6022 36.081 12.8185 36.7124 13.1646C37.3438 13.5106 37.8997 13.9795 38.3472 14.5436L56.3472 36.1436C57.0457 36.9805 57.4746 38.0092 57.5774 39.0945C57.6802 40.1798 57.4522 41.2708 56.9232 42.224Z" fill="white"/>
<path d="M25.6176 15.5516C25.4596 15.3709 25.3393 15.1605 25.2638 14.9327C25.1883 14.7049 25.1591 14.4642 25.1779 14.225C25.1968 13.9857 25.2633 13.7526 25.3736 13.5394C25.4839 13.3262 25.6356 13.1373 25.82 12.9836C26.0044 12.83 26.2177 12.7147 26.4472 12.6447C26.6768 12.5747 26.9181 12.5513 27.1568 12.5759C27.3956 12.6005 27.627 12.6726 27.8375 12.7879C28.048 12.9033 28.2332 13.0596 28.3824 13.2476L46.3824 34.8476C46.6745 35.2157 46.811 35.6834 46.7629 36.1509C46.7147 36.6183 46.4857 37.0484 46.1247 37.3492C45.7637 37.65 45.2994 37.7978 44.8309 37.7608C44.3625 37.7239 43.927 37.5053 43.6176 37.1516L25.6176 15.5516Z" fill="white"/>
<path d="M28.3824 58.7532C28.073 59.1068 27.6376 59.3255 27.1691 59.3624C26.7006 59.3993 26.2363 59.2516 25.8753 58.9508C25.5143 58.6499 25.2853 58.2199 25.2371 57.7524C25.189 57.285 25.3255 56.8173 25.6176 56.4492L43.6176 34.8492C43.7668 34.6611 43.9521 34.5049 44.1625 34.3895C44.373 34.2741 44.6045 34.202 44.8432 34.1774C45.082 34.1528 45.3232 34.1762 45.5528 34.2463C45.7824 34.3163 45.9956 34.4315 46.18 34.5852C46.3644 34.7388 46.5162 34.9278 46.6264 35.141C46.7367 35.3542 46.8032 35.5873 46.8221 35.8265C46.841 36.0658 46.8118 36.3064 46.7363 36.5343C46.6608 36.7621 46.5404 36.9725 46.3824 37.1532L28.3824 58.7532Z" fill="white"/>
</svg>
