<svg width="20" height="17" viewBox="0 0 20 17" fill="none" xmlns="http://www.w3.org/2000/svg">
<path d="M2 16.8197C1.45 16.8197 0.979333 16.6141 0.588 16.2027C0.196667 15.7913 0.000666667 15.2962 0 14.7173V2.10247C0 1.52429 0.196 1.02951 0.588 0.618126C0.98 0.206743 1.45067 0.000700823 2 0H18C18.55 0 19.021 0.206042 19.413 0.618126C19.805 1.03021 20.0007 1.52499 20 2.10247V14.7173C20 15.2955 19.8043 15.7906 19.413 16.2027C19.0217 16.6148 18.5507 16.8204 18 16.8197H2ZM10 9.46111L2 4.20494V14.7173H18V4.20494L10 9.46111ZM10 7.35864L18 2.10247H2L10 7.35864ZM2 4.20494V2.10247V14.7173V4.20494Z" fill="#0B60B0"/>
</svg>
