<svg width="182" height="564" viewBox="0 0 182 564" fill="none" xmlns="http://www.w3.org/2000/svg">
<path d="M233.184 0.192718C166.466 16.9403 106.741 55.649 64.2538 109.68C21.7668 163.71 -0.834589 229.695 0.326384 296.316C1.48735 362.938 26.3383 426.044 70.6167 474.811C114.895 523.578 175.842 554.966 243.002 563.591L249.372 527.995C190.597 520.446 137.261 492.977 98.5107 450.3C59.7609 407.622 38.0128 352.395 36.9968 294.092C35.9808 235.789 55.7602 178.042 92.9423 130.758C130.124 83.4739 182.392 49.5983 240.78 34.9418L233.184 0.192718Z" fill="url(#paint0_linear_2197_258)" fill-opacity="0.1"/>
<defs>
<linearGradient id="paint0_linear_2197_258" x1="142.852" y1="38.8961" x2="445.19" y2="518.102" gradientUnits="userSpaceOnUse">
<stop stop-color="#C7D200"/>
<stop offset="1" stop-color="white"/>
</linearGradient>
</defs>
</svg>
