<svg width="29" height="29" viewBox="0 0 29 29" fill="none" xmlns="http://www.w3.org/2000/svg">
<path d="M8.28544 8.28627H20.7119V6.21484H8.28544V8.28627ZM4.14258 8.28627H6.21401V6.21484H4.14258V8.28627ZM4.14258 14.5006H6.21401V12.4291H4.14258V14.5006ZM16.6167 12.4291L16.306 13.1189L14.7794 12.9573L13.812 12.8538L13.1284 13.5622C12.8407 13.8586 12.5709 14.1719 12.3206 14.5006H8.28544V12.4291H16.6167ZM10.3921 18.6434L10.3569 18.7594L10.9907 19.6108L11.8172 20.7148H8.28544V18.6434H10.3921ZM4.14258 20.7148H6.21401V18.6434H4.14258V20.7148Z" fill="black"/>
<path d="M24.8571 12.5321L24.5216 11.7885L24.1073 10.8626L23.1337 10.6347L22.7857 10.5601V2.07143H2.07143V24.8571H11.1029C11.4281 25.5904 11.8382 26.2864 12.325 26.9286H0V0H24.8571V12.5321Z" fill="black"/>
<path d="M20.7227 12.4277C21.3925 12.4277 22.0595 12.503 22.7237 12.6535L23.9562 15.3319L26.9909 15.017C27.9375 15.974 28.619 17.1216 28.9981 18.352L27.1959 20.7134L29.0001 23.0769C28.804 23.6996 28.5349 24.2968 28.1985 24.8563C27.8591 25.4203 27.4537 25.9418 26.9909 26.4099L23.9562 26.095L22.7258 28.7713C21.4024 29.0713 20.0288 29.072 18.7051 28.7734L17.4747 26.095L14.438 26.4099C13.5104 25.4759 12.8218 24.3318 12.4308 23.0749L14.2329 20.7134L12.4287 18.352C12.8204 17.0949 13.5096 15.9508 14.438 15.017L17.4747 15.3319L18.7031 12.6556C19.3657 12.5046 20.0431 12.4282 20.7227 12.4277ZM20.7144 22.7849C20.994 22.7977 21.2732 22.7537 21.5352 22.6556C21.7973 22.5575 22.0368 22.4073 22.2392 22.2141C22.4416 22.021 22.6028 21.7888 22.713 21.5316C22.8233 21.2744 22.8802 20.9975 22.8805 20.7177C22.8808 20.4379 22.8244 20.1609 22.7147 19.9035C22.605 19.6461 22.4442 19.4135 22.2422 19.2199C22.0402 19.0264 21.801 18.8757 21.5391 18.7771C21.2773 18.6785 20.9981 18.6339 20.7186 18.6462C20.1857 18.6695 19.6824 18.8974 19.3134 19.2825C18.9444 19.6676 18.7382 20.1802 18.7377 20.7135C18.7371 21.2469 18.9423 21.7599 19.3106 22.1457C19.6788 22.5316 20.1816 22.7605 20.7144 22.7849Z" fill="black"/>
</svg>
