<svg width="55" height="55" viewBox="0 0 55 55" fill="none" xmlns="http://www.w3.org/2000/svg">
<path fill-rule="evenodd" clip-rule="evenodd" d="M54.4374 17.5C54.8113 19.1403 55 20.8175 54.9999 22.4999H32.5V1.76285e-10C37.5984 -2.01739e-05 42.5456 1.7315 46.5312 4.9109C50.5168 8.0903 53.3045 12.529 54.4374 17.5ZM49.27 17.5C48.4396 14.7151 46.9288 12.1809 44.8739 10.126C42.8191 8.07113 40.2848 6.56034 37.5 5.72998V17.5H49.27Z" fill="#0B60B0"/>
<path fill-rule="evenodd" clip-rule="evenodd" d="M1.76174e-10 32.5C-1.33728e-05 29.1204 0.761304 25.7842 2.22742 22.7392C3.69353 19.6942 5.82677 17.0185 8.46873 14.911C11.1107 12.8034 14.1935 11.3181 17.4882 10.5653C20.7829 9.81248 24.2048 9.81156 27.4999 10.5626V27.5H44.4374C45.1411 30.5878 45.185 33.7894 44.5663 36.8954C43.9476 40.0013 42.6802 42.9417 40.8469 45.5241C39.0136 48.1065 36.6559 50.2728 33.9278 51.8814C31.1997 53.4899 28.1628 54.5044 25.0157 54.8585C21.8686 55.2126 18.6822 54.8983 15.6649 53.9363C12.6475 52.9742 9.86733 51.386 7.50604 49.2755C5.14475 47.1651 3.2556 44.5799 1.96214 41.6891C0.668679 38.7983 5.49866e-05 35.667 1.76174e-10 32.5ZM39.5099 32.5H22.4999V15.4901C19.1357 15.4901 15.847 16.4877 13.0497 18.3568C10.2524 20.2258 8.07223 22.8824 6.78479 25.9906C5.49735 29.0988 5.16049 32.5189 5.81683 35.8185C6.47316 39.1181 8.0932 42.149 10.4721 44.5279C12.851 46.9068 15.8819 48.5268 19.1815 49.1831C22.4811 49.8395 25.9012 49.5026 29.0094 48.2152C32.1175 46.9277 34.7741 44.7475 36.6432 41.9502C38.5123 39.153 39.5099 35.8643 39.5099 32.5Z" fill="#0B60B0"/>
</svg>
