<svg width="52" height="70" viewBox="0 0 52 70" fill="none" xmlns="http://www.w3.org/2000/svg">
<path d="M52.525 29.6654L51.5167 25.357C50.8444 25.1126 50.1881 24.807 49.5477 24.4404C48.9072 24.0737 48.3108 23.6459 47.7583 23.157L43.5417 24.532L41.0667 20.3154L44.275 17.1987C44.1528 16.4654 44.0917 15.732 44.0917 14.9987C44.0917 14.2654 44.1528 13.532 44.275 12.7987L41.0667 9.86536L43.5417 5.6487L47.6667 6.84036C48.2167 6.35148 48.8131 5.9237 49.456 5.55703C50.0989 5.19036 50.7858 4.88481 51.5167 4.64036L52.525 0.332031H57.3833L58.4833 4.5487C59.2167 4.85425 59.9048 5.19036 60.5477 5.55703C61.1906 5.9237 61.7858 6.35148 62.3333 6.84036L66.4583 5.6487L68.9333 9.86536L65.8167 12.7987C65.9389 13.532 66.0159 14.2813 66.0477 15.0464C66.0794 15.8115 66.0024 16.5595 65.8167 17.2904L68.9333 20.2237L66.55 24.4404L62.3333 23.157C61.7833 23.6459 61.1722 24.0737 60.5 24.4404C59.8278 24.807 59.1556 25.1126 58.4833 25.357L57.3833 29.6654H52.525ZM55 20.4987C56.5278 20.4987 57.827 19.9646 58.8977 18.8964C59.9683 17.8281 60.5024 16.5289 60.5 14.9987C60.4976 13.4685 59.9634 12.1705 58.8977 11.1047C57.8319 10.0389 56.5327 9.50359 55 9.4987C53.4673 9.49381 52.1693 10.0291 51.106 11.1047C50.0427 12.1803 49.5073 13.4783 49.5 14.9987C49.4927 16.5191 50.028 17.8184 51.106 18.8964C52.184 19.9744 53.482 20.5085 55 20.4987ZM16.5 51.6654C18.0278 51.6654 19.327 51.1312 20.3977 50.063C21.4683 48.9948 22.0024 47.6956 22 46.1654C21.9976 44.6351 21.4634 43.3371 20.3977 42.2714C19.3319 41.2056 18.0327 40.6702 16.5 40.6654C14.9673 40.6605 13.6693 41.1958 12.606 42.2714C11.5427 43.3469 11.0073 44.6449 11 46.1654C10.9927 47.6858 11.528 48.985 12.606 50.063C13.684 51.141 14.982 51.6751 16.5 51.6654ZM49.5 51.6654C51.0278 51.6654 52.327 51.1312 53.3977 50.063C54.4683 48.9948 55.0024 47.6956 55 46.1654C54.9976 44.6351 54.4634 43.3371 53.3977 42.2714C52.3319 41.2056 51.0327 40.6702 49.5 40.6654C47.9673 40.6605 46.6693 41.1958 45.606 42.2714C44.5427 43.3469 44.0073 44.6449 44 46.1654C43.9927 47.6858 44.528 48.985 45.606 50.063C46.684 51.141 47.982 51.6751 49.5 51.6654ZM55 36.9987C56.9556 36.9987 58.8659 36.7543 60.731 36.2654C62.5961 35.7765 64.3524 35.0431 66 34.0654V66.332C66 67.3709 65.648 68.2424 64.944 68.9464C64.24 69.6504 63.3698 70.0011 62.3333 69.9987H58.6667C57.6278 69.9987 56.7576 69.6467 56.056 68.9427C55.3544 68.2387 55.0024 67.3685 55 66.332V62.6654H11V66.332C11 67.3709 10.648 68.2424 9.944 68.9464C9.24 69.6504 8.36978 70.0011 7.33333 69.9987H3.66667C2.62778 69.9987 1.75756 69.6467 1.056 68.9427C0.354445 68.2387 0.00244444 67.3685 0 66.332V36.9987L7.60833 14.9987C7.975 13.8987 8.63256 13.0126 9.581 12.3404C10.5294 11.6681 11.6136 11.332 12.8333 11.332H33.3667C33.2444 11.9431 33.1528 12.5396 33.0917 13.1214C33.0306 13.7031 33 14.3289 33 14.9987C33 15.6685 33.0306 16.2955 33.0917 16.8797C33.1528 17.4639 33.2444 18.0591 33.3667 18.6654H14.1167L10.2667 29.6654H38.6833C40.8222 31.9876 43.2972 33.7904 46.1083 35.0737C48.9194 36.357 51.8833 36.9987 55 36.9987Z" fill="#0B60B0"/>
</svg>
