<svg width="31" height="34" viewBox="0 0 31 34" fill="none" xmlns="http://www.w3.org/2000/svg">
<path d="M14.0962 2.27692L2 7.19231V19.3077C2 25.8 15.5 32 15.5 32C15.5 32 29 25.8 29 19.3077V7.19231L16.9038 2.27692C16.459 2.09412 15.9819 2 15.5 2C15.0181 2 14.541 2.09412 14.0962 2.27692Z" stroke="black" stroke-width="3" stroke-linecap="round" stroke-linejoin="round"/>
<path d="M15.5 20C13.5556 20 12 18.4444 12 16.5C12 14.5556 13.5556 13 15.5 13C17.4444 13 19 14.5556 19 16.5C19 18.4444 17.4444 20 15.5 20ZM15.5 13.7778C13.9833 13.7778 12.7778 14.9833 12.7778 16.5C12.7778 18.0167 13.9833 19.2222 15.5 19.2222C17.0167 19.2222 18.2222 18.0167 18.2222 16.5C18.2222 14.9833 17.0167 13.7778 15.5 13.7778Z" fill="black"/>
<path d="M16.5884 24H14.4512L13.8575 22.1842C13.4617 22.0658 13.066 21.9079 12.7098 21.7105L10.9683 22.5789L9.46438 21.0789L10.3351 19.3421C10.1372 18.9868 9.97889 18.5921 9.86016 18.1974L8 17.5658V15.4342L9.82058 14.8421C9.93931 14.4474 10.0976 14.0526 10.2955 13.6974L9.4248 11.9605L10.9288 10.4605L12.6702 11.3289C13.0264 11.1316 13.4222 10.9737 13.8179 10.8553L14.4512 9H16.5884L17.1821 10.8158C17.5778 10.9342 17.9736 11.0921 18.3298 11.2895L20.0712 10.4211L21.5752 11.9211L20.7045 13.6579C20.9024 14.0132 21.0607 14.4079 21.1794 14.8026L23 15.3947V17.5263L21.1794 18.1184C21.0607 18.5132 20.9024 18.9079 20.7045 19.2632L21.5752 21L20.0712 22.5L18.3298 21.6316C17.9736 21.8289 17.5778 21.9868 17.1821 22.1053L16.5884 24ZM15.0053 23.2105H16.0343L16.5884 21.5132L16.7863 21.4737C17.2612 21.3553 17.6966 21.1579 18.1319 20.9211L18.3298 20.8026L19.9129 21.5921L20.6253 20.8816L19.8338 19.3026L19.9525 19.1053C20.19 18.7105 20.3879 18.2368 20.5066 17.7632L20.5462 17.5658L22.248 17.0132V15.9868L20.5462 15.4342L20.5066 15.2368C20.3879 14.7632 20.19 14.3289 19.9525 13.8947L19.8338 13.6974L20.6253 12.1184L19.9129 11.4079L18.3298 12.1974L18.1319 12.0789C17.6966 11.8421 17.2612 11.6447 16.7863 11.5263L16.5884 11.4868L16.0343 9.78947H15.0053L14.4512 11.4868L14.2533 11.5263C13.7784 11.6447 13.343 11.8421 12.9077 12.0789L12.7098 12.1974L11.1266 11.4079L10.4142 12.1184L11.2058 13.6974L11.0871 13.8947C10.8496 14.2895 10.6517 14.7632 10.533 15.2368L10.4934 15.4342L8.79156 15.9868V17.0132L10.4934 17.5658L10.533 17.7632C10.6517 18.2368 10.8496 18.6711 11.0871 19.1053L11.2058 19.3026L10.4142 20.8816L11.1266 21.5921L12.7098 20.8026L12.9077 20.9211C13.343 21.1579 13.7784 21.3553 14.2533 21.4737L14.4512 21.5132L15.0053 23.2105Z" fill="black"/>
</svg>
