<svg width="63" height="74" viewBox="0 0 63 74" fill="none" xmlns="http://www.w3.org/2000/svg">
<path d="M60.9839 57.1333L42.0017 30.8554V5.28571H47.2519V0H15.7507V5.28571H21.0009V30.8554L2.01878 57.1333C0.873797 58.7175 0.186487 60.5898 0.0329028 62.5429C-0.120681 64.4961 0.265447 66.4539 1.14856 68.1998C2.03168 69.9457 3.37735 71.4116 5.03668 72.4353C6.696 73.4589 8.60428 74.0005 10.5504 74H52.4496C54.3957 74.0005 56.304 73.4589 57.9633 72.4353C59.6227 71.4116 60.9683 69.9457 61.8514 68.1998C62.7346 66.4539 63.1207 64.4961 62.9671 62.5429C62.8135 60.5898 62.1262 58.7175 60.9812 57.1333M26.2511 32.5732V5.28571H36.7515V32.5732L43.7684 42.2857H19.2342L26.2511 32.5732ZM52.4523 68.7143H10.553C9.5759 68.7132 8.6181 68.4404 7.78531 67.9259C6.95251 67.4114 6.27711 66.6753 5.83363 65.7987C5.39016 64.9222 5.19587 63.9393 5.2722 62.9587C5.34853 61.978 5.69252 61.0376 6.2662 60.2413L15.4173 47.5714H47.5853L56.7391 60.2413C57.3127 61.0376 57.6567 61.978 57.7331 62.9587C57.8094 63.9393 57.6151 64.9222 57.1716 65.7987C56.7281 66.6753 56.0527 67.4114 55.2199 67.9259C54.3871 68.4404 53.4294 68.7132 52.4523 68.7143Z" fill="#0B60B0"/>
</svg>
