<svg width="50" height="49" viewBox="0 0 50 49" fill="none" xmlns="http://www.w3.org/2000/svg">
<path d="M0 0V46.2778C0 46.9998 0.286805 47.6922 0.79732 48.2027C1.30784 48.7132 2.00024 49 2.72222 49H49V43.5556H5.44444V0H0Z" fill="#0B60B0"/>
<path d="M33.0906 31.5329C33.585 32.0454 34.2554 32.3333 34.9545 32.3333C35.6535 32.3333 36.324 32.0454 36.8184 31.5329L50 17.8652L46.2722 14L34.9545 25.7351L28.9094 19.4671C28.415 18.9546 27.7446 18.6667 27.0455 18.6667C26.3465 18.6667 25.676 18.9546 25.1816 19.4671L12 33.1348L15.7278 37L27.0455 25.2649L33.0906 31.5329Z" fill="#0B60B0"/>
</svg>
