<svg width="33" height="33" viewBox="0 0 33 33" fill="none" xmlns="http://www.w3.org/2000/svg">
<path d="M14 20C12.9391 20 11.9217 19.5849 11.1716 18.8459C10.4214 18.107 10 17.1047 10 16.0597C10 13.4328 14 9 14 9C14 9 18 13.4328 18 16.0597C18 17.1047 17.5786 18.107 16.8284 18.8459C16.0783 19.5849 15.0609 20 14 20Z" fill="black"/>
<path d="M32.4023 29.8155L25.1675 22.5776C27.3367 19.7508 28.3494 16.2048 28.0003 12.6587C27.6511 9.11269 25.9662 5.83224 23.2873 3.48283C20.6084 1.13341 17.1361 -0.109035 13.5749 0.0075169C10.0136 0.124069 6.62999 1.5909 4.11044 4.11044C1.5909 6.62999 0.124069 10.0136 0.0075169 13.5749C-0.109035 17.1361 1.13341 20.6084 3.48283 23.2873C5.83224 25.9662 9.11269 27.6511 12.6587 28.0003C16.2048 28.3494 19.7508 27.3367 22.5776 25.1675L29.8185 32.4099C29.9886 32.5799 30.1904 32.7148 30.4126 32.8069C30.6348 32.8989 30.8729 32.9463 31.1134 32.9463C31.3539 32.9463 31.5921 32.8989 31.8142 32.8069C32.0364 32.7148 32.2383 32.5799 32.4084 32.4099C32.5784 32.2398 32.7133 32.0379 32.8053 31.8158C32.8974 31.5936 32.9447 31.3554 32.9447 31.115C32.9447 30.8745 32.8974 30.6363 32.8053 30.4141C32.7133 30.192 32.5784 29.9901 32.4084 29.82L32.4023 29.8155ZM3.68699 14.0464C3.68699 11.9975 4.29455 9.99459 5.43286 8.291C6.57116 6.58741 8.18907 5.25962 10.082 4.47555C11.9749 3.69147 14.0579 3.48632 16.0674 3.88604C18.0769 4.28576 19.9228 5.27239 21.3715 6.72118C22.8203 8.16996 23.807 10.0158 24.2067 12.0253C24.6064 14.0349 24.4013 16.1178 23.6172 18.0107C22.8331 19.9037 21.5053 21.5216 19.8017 22.6599C18.0981 23.7982 16.0953 24.4057 14.0464 24.4057C11.2998 24.4029 8.66644 23.3106 6.7243 21.3684C4.78215 19.4263 3.68981 16.793 3.68699 14.0464Z" fill="black"/>
</svg>
