<svg width="35" height="34" viewBox="0 0 35 34" fill="none" xmlns="http://www.w3.org/2000/svg">
<path d="M26.4328 13.2332C27.3998 12.2663 27.3998 10.712 27.3998 7.60005C27.3998 4.48813 27.3998 2.93381 26.4328 1.96691M26.4328 13.2332C25.4659 14.2001 23.9116 14.2001 20.7997 14.2001H14.1997C11.0877 14.2001 9.53342 14.2001 8.56652 13.2332M26.4328 1.96691C25.4659 1 23.9116 1 20.7997 1H14.1997C11.0877 1 9.53342 1 8.56652 1.96691M8.56652 1.96691C7.59961 2.93381 7.59961 4.48813 7.59961 7.60005C7.59961 10.712 7.59961 12.2663 8.56652 13.2332M19.1497 7.60005C19.1497 8.03766 18.9759 8.45735 18.6664 8.76678C18.357 9.07622 17.9373 9.25006 17.4997 9.25006C17.0621 9.25006 16.6424 9.07622 16.3329 8.76678C16.0235 8.45735 15.8497 8.03766 15.8497 7.60005C15.8497 7.16244 16.0235 6.74275 16.3329 6.43331C16.6424 6.12388 17.0621 5.95004 17.4997 5.95004C17.9373 5.95004 18.357 6.12388 18.6664 6.43331C18.9759 6.74275 19.1497 7.16244 19.1497 7.60005Z" stroke="#2F2F2F" stroke-width="2"/>
<path d="M27.4004 5.95004C26.0875 5.95004 24.8285 5.42852 23.9001 4.5002C22.9718 3.57189 22.4503 2.31283 22.4503 1M27.4004 9.25006C26.0875 9.25006 24.8285 9.77158 23.9001 10.6999C22.9718 11.6282 22.4503 12.8873 22.4503 14.2001M7.60021 5.95004C8.91304 5.95004 10.1721 5.42852 11.1004 4.5002C12.0287 3.57189 12.5502 2.31283 12.5502 1M7.60021 9.25006C8.91304 9.25006 10.1721 9.77158 11.1004 10.6999C12.0287 11.6282 12.5502 12.8873 12.5502 14.2001M5.9502 29.6904H9.67922C11.3457 29.6904 13.0337 29.8653 14.6557 30.1986C17.5516 30.7917 20.5308 30.8577 23.4502 30.3933C24.8824 30.1623 26.2882 29.8076 27.5621 29.1938C28.7105 28.6377 30.1179 27.8572 31.0634 26.9811C32.0072 26.1066 32.9906 24.676 33.6869 23.5573C34.2875 22.597 33.9971 21.4205 33.05 20.7061C32.5175 20.3197 31.8764 20.1116 31.2185 20.1116C30.5605 20.1116 29.9195 20.3197 29.387 20.7061L26.4054 22.9584C25.2504 23.8329 23.9881 24.6364 22.485 24.8757C22.3035 24.9043 22.1137 24.9301 21.9157 24.9532M21.9157 24.9532L21.7342 24.973M21.9157 24.9532C22.1798 24.8817 22.4219 24.7456 22.6203 24.5572C22.8693 24.3424 23.0727 24.0798 23.2184 23.7849C23.3641 23.49 23.4492 23.1689 23.4686 22.8406C23.488 22.5123 23.4413 22.1834 23.3313 21.8734C23.2213 21.5635 23.0502 21.2787 22.8282 21.0361C22.6132 20.7974 22.3627 20.5932 22.0857 20.4305C17.4706 17.6767 10.2881 19.7738 5.9502 22.8511M21.9157 24.9532C21.8561 24.9665 21.7953 24.9732 21.7342 24.973M21.7342 24.973C20.7391 25.0728 19.7366 25.075 18.7411 24.9796" stroke="#2F2F2F" stroke-width="2" stroke-linecap="round"/>
<path d="M5.95004 21.6254C5.95004 20.2585 4.84193 19.1504 3.47502 19.1504C2.1081 19.1504 1 20.2585 1 21.6254V29.8755C1 31.2424 2.1081 32.3505 3.47502 32.3505C4.84193 32.3505 5.95004 31.2424 5.95004 29.8755V21.6254Z" stroke="#2F2F2F" stroke-width="2"/>
</svg>
