<svg width="36" height="22" viewBox="0 0 36 22" fill="none" xmlns="http://www.w3.org/2000/svg">
<path d="M3 13.5412C3.41667 13.5412 3.70833 13.38 3.875 13.0575C4.04167 12.7351 4.04167 12.4127 3.875 12.0903C3.70833 11.7679 3.41667 11.6067 3 11.6067C2.58333 11.6067 2.29167 11.7679 2.125 12.0903C1.95833 12.4127 1.95833 12.7351 2.125 13.0575C2.29167 13.38 2.58333 13.5412 3 13.5412ZM26.0156 12.6646C25.9115 12.5336 25.7109 12.2817 25.4141 11.909C25.1172 11.5362 24.901 11.2641 24.7656 11.0929C24.6302 10.9216 24.4323 10.6747 24.1719 10.3523C23.9115 10.0299 23.6901 9.76293 23.5078 9.55135C23.3255 9.33977 23.1146 9.103 22.875 8.84105C22.6354 8.57909 22.401 8.33225 22.1719 8.10051L20.2188 10.2163C19.3542 11.1634 18.2682 11.6269 16.9609 11.6067C15.6536 11.5866 14.5833 11.0929 13.75 10.1256C13.1562 9.43045 12.862 8.6345 12.8672 7.7378C12.8724 6.84111 13.1771 6.0502 13.7812 5.36508L16.5469 2.25182C16.3177 2.14099 16.0521 2.05787 15.75 2.00246C15.4479 1.94705 15.2005 1.91682 15.0078 1.91178C14.8151 1.90674 14.5208 1.90926 14.125 1.91934C13.7292 1.92941 13.474 1.93445 13.3594 1.93445C12.401 1.93445 11.5781 2.26694 10.8906 2.9319L8.42188 5.31974H6V13.5412C6.05208 13.5412 6.16146 13.5386 6.32812 13.5336C6.49479 13.5286 6.60938 13.5286 6.67188 13.5336C6.73438 13.5386 6.83594 13.5487 6.97656 13.5638C7.11719 13.5789 7.22396 13.6016 7.29688 13.6318C7.36979 13.6621 7.46094 13.7049 7.57031 13.7603C7.67969 13.8157 7.77604 13.8837 7.85938 13.9643L12.5 18.3773C13.6979 19.4956 14.8802 20.0548 16.0469 20.0548C16.8594 20.0548 17.5104 19.8181 18 19.3445C18.5938 19.546 19.1797 19.5057 19.7578 19.2236C20.3359 18.9415 20.7135 18.5133 20.8906 17.939C21.6615 17.9995 22.3229 17.7778 22.875 17.274C23.0833 17.0927 23.2708 16.8635 23.4375 16.5864C23.6042 16.3093 23.6771 16.0549 23.6562 15.8232C23.7604 15.924 23.9844 15.9743 24.3281 15.9743C24.776 15.9743 25.1771 15.8685 25.5312 15.657C25.8854 15.4454 26.1432 15.1784 26.3047 14.856C26.4661 14.5336 26.5286 14.1734 26.4922 13.7754C26.4557 13.3774 26.2969 13.0072 26.0156 12.6646ZM28.5 13.5412H30V5.80335H28.5469L26.0938 3.08303C25.4062 2.31731 24.526 1.93445 23.4531 1.93445H20.8438C19.9167 1.93445 19.1562 2.27197 18.5625 2.94702L15.2969 6.61945C15.0052 6.95193 14.8594 7.32976 14.8594 7.75292C14.8594 8.17608 15 8.5539 15.2812 8.88638C15.7292 9.40022 16.3021 9.66218 17 9.67226C17.6979 9.68233 18.276 9.43549 18.7344 8.93172L21.75 5.63711C22.0104 5.40538 22.2891 5.29707 22.5859 5.31218C22.8828 5.3273 23.1276 5.46331 23.3203 5.72023C23.513 5.97715 23.5573 6.26178 23.4531 6.57411C23.6198 6.76554 23.9115 7.08291 24.3281 7.52622C24.7448 7.96954 25.0573 8.31209 25.2656 8.5539C25.5677 8.91661 25.9974 9.44808 26.5547 10.1483C27.112 10.8485 27.4479 11.2742 27.5625 11.4254C28.1042 12.0903 28.4167 12.7956 28.5 13.5412ZM33 13.5412C33.4167 13.5412 33.7083 13.38 33.875 13.0575C34.0417 12.7351 34.0417 12.4127 33.875 12.0903C33.7083 11.7679 33.4167 11.6067 33 11.6067C32.5833 11.6067 32.2917 11.7679 32.125 12.0903C31.9583 12.4127 31.9583 12.7351 32.125 13.0575C32.2917 13.38 32.5833 13.5412 33 13.5412ZM36 4.83613V14.5084C36 14.7703 35.901 14.997 35.7031 15.1885C35.5052 15.3799 35.2708 15.4756 35 15.4756H28.2188C27.9375 16.1305 27.5104 16.667 26.9375 17.0851C26.3646 17.5033 25.7135 17.7627 24.9844 17.8634C24.6406 18.3471 24.2214 18.7576 23.7266 19.0951C23.2318 19.4327 22.6979 19.6619 22.125 19.7828C21.6875 20.3168 21.1432 20.7273 20.4922 21.0145C19.8411 21.3016 19.1719 21.4251 18.4844 21.3848C17.8594 21.7273 17.2031 21.9263 16.5156 21.9817C15.8281 22.0371 15.1641 21.9666 14.5234 21.7701C13.8828 21.5737 13.2734 21.3042 12.6953 20.9616C12.1172 20.619 11.5781 20.211 11.0781 19.7374L6.59375 15.4756H1C0.729167 15.4756 0.494792 15.3799 0.296875 15.1885C0.0989583 14.997 0 14.7703 0 14.5084V4.35252C0 4.09056 0.0989583 3.86386 0.296875 3.67243C0.494792 3.481 0.729167 3.38529 1 3.38529H7.57812C7.72396 3.24424 7.96875 3.00243 8.3125 2.65987C8.65625 2.31731 8.90365 2.07551 9.05469 1.93445C9.20573 1.7934 9.4349 1.59189 9.74219 1.32994C10.0495 1.06798 10.3125 0.879067 10.5312 0.763201C10.75 0.647336 11.0156 0.518876 11.3281 0.377823C11.6406 0.236769 11.9635 0.138535 12.2969 0.0831209C12.6302 0.027707 12.9844 0 13.3594 0H15.1875C16.2188 0 17.1615 0.282108 18.0156 0.846322C18.8698 0.282108 19.8125 0 20.8438 0H23.4531C23.8177 0 24.1667 0.0302258 24.5 0.0906774C24.8333 0.151129 25.1276 0.224175 25.3828 0.309814C25.638 0.395454 25.9062 0.528952 26.1875 0.710306C26.4688 0.891661 26.7005 1.04783 26.8828 1.17881C27.0651 1.30978 27.2891 1.50877 27.5547 1.77577C27.8203 2.04276 28.0234 2.25434 28.1641 2.41051C28.3047 2.56667 28.5182 2.80848 28.8047 3.13593C29.0911 3.46337 29.3073 3.7077 29.4531 3.8689H35C35.2708 3.8689 35.5052 3.96462 35.7031 4.15605C35.901 4.34748 36 4.57417 36 4.83613Z" fill="#2F2F2F"/>
</svg>
