<svg width="33" height="33" viewBox="0 0 33 33" fill="none" xmlns="http://www.w3.org/2000/svg">
<path d="M17.4312 0.344985C17.548 0.231378 17.6864 0.142355 17.8383 0.083183C17.9901 0.0240106 18.1523 -0.00411003 18.3152 0.000484524C22.0394 0.113045 25.5802 1.64277 28.2148 4.27737C30.8494 6.91198 32.3791 10.4528 32.4917 14.177C32.4965 14.34 32.4685 14.5023 32.4094 14.6544C32.3503 14.8064 32.2613 14.945 32.1476 15.062C32.034 15.179 31.898 15.2719 31.7477 15.3354C31.5975 15.3989 31.436 15.4316 31.2729 15.4315H18.2794C17.9562 15.4315 17.6462 15.3031 17.4176 15.0745C17.1891 14.846 17.0607 14.536 17.0607 14.2127V1.21923C17.0608 1.05613 17.0936 0.894716 17.1573 0.744544C17.2209 0.594372 17.3141 0.458503 17.4312 0.344985ZM19.4982 2.53873V12.994H29.9534C29.5965 10.3467 28.3801 7.8898 26.4912 6.00092C24.6024 4.11205 22.1455 2.89568 19.4982 2.53873ZM14.6232 4.48711C14.6232 4.31788 14.5879 4.15051 14.5197 3.99565C14.4515 3.8408 14.3517 3.70185 14.2268 3.58765C14.1019 3.47346 13.9546 3.38653 13.7943 3.3324C13.634 3.27827 13.4641 3.25812 13.2956 3.27323C10.5292 3.52575 7.89195 4.56089 5.69242 6.25755C3.49289 7.9542 1.82205 10.2422 0.875412 12.8538C-0.0712305 15.4654 -0.254522 18.2925 0.346983 21.0045C0.948489 23.7165 2.30991 26.201 4.27195 28.1675C6.23399 30.1339 8.7155 31.5009 11.4261 32.1085C14.1367 32.7161 16.9643 32.5392 19.578 31.5984C22.1917 30.6577 24.4834 28.992 26.185 26.7963C27.8866 24.6006 28.9277 21.9657 29.1864 19.1999C29.202 19.031 29.1822 18.8608 29.1283 18.7001C29.0744 18.5394 28.9875 18.3917 28.8733 18.2664C28.7591 18.1412 28.6199 18.0411 28.4648 17.9727C28.3098 17.9043 28.1421 17.8689 27.9726 17.869H18.2794C17.3097 17.869 16.3797 17.4838 15.6941 16.7981C15.0084 16.1124 14.6232 15.1824 14.6232 14.2127V4.48711ZM2.43568 17.8365C2.4351 15.0269 3.40528 12.3034 5.18199 10.1269C6.95871 7.95043 9.43285 6.45465 12.1857 5.89273V14.2111C12.1857 15.8273 12.8277 17.3772 13.9705 18.52C15.1133 19.6628 16.6633 20.3049 18.2794 20.3049H26.5604C25.9517 23.2622 24.2669 25.8884 21.8324 27.6744C19.398 29.4604 16.3872 30.2792 13.3835 29.9721C10.3798 29.665 7.597 28.2538 5.57437 26.012C3.55175 23.7702 2.43328 20.8575 2.43568 17.8381" fill="black"/>
</svg>
