<svg width="33" height="33" viewBox="0 0 33 33" fill="none" xmlns="http://www.w3.org/2000/svg">
<path d="M12.375 5.5V30.25H20.625V5.5C20.625 4.77065 20.3353 4.07118 19.8195 3.55546C19.3038 3.03973 18.6043 2.75 17.875 2.75H15.125C14.3957 2.75 13.6962 3.03973 13.1805 3.55546C12.6647 4.07118 12.375 4.77065 12.375 5.5ZM9.625 13.75V5.5C9.625 4.04131 10.2045 2.64236 11.2359 1.61091C12.2674 0.579462 13.6663 0 15.125 0H17.875C19.3337 0 20.7326 0.579462 21.7641 1.61091C22.7955 2.64236 23.375 4.04131 23.375 5.5V8.25H27.5C28.9587 8.25 30.3576 8.82946 31.3891 9.86091C32.4205 10.8924 33 12.2913 33 13.75V31.625C33 31.9897 32.8551 32.3394 32.5973 32.5973C32.3394 32.8551 31.9897 33 31.625 33H1.375C1.01033 33 0.660591 32.8551 0.402728 32.5973C0.144866 32.3394 0 31.9897 0 31.625V19.25C0 17.7913 0.579462 16.3924 1.61091 15.3609C2.64236 14.3295 4.04131 13.75 5.5 13.75H9.625ZM9.625 30.25V16.5H5.5C4.77065 16.5 4.07118 16.7897 3.55546 17.3055C3.03973 17.8212 2.75 18.5207 2.75 19.25V30.25H9.625ZM23.375 30.25H30.25V13.75C30.25 13.0207 29.9603 12.3212 29.4445 11.8055C28.9288 11.2897 28.2293 11 27.5 11H23.375V30.25Z" fill="#2F2F2F"/>
</svg>
