<svg width="27" height="27" viewBox="0 0 27 27" fill="none" xmlns="http://www.w3.org/2000/svg">
<path d="M18.8165 1.43419e-06C17.7383 -0.000232368 16.6741 0.246671 15.7041 0.72212C14.734 1.19757 13.8834 1.88917 13.2162 2.74485C12.549 3.60054 12.0827 4.598 11.8523 5.66213C11.622 6.72626 11.6335 7.82933 11.8862 8.88828L1.11639 19.7692C0.765185 20.1169 0.485697 20.5315 0.294083 20.9891C0.102469 21.4466 0.00253098 21.938 4.74548e-05 22.4348C-0.00243607 22.9316 0.0925843 23.4239 0.279614 23.8834C0.466644 24.3429 0.741972 24.7603 1.08968 25.1116C1.43739 25.4629 1.85057 25.7411 2.30535 25.93C2.76012 26.119 3.24746 26.215 3.73919 26.2125C4.23091 26.21 4.71727 26.109 5.17013 25.9154C5.62299 25.7218 6.03338 25.4394 6.37755 25.0846L11.71 19.6998C11.8044 18.3295 12.2257 17.0026 12.938 15.8326C13.6502 14.6625 14.6322 13.6841 15.8001 12.9808C16.968 12.2775 18.287 11.8703 19.6445 11.7939C21.002 11.7175 22.3576 11.9743 23.5956 12.5423C24.3348 11.8673 24.9257 11.0431 25.3302 10.123C25.7346 9.20295 25.9436 8.20743 25.9437 7.2007C25.9446 6.42425 25.8212 5.65276 25.5782 4.91611C25.5257 4.75741 25.4339 4.6149 25.3115 4.50213C25.1891 4.38936 25.0402 4.31005 24.879 4.27175C24.7177 4.23345 24.5495 4.23742 24.3902 4.28329C24.2309 4.32916 24.0858 4.4154 23.9688 4.53382L20.8017 7.73355C20.6195 7.91743 20.3725 8.02071 20.1149 8.02071C19.8574 8.02071 19.6103 7.91743 19.4281 7.73355L18.289 6.58406C18.107 6.39995 18.0048 6.15038 18.0048 5.89017C18.0048 5.62996 18.107 5.3804 18.289 5.19629L21.4574 1.99525C21.5743 1.87689 21.6593 1.73035 21.7045 1.56949C21.7496 1.40863 21.7533 1.2388 21.7153 1.07608C21.6773 0.913361 21.5987 0.763146 21.4872 0.639671C21.3756 0.516195 21.2347 0.423548 21.0777 0.37051C20.3487 0.12463 19.5851 -0.000488657 18.8165 1.43419e-06ZM15.9358 15.6792C16.0325 16.0177 16.0606 16.3724 16.0184 16.7221C15.9762 17.0718 15.8646 17.4093 15.6902 17.7145C15.5159 18.0196 15.2824 18.286 15.0037 18.4978C14.725 18.7096 14.4069 18.8623 14.0684 18.947L13.3117 19.1355C13.1896 19.9199 13.1922 20.719 13.3194 21.5026L14.0192 21.6728C14.3608 21.7559 14.682 21.9083 14.9635 22.1208C15.2449 22.3332 15.4807 22.6013 15.6564 22.9086C15.8322 23.216 15.9442 23.5562 15.9858 23.9087C16.0274 24.2611 15.9976 24.6185 15.8982 24.9589L15.6559 25.785C16.226 26.2904 16.874 26.7002 17.5802 26.9921L18.2191 26.3127C18.4612 26.0554 18.7525 25.8505 19.0754 25.7105C19.3983 25.5705 19.746 25.4984 20.0974 25.4984C20.4488 25.4984 20.7965 25.5705 21.1194 25.7105C21.4423 25.8505 21.7336 26.0554 21.9757 26.3127L22.6224 27C23.3234 26.7112 23.9723 26.3073 24.5428 25.8047L24.2863 24.9066C24.1896 24.568 24.1615 24.2132 24.2038 23.8634C24.2461 23.5136 24.3578 23.176 24.5323 22.8709C24.7068 22.5658 24.9404 22.2994 25.2192 22.0877C25.498 21.8759 25.8163 21.7233 26.1549 21.6388L26.9104 21.4502C27.0324 20.6658 27.0298 19.8667 26.9026 19.0832L26.2028 18.913C25.8614 18.8297 25.5403 18.6772 25.2589 18.4647C24.9776 18.2521 24.742 17.9841 24.5664 17.6767C24.3908 17.3694 24.2789 17.0292 24.2374 16.6768C24.1959 16.3244 24.2258 15.9672 24.3251 15.6268L24.5662 14.802C23.9957 14.2949 23.3458 13.887 22.6431 13.5949L22.0043 14.2731C21.7621 14.5306 21.4707 14.7356 21.1477 14.8757C20.8247 15.0158 20.4768 15.0881 20.1253 15.0881C19.7737 15.0881 19.4259 15.0158 19.1029 14.8757C18.7798 14.7356 18.4884 14.5306 18.2463 14.2731L17.6009 13.5858C16.896 13.8738 16.2481 14.2796 15.6792 14.7798L15.9358 15.6792ZM20.1123 22.2567C19.0756 22.2567 18.2333 21.3769 18.2333 20.2929C18.2333 19.2088 19.0756 18.3291 20.1123 18.3291C21.149 18.3291 21.9913 19.2088 21.9913 20.2929C21.9913 21.3769 21.149 22.2567 20.1123 22.2567Z" fill="black"/>
</svg>
