<svg width="34" height="33" viewBox="0 0 34 33" fill="none" xmlns="http://www.w3.org/2000/svg">
<path d="M24.2478 28.2866C25.5496 28.2866 26.6049 27.2312 26.6049 25.9294C26.6049 24.6276 25.5496 23.5723 24.2478 23.5723C22.946 23.5723 21.8906 24.6276 21.8906 25.9294C21.8906 27.2312 22.946 28.2866 24.2478 28.2866Z" fill="black"/>
<path d="M33.413 25.3128C32.6847 23.4576 31.4281 21.8569 29.7989 20.709C28.1696 19.5612 26.2393 18.9167 24.2472 18.8554C22.2551 18.9167 20.3248 19.5612 18.6956 20.709C17.0663 21.8569 15.8097 23.4576 15.0815 25.3128L14.8186 25.9269L15.0815 26.5421C15.8099 28.3971 17.0666 29.9975 18.6958 31.1452C20.3251 32.2928 22.2553 32.9371 24.2472 32.9983C26.2391 32.9371 28.1693 32.2928 29.7986 31.1452C31.4279 29.9975 32.6846 28.3971 33.413 26.5421L33.6758 25.9269L33.413 25.3128ZM24.2472 30.6411C23.3148 30.6411 22.4034 30.3646 21.6281 29.8466C20.8528 29.3286 20.2486 28.5924 19.8918 27.7309C19.535 26.8695 19.4416 25.9216 19.6235 25.0071C19.8054 24.0927 20.2544 23.2527 20.9137 22.5934C21.573 21.934 22.413 21.4851 23.3275 21.3032C24.242 21.1212 25.1899 21.2146 26.0513 21.5714C26.9127 21.9282 27.649 22.5325 28.167 23.3077C28.685 24.083 28.9615 24.9945 28.9615 25.9269C28.9599 27.1767 28.4628 28.3749 27.579 29.2586C26.6952 30.1424 25.497 30.6396 24.2472 30.6411ZM11.7532 22.1554C10.7891 21.4321 10.0259 20.4743 9.5361 19.373C9.04627 18.2718 8.84605 17.0636 8.95444 15.8632C9.06283 14.6628 9.47623 13.5101 10.1554 12.5144C10.8346 11.5187 11.757 10.7131 12.835 10.1742C13.9131 9.63519 15.111 9.38071 16.3151 9.43488C17.5191 9.48906 18.6893 9.85009 19.7146 10.4837C20.7399 11.1173 21.5863 12.0025 22.1733 13.0551C22.7603 14.1078 23.0685 15.293 23.0686 16.4983H20.7115C20.7115 15.6947 20.5061 14.9045 20.1148 14.2026C19.7235 13.5007 19.1592 12.9105 18.4757 12.4881C17.7921 12.0656 17.0119 11.8249 16.2091 11.7888C15.4063 11.7526 14.6077 11.9223 13.8889 12.2817C13.1702 12.6411 12.5552 13.1782 12.1025 13.8421C11.6497 14.506 11.3741 15.2746 11.302 16.0749C11.2298 16.8752 11.3634 17.6807 11.6901 18.4149C12.0168 19.1491 12.5258 19.7876 13.1686 20.2697L11.7532 22.1554Z" fill="black"/>
<path d="M31.677 10.659L28.8955 5.841C28.6231 5.36872 28.1954 5.00548 27.6852 4.81315C27.1751 4.62082 26.614 4.61129 26.0976 4.78618L23.229 5.75732C22.7347 5.42435 22.218 5.12585 21.6827 4.86396L21.0887 1.89396C20.9816 1.35983 20.6929 0.879262 20.2715 0.533975C19.8502 0.188689 19.3223 2.08345e-06 18.7775 0H13.2147C12.6697 5.66154e-05 12.1417 0.188911 11.7203 0.534431C11.2989 0.879951 11.0103 1.36079 10.9035 1.89514L10.3095 4.86396C9.76824 5.12323 9.24566 5.41977 8.74551 5.75143L5.89336 4.78618C5.37727 4.6119 4.81675 4.62175 4.30709 4.81405C3.79744 5.00635 3.37012 5.36923 3.09779 5.841L0.316364 10.659C0.0438918 11.1308 -0.0567474 11.6824 0.0315631 12.22C0.119874 12.7576 0.391681 13.248 0.800757 13.6078L3.07658 15.6078C3.05654 15.9048 3.03179 16.1995 3.03179 16.5C3.03179 16.8041 3.04279 17.105 3.06479 17.4028L0.801936 19.3922C0.392478 19.7517 0.120218 20.242 0.0314757 20.7796C-0.057267 21.3172 0.0429882 21.869 0.315186 22.341L3.09661 27.159C3.36903 27.6313 3.79675 27.9945 4.30691 28.1868C4.81708 28.3792 5.37814 28.3887 5.89454 28.2138L8.76319 27.2427C9.25743 27.5761 9.77409 27.8749 10.3095 28.1372L10.9023 31.1049C11.0091 31.6394 11.298 32.1204 11.7196 32.4659C12.1412 32.8115 12.6695 33.0002 13.2147 33H14.8175V30.6429H13.2147L12.3779 26.4589C11.2204 26.0288 10.1458 25.402 9.20161 24.6062L5.13908 25.9804L2.35765 21.1624L5.56926 18.3398C5.34889 17.121 5.34609 15.8729 5.56101 14.6532L2.35765 11.8364L5.13908 7.01957L9.17804 8.38671C10.1285 7.58908 11.2115 6.9644 12.3779 6.54107L13.2147 2.35714H18.7775L19.6143 6.54107C20.7718 6.97119 21.8463 7.59797 22.7905 8.39379L26.8531 7.01957L29.6345 11.8376L26.3369 14.7274L27.8902 16.5L31.1902 13.6078C31.5997 13.2483 31.8719 12.758 31.9607 12.2204C32.0494 11.6828 31.9492 11.131 31.677 10.659Z" fill="black"/>
</svg>
