<svg width="34" height="34" viewBox="0 0 34 34" fill="none" xmlns="http://www.w3.org/2000/svg">
<path d="M33.4402 30.7691L25.9736 23.2997C28.2123 20.3825 29.2575 16.723 28.8972 13.0636C28.5368 9.40415 26.7979 6.01878 24.0332 3.59422C21.2685 1.16967 17.685 -0.112523 14.0097 0.00775732C10.3343 0.128037 6.84236 1.64178 4.24211 4.24191C1.64185 6.84204 0.128043 10.3339 0.00775768 14.009C-0.112528 17.6842 1.16972 21.2675 3.59439 24.0321C6.01906 26.7967 9.40459 28.5355 13.0642 28.8958C16.7238 29.2562 20.3835 28.211 23.3008 25.9724L30.7736 33.4465C30.9491 33.622 31.1575 33.7612 31.3868 33.8561C31.6161 33.9511 31.8619 34 32.11 34C32.3582 34 32.604 33.9511 32.8333 33.8561C33.0626 33.7612 33.2709 33.622 33.4464 33.4465C33.6219 33.271 33.7612 33.0626 33.8561 32.8334C33.9511 32.6041 34 32.3583 34 32.1101C34 31.8619 33.9511 31.6162 33.8561 31.3869C33.7612 31.1576 33.6219 30.9493 33.4464 30.7738L33.4402 30.7691ZM3.80509 14.4956C3.80509 12.3812 4.43211 10.3143 5.60688 8.55618C6.78164 6.7981 8.45138 5.42785 10.4049 4.61869C12.3585 3.80954 14.5082 3.59783 16.582 4.01033C18.6559 4.42283 20.5609 5.44102 22.0561 6.93615C23.5513 8.43127 24.5695 10.3362 24.9821 12.41C25.3946 14.4838 25.1829 16.6333 24.3737 18.5868C23.5645 20.5402 22.1942 22.2099 20.436 23.3846C18.6778 24.5593 16.6108 25.1863 14.4963 25.1863C11.6617 25.1834 8.94404 24.0561 6.93968 22.0519C4.93533 20.0476 3.808 17.3301 3.80509 14.4956Z" fill="#2F2F2F"/>
<path d="M14.05 8V16M14.1 20V20.1H14V20H14.1Z" stroke="#2F2F2F" stroke-width="2" stroke-linecap="round" stroke-linejoin="round"/>
</svg>
