<svg width="42" height="42" viewBox="0 0 42 42" fill="none" xmlns="http://www.w3.org/2000/svg">
<path d="M13.974 19.979L20.9722 11.334C21.52 10.6568 22.5455 11.0785 22.5455 11.9798V18.6718C22.5455 19.2108 22.948 19.6483 23.445 19.6483H26.847C27.6205 19.6483 28.0335 20.6388 27.5225 21.2705L20.5242 29.9155C19.9765 30.5928 18.951 30.171 18.951 29.2715V22.5795C18.951 22.0388 18.5485 21.6013 18.0515 21.6013H14.6495C13.8777 21.6013 13.4647 20.6108 13.9757 19.979" stroke="black" stroke-width="2" stroke-linecap="round" stroke-linejoin="round"/>
<path d="M36.5 20.072V14.99C36.5 12.12 36.5 10.685 35.793 9.74875C35.086 8.8125 33.4865 8.35925 30.2893 7.44925C28.3608 6.89538 26.4728 6.20951 24.6385 5.3965C22.5403 4.4655 21.492 4 20.75 4C20.008 4 18.9597 4.4655 16.8615 5.3965C15.3215 6.079 13.3965 6.828 11.2107 7.44925C8.0135 8.35925 6.41575 8.81425 5.707 9.74875C5 10.685 5 12.12 5 14.99V20.072C5 29.9158 13.8602 35.822 18.2895 38.16C19.3517 38.72 19.882 39 20.75 39C21.618 39 22.1483 38.72 23.2105 38.16C27.6398 35.822 36.5 29.9158 36.5 20.072Z" stroke="black" stroke-width="2" stroke-linecap="round"/>
</svg>
