<svg width="34" height="34" viewBox="0 0 34 34" fill="none" xmlns="http://www.w3.org/2000/svg">
<path d="M16.075 31.855C15.6118 31.7062 15.1958 31.4387 14.8682 31.079C14.5407 30.7193 14.3132 30.28 14.2083 29.805C14.1018 29.3653 13.893 28.957 13.5988 28.6133C13.3047 28.2696 12.9335 28.0002 12.5156 27.8271C12.0976 27.6539 11.6447 27.5819 11.1937 27.6169C10.7427 27.6519 10.3063 27.7928 9.92 28.0283C7.34833 29.595 4.40333 26.6517 5.97 24.0783C6.20517 23.6922 6.34592 23.2561 6.38081 22.8054C6.41569 22.3547 6.34374 21.9021 6.17079 21.4844C5.99783 21.0667 5.72877 20.6957 5.38545 20.4016C5.04214 20.1075 4.63427 19.8985 4.195 19.7917C1.26833 19.0817 1.26833 14.9183 4.195 14.2083C4.63467 14.1018 5.04296 13.893 5.38667 13.5988C5.73037 13.3047 5.99976 12.9335 6.17291 12.5156C6.34606 12.0976 6.41808 11.6447 6.38311 11.1937C6.34814 10.7427 6.20717 10.3063 5.97167 9.92C4.405 7.34833 7.34833 4.40333 9.92167 5.97C11.5883 6.98333 13.7483 6.08667 14.2083 4.195C14.9183 1.26833 19.0817 1.26833 19.7917 4.195C19.8982 4.63467 20.107 5.04296 20.4012 5.38667C20.6953 5.73037 21.0665 5.99976 21.4844 6.17291C21.9024 6.34606 22.3553 6.41808 22.8063 6.38311C23.2573 6.34814 23.6937 6.20717 24.08 5.97167C26.6517 4.405 29.5967 7.34833 28.03 9.92167C27.7948 10.3078 27.6541 10.7439 27.6192 11.1946C27.5843 11.6453 27.6563 12.0979 27.8292 12.5156C28.0022 12.9333 28.2712 13.3043 28.6145 13.5984C28.9579 13.8925 29.3657 14.1015 29.805 14.2083C31.9883 14.7383 32.5433 17.1917 31.4667 18.6983M22 28.6667L25.3333 32L32 25.3333" stroke="black" stroke-width="3" stroke-linecap="round" stroke-linejoin="round"/>
<path d="M12 17C12 18.3261 12.5268 19.5979 13.4645 20.5355C14.4021 21.4732 15.6739 22 17 22C18.3261 22 19.5979 21.4732 20.5355 20.5355C21.4732 19.5979 22 18.3261 22 17C22 15.6739 21.4732 14.4021 20.5355 13.4645C19.5979 12.5268 18.3261 12 17 12C15.6739 12 14.4021 12.5268 13.4645 13.4645C12.5268 14.4021 12 15.6739 12 17Z" stroke="black" stroke-width="3" stroke-linecap="round" stroke-linejoin="round"/>
</svg>
