<svg width="34" height="34" viewBox="0 0 34 34" fill="none" xmlns="http://www.w3.org/2000/svg">
<path d="M30.8287 2.52288C31.3172 1.89683 30.8568 1.00003 30.0449 1.00003H23.7486C23.5781 0.998765 23.4101 1.04197 23.2609 1.12549C23.1116 1.20901 22.9861 1.33004 22.8964 1.47693L18.1319 9.51014C17.756 10.1428 18.2285 10.9323 18.9832 10.9323H22.1979L19.1697 18.5941C18.7319 19.5631 19.9151 20.4494 20.7101 19.7483L33 7.96449H26.5789L30.8287 2.52288Z" stroke="black" stroke-width="2" stroke-linecap="round" stroke-linejoin="round"/>
<path d="M7.81393 19.8571L16.0639 26.9286H33V24.5714H16.9361L8.68607 17.5H2.35714V1H0V31.6429C0.000935196 32.2677 0.249577 32.8667 0.691424 33.3086C1.13327 33.7504 1.73228 33.9991 2.35714 34H33V31.6429H2.35714V19.8571H7.81393Z" fill="black"/>
</svg>
