<svg width="75" height="72" viewBox="0 0 75 72" fill="none" xmlns="http://www.w3.org/2000/svg">
<path d="M0 60V52.5H10.3125L8.8125 51.1875C5.5625 48.3125 3.28125 45.0312 1.96875 41.3438C0.65625 37.6562 0 33.9375 0 30.1875C0 23.25 2.0775 17.0775 6.2325 11.67C10.3875 6.2625 15.81 2.685 22.5 0.9375V8.8125C18 10.4375 14.375 13.2037 11.625 17.1112C8.875 21.0187 7.5 25.3775 7.5 30.1875C7.5 33 8.03125 35.735 9.09375 38.3925C10.1563 41.05 11.8125 43.5025 14.0625 45.75L15 46.6875V37.5H22.5V60H0ZM67.2188 26.25H59.625C59.3125 24.0625 58.6413 21.9688 57.6113 19.9688C56.5813 17.9688 55.19 16.0625 53.4375 14.25L52.5 13.3125V22.5H45V0H67.5V7.5H57.1875L58.6875 8.8125C61.25 11.4375 63.2188 14.2187 64.5938 17.1562C65.9688 20.0938 66.8438 23.125 67.2188 26.25ZM52.5 71.25L51.375 65.625C50.625 65.3125 49.9225 64.985 49.2675 64.6425C48.6125 64.3 47.94 63.8775 47.25 63.375L41.8125 65.0625L38.0625 58.6875L42.375 54.9375C42.25 54.0625 42.1875 53.25 42.1875 52.5C42.1875 51.75 42.25 50.9375 42.375 50.0625L38.0625 46.3125L41.8125 39.9375L47.25 41.625C47.9375 41.125 48.61 40.7037 49.2675 40.3612C49.925 40.0187 50.6275 39.69 51.375 39.375L52.5 33.75H60L61.125 39.375C61.875 39.6875 62.5788 40.0312 63.2363 40.4062C63.8938 40.7812 64.565 41.25 65.25 41.8125L70.6875 39.9375L74.4375 46.5L70.125 50.25C70.25 51 70.3125 51.7812 70.3125 52.5938C70.3125 53.4062 70.25 54.1875 70.125 54.9375L74.4375 58.6875L70.6875 65.0625L65.25 63.375C64.5625 63.875 63.8913 64.2975 63.2363 64.6425C62.5813 64.9875 61.8775 65.315 61.125 65.625L60 71.25H52.5ZM56.25 60C58.3125 60 60.0788 59.2663 61.5488 57.7988C63.0187 56.3312 63.7525 54.565 63.75 52.5C63.7475 50.435 63.0138 48.67 61.5488 47.205C60.0838 45.74 58.3175 45.005 56.25 45C54.1825 44.995 52.4175 45.73 50.955 47.205C49.4925 48.68 48.7575 50.445 48.75 52.5C48.7425 54.555 49.4775 56.3213 50.955 57.7988C52.4325 59.2762 54.1975 60.01 56.25 60Z" fill="#C7D200"/>
</svg>
