<svg width="52" height="57" viewBox="0 0 52 57" fill="none" xmlns="http://www.w3.org/2000/svg">
<path d="M8.62231 22.644V12.1672C8.62231 9.73591 9.58814 7.4042 11.3073 5.68501C13.0265 3.96583 15.3582 3 17.7895 3H24.2013C25.5087 2.9999 26.8009 3.27942 27.9913 3.81981M27.9913 3.81981C28.9926 4.27503 29.9063 4.90672 30.6839 5.68468L46.3153 21.3213C47.101 22.1071 47.7296 23.0133 48.1775 24.006M27.9913 3.81981L27.9939 18.7676C27.9939 20.1569 28.5458 21.4893 29.5282 22.4717C30.5106 23.4541 31.843 24.006 33.2323 24.006H48.1775M33.3947 51.4552H39.8327C42.264 51.4552 44.5957 50.4894 46.3149 48.7702C48.0341 47.051 48.9999 44.7193 48.9999 42.288V27.8038C48.9999 26.4811 48.7144 25.1873 48.1775 24.006" stroke="#C7D200" stroke-width="5" stroke-linecap="round" stroke-linejoin="round"/>
<path fill-rule="evenodd" clip-rule="evenodd" d="M14.4056 56.0378C18.2262 56.0378 21.8903 54.5201 24.5919 51.8185C27.2935 49.1169 28.8112 45.4528 28.8112 41.6322C28.8112 37.8116 27.2935 34.1474 24.5919 31.4459C21.8903 28.7443 18.2262 27.2266 14.4056 27.2266C10.585 27.2266 6.92088 28.7443 4.21931 31.4459C1.51773 34.1474 0 37.8116 0 41.6322C0 45.4528 1.51773 49.1169 4.21931 51.8185C6.92088 54.5201 10.585 56.0378 14.4056 56.0378ZM18.4601 33.4079C17.2443 32.8083 15.9105 32.4858 14.555 32.4637C13.1995 32.4416 11.8559 32.7204 10.6212 33.28C9.38637 33.8397 8.29108 34.6662 7.41419 35.7001C6.5373 36.7341 5.90065 37.9496 5.55009 39.2592C5.46013 39.5947 5.50714 39.9522 5.68078 40.2531C5.85442 40.5539 6.14046 40.7735 6.47598 40.8634C6.81149 40.9534 7.16901 40.9064 7.46986 40.7327C7.77072 40.5591 7.99028 40.2731 8.08024 39.9375C8.38029 38.8173 8.97247 37.7969 9.79624 36.9805C10.62 36.1642 11.6458 35.5813 12.7687 35.2915C13.8916 35.0016 15.0714 35.0152 16.1874 35.3308C17.3033 35.6465 18.3154 36.2528 19.1202 37.0879H17.6403C17.293 37.0879 16.9599 37.2258 16.7143 37.4714C16.4687 37.717 16.3307 38.0501 16.3307 38.3975C16.3307 38.7448 16.4687 39.0779 16.7143 39.3235C16.9599 39.5691 17.293 39.7071 17.6403 39.7071H22.2632C22.6105 39.7071 22.9436 39.5691 23.1892 39.3235C23.4348 39.0779 23.5728 38.7448 23.5728 38.3975V33.7746C23.5728 33.4272 23.4348 33.0941 23.1892 32.8485C22.9436 32.6029 22.6105 32.465 22.2632 32.465C21.9159 32.465 21.5828 32.6029 21.3372 32.8485C21.0916 33.0941 20.9536 33.4272 20.9536 33.7746V35.2151C20.2303 34.4764 19.3873 33.8654 18.4601 33.4079ZM23.2611 44.0052C23.3057 43.839 23.3171 43.6658 23.2946 43.4952C23.2722 43.3247 23.2164 43.1602 23.1304 43.0113C23.0445 42.8623 22.93 42.7317 22.7935 42.627C22.6571 42.5223 22.5014 42.4455 22.3352 42.4009C21.9997 42.311 21.6422 42.358 21.3414 42.5316C21.0405 42.7052 20.8209 42.9913 20.731 43.3268C20.4309 44.447 19.8387 45.4675 19.015 46.2838C18.1912 47.1001 17.1654 47.683 16.0425 47.9729C14.9196 48.2627 13.7398 48.2491 12.6239 47.9335C11.5079 47.6179 10.4958 47.0115 9.69105 46.1765H11.1709C11.5182 46.1765 11.8513 46.0385 12.0969 45.7929C12.3425 45.5473 12.4805 45.2142 12.4805 44.8669C12.4805 44.5196 12.3425 44.1865 12.0969 43.9409C11.8513 43.6953 11.5182 43.5573 11.1709 43.5573H6.548C6.20068 43.5573 5.86757 43.6953 5.62198 43.9409C5.37638 44.1865 5.2384 44.5196 5.2384 44.8669V49.4898C5.2384 49.8371 5.37638 50.1702 5.62198 50.4158C5.86757 50.6614 6.20068 50.7994 6.548 50.7994C6.89533 50.7994 7.22843 50.6614 7.47403 50.4158C7.71963 50.1702 7.8576 49.8371 7.8576 49.4898V48.0492C8.98946 49.2038 10.4066 50.0385 11.9651 50.4686C13.5237 50.8987 15.1683 50.909 16.7321 50.4984C18.2959 50.0877 19.7233 49.2708 20.8695 48.1304C22.0157 46.9901 22.8425 45.5669 23.2611 44.0052Z" fill="#C7D200"/>
</svg>
