<svg width="33" height="33" viewBox="0 0 33 33" fill="none" xmlns="http://www.w3.org/2000/svg">
<path d="M16.5 32C25.0604 32 32 25.0604 32 16.5C32 7.93959 25.0604 1 16.5 1C7.93959 1 1 7.93959 1 16.5C1 25.0604 7.93959 32 16.5 32Z" stroke="#2F2F2F" stroke-width="2"/>
<path d="M10.4992 15.8766L16.6976 7.52212C17.1828 6.86802 18.0911 7.27412 18.0911 8.14522V14.6118C18.0911 15.1326 18.4476 15.5558 18.8878 15.5558H21.901C22.5861 15.5558 22.9519 16.5137 22.4993 17.1228L16.3008 25.4773C15.8157 26.1314 14.9074 25.7253 14.9074 24.8542V18.3876C14.9074 17.8668 14.5509 17.4437 14.1107 17.4437H11.0975C10.4139 17.4437 10.0481 16.4858 10.5007 15.8766" stroke="#2F2F2F" stroke-width="2" stroke-linecap="round" stroke-linejoin="round"/>
</svg>
