<svg width="44" height="44" viewBox="0 0 44 44" fill="none" xmlns="http://www.w3.org/2000/svg">
<path d="M36.6654 12.8327C36.6654 15.2638 35.6996 17.5954 33.9805 19.3145C32.2614 21.0336 29.9298 21.9993 27.4987 21.9993C25.0675 21.9993 22.736 21.0336 21.0169 19.3145C19.2978 17.5954 18.332 15.2638 18.332 12.8327C18.332 10.4015 19.2978 8.06995 21.0169 6.35087C22.736 4.63179 25.0675 3.66602 27.4987 3.66602C29.9298 3.66602 32.2614 4.63179 33.9805 6.35087C35.6996 8.06995 36.6654 10.4015 36.6654 12.8327Z" stroke="#2F2F2F" stroke-width="2"/>
<path d="M28.1862 8.25L24.7487 12.8333H30.2487L26.8112 17.4167M7.33203 25.6667H11.7229C12.2619 25.6667 12.7935 25.7877 13.2757 26.0223L17.0194 27.8337C17.5015 28.0665 18.0332 28.1875 18.574 28.1875H20.4844C22.3324 28.1875 23.832 29.6377 23.832 31.427C23.832 31.5003 23.7825 31.5627 23.711 31.5828L19.0525 32.8717C18.2166 33.1026 17.3253 33.0218 16.5445 32.6443L12.5424 30.7083M23.832 30.25L32.2525 27.6632C32.9856 27.4382 33.771 27.4506 34.4966 27.6985C35.2222 27.9464 35.851 28.4172 36.2932 29.0437C36.9697 29.9787 36.6947 31.3207 35.7084 31.889L21.9309 39.8402C21.5001 40.0894 21.023 40.2484 20.5288 40.3073C20.0346 40.3662 19.5335 40.324 19.0562 40.183L7.33203 36.7033" stroke="#2F2F2F" stroke-width="2" stroke-linecap="round" stroke-linejoin="round"/>
</svg>
