<svg width="32" height="32" viewBox="0 0 32 32" fill="none" xmlns="http://www.w3.org/2000/svg">
<path d="M28.7242 15.7201C28.8957 12.9101 28.2083 10.1143 26.7533 7.70415C25.2983 5.29399 23.1446 3.38346 20.5781 2.22628C18.0116 1.0691 15.1538 0.720018 12.3843 1.2254C9.61471 1.73078 7.06441 3.06671 5.07204 5.05577C3.07968 7.04484 1.73952 9.59292 1.22955 12.3616C0.719575 15.1304 1.06391 17.9887 2.21684 20.5571C3.36976 23.1255 5.27672 25.2824 7.68446 26.7414C10.0922 28.2004 12.8868 28.8924 15.6972 28.7256M25.6671 30.292V21.042M25.6671 21.042L30.2921 25.667M25.6671 21.042L21.0421 25.667" stroke="black" stroke-width="2" stroke-linecap="round" stroke-linejoin="round"/>
<path d="M14.8755 7.16797V14.8763L18.7297 18.7305" stroke="black" stroke-width="2" stroke-linecap="round" stroke-linejoin="round"/>
</svg>
