<svg width="31" height="33" viewBox="0 0 31 33" fill="none" xmlns="http://www.w3.org/2000/svg">
<path d="M17.6539 28.6693C16.3489 30.0537 13.7114 29.6507 13.1803 27.4635C13.0827 27.0609 12.8915 26.687 12.6221 26.3722C12.3527 26.0575 12.0128 25.8107 11.6301 25.6522C11.2473 25.4936 10.8325 25.4276 10.4195 25.4597C10.0064 25.4917 9.60678 25.6208 9.25305 25.8365C6.89795 27.2712 4.20095 24.5757 5.63568 22.2191C5.85105 21.8655 5.97995 21.4661 6.0119 21.0533C6.04385 20.6406 5.97795 20.2261 5.81956 19.8436C5.66117 19.4611 5.41477 19.1213 5.10036 18.852C4.78596 18.5826 4.41244 18.3912 4.01016 18.2934C1.32995 17.6432 1.32995 13.8305 4.01016 13.1803C4.4128 13.0827 4.78672 12.8915 5.10147 12.6221C5.41623 12.3527 5.66294 12.0128 5.82151 11.6301C5.98008 11.2473 6.04604 10.8325 6.01401 10.4195C5.98199 10.0064 5.85288 9.60678 5.63721 9.25305C4.20247 6.89795 6.89795 4.20095 9.25458 5.63568C10.7809 6.56368 12.759 5.74253 13.1803 4.01016C13.8305 1.32995 17.6432 1.32995 18.2934 4.01016C18.391 4.4128 18.5822 4.78672 18.8516 5.10147C19.121 5.41623 19.4609 5.66294 19.8436 5.82151C20.2264 5.98008 20.6411 6.04604 21.0542 6.01401C21.4673 5.98199 21.8669 5.85288 22.2206 5.63721C24.5757 4.20247 27.2727 6.89795 25.838 9.25458C25.6226 9.60816 25.4937 10.0076 25.4618 10.4203C25.4298 10.8331 25.4957 11.2476 25.6541 11.6301C25.8125 12.0126 26.0589 12.3524 26.3733 12.6217C26.6877 12.8911 27.0612 13.0824 27.4635 13.1803C29.0967 13.5771 29.7347 15.1492 29.3775 16.4618M26.4211 21.8421L23.3684 26.4211H29.4737L26.4211 31" stroke="black" stroke-width="3" stroke-linecap="round" stroke-linejoin="round"/>
<path d="M11.1582 15.7372C11.1582 16.9516 11.6406 18.1162 12.4993 18.975C13.3581 19.8337 14.5227 20.3161 15.7372 20.3161C16.9516 20.3161 18.1162 19.8337 18.975 18.975C19.8337 18.1162 20.3161 16.9516 20.3161 15.7372C20.3161 14.5227 19.8337 13.3581 18.975 12.4993C18.1162 11.6406 16.9516 11.1582 15.7372 11.1582C14.5227 11.1582 13.3581 11.6406 12.4993 12.4993C11.6406 13.3581 11.1582 14.5227 11.1582 15.7372Z" stroke="black" stroke-width="3" stroke-linecap="round" stroke-linejoin="round"/>
</svg>
