<svg width="32" height="32" viewBox="0 0 32 32" fill="none" xmlns="http://www.w3.org/2000/svg">
<path d="M16.0002 4.66668C14.1265 4.66366 12.2817 5.1274 10.6322 6.01601C8.89462 6.95363 7.43038 8.32645 6.38283 10H11.3335V12.6667H2.00017V3.33335H4.66683V7.77868C5.90577 6.07366 7.512 4.66883 9.36683 3.66801C11.4052 2.57003 13.6849 1.99679 16.0002 2.00001C23.7322 2.00001 30.0002 8.26801 30.0002 16V17.3333H27.3335V16C27.3335 12.9942 26.1395 10.1115 24.014 7.98614C21.8886 5.86072 19.006 4.66668 16.0002 4.66668ZM17.3335 8.00001V15.448L19.5522 17.6667L17.6668 19.552L14.6668 16.552V8.00001H17.3335ZM4.5895 15.868L4.72817 17.1947C5.02324 19.9783 6.33806 22.5543 8.41929 24.4263C10.5005 26.2983 13.2009 27.3338 16.0002 27.3333H17.3335V30H16.0002C8.76417 30 2.8135 24.5133 2.07617 17.472L1.9375 16.1467L4.5895 15.868ZM26.0002 18.6733V20.1933C26.7108 20.4053 27.3508 20.78 27.8748 21.2773L29.1935 20.5173L30.5268 22.8253L29.2068 23.588C29.3764 24.2994 29.3764 25.0406 29.2068 25.752L30.5268 26.5133L29.1935 28.8227L27.8708 28.06C27.3403 28.5614 26.6996 28.9313 26.0002 29.14V30.6667H23.3335V29.14C22.6336 28.9315 21.9924 28.5615 21.4615 28.06L20.1388 28.8227L18.8055 26.5133L20.1255 25.7507C19.9562 25.0397 19.9562 24.299 20.1255 23.588L18.8055 22.8267L20.1388 20.5173L21.4588 21.2773C21.9901 20.774 22.6323 20.4027 23.3335 20.1933V18.6733H26.0002ZM24.6668 22.6667C24.1364 22.6667 23.6277 22.8774 23.2526 23.2525C22.8775 23.6275 22.6668 24.1362 22.6668 24.6667C22.6668 25.1971 22.8775 25.7058 23.2526 26.0809C23.6277 26.456 24.1364 26.6667 24.6668 26.6667C25.1973 26.6667 25.706 26.456 26.081 26.0809C26.4561 25.7058 26.6668 25.1971 26.6668 24.6667C26.6668 24.1362 26.4561 23.6275 26.081 23.2525C25.706 22.8774 25.1973 22.6667 24.6668 22.6667Z" fill="#2F2F2F"/>
</svg>
