<svg width="29" height="29" viewBox="0 0 29 29" fill="none" xmlns="http://www.w3.org/2000/svg">
<path d="M29 20.9444V29H20.9444V25.7778H25.7778V20.9444H29ZM3.22225 20.9444V25.7778H8.05558V29H0V20.9444H3.22225ZM14.5 4.35C20.3 4.35 25.1333 7.73333 29 14.5C25.1333 21.2667 20.3 24.65 14.5 24.65C8.7 24.65 3.86667 21.2667 0 14.5C3.86667 7.73333 8.7 4.35 14.5 4.35ZM14.5 7.25C10.3074 7.25 6.62529 9.48972 3.3927 14.3192L3.27262 14.5L3.3927 14.6808C6.5355 19.3761 10.1032 21.6236 14.1518 21.7448L14.5 21.75C18.6926 21.75 22.3747 19.5103 25.6073 14.6808L25.7259 14.5L25.6073 14.3192C22.4645 9.62392 18.8968 7.37642 14.8482 7.25521L14.5 7.25ZM14.5 9.425C17.3029 9.425 19.575 11.6971 19.575 14.5C19.575 17.3029 17.3029 19.575 14.5 19.575C11.6971 19.575 9.425 17.3029 9.425 14.5C9.425 11.6971 11.6971 9.425 14.5 9.425ZM14.5 12.325C13.2988 12.325 12.325 13.2988 12.325 14.5C12.325 15.7012 13.2988 16.675 14.5 16.675C15.7012 16.675 16.675 15.7012 16.675 14.5C16.675 13.2988 15.7012 12.325 14.5 12.325ZM29 0V8.05558H25.7778V3.22225H20.9444V0H29ZM8.05558 0V3.22225H3.22225V8.05558H0V0H8.05558Z" fill="black"/>
</svg>
