<svg width="50" height="61" viewBox="0 0 50 61" fill="none" xmlns="http://www.w3.org/2000/svg">
<path d="M3.86539 0H3.81538C3.58324 0.0048649 3.35389 0.0513653 3.13846 0.13725C2.82695 0.2595 2.55306 0.460301 2.34393 0.719763C2.1348 0.979225 1.99768 1.28834 1.94615 1.6165C1.88462 1.97488 0 13.7059 0 19.0625C0 22.6844 1.7 25.9136 4.34615 28.0028C5.30769 28.7691 5.76923 29.6003 5.76923 30.2941V32.2004C5.76923 32.269 5.76539 32.3376 5.75769 32.4062C5.65385 33.3975 5.17692 37.8543 4.72692 42.4369C4.28462 46.9547 3.84615 51.7776 3.84615 53.375C3.84615 55.3973 4.65659 57.3367 6.09918 58.7667C7.54177 60.1967 9.49833 61 11.5385 61C13.5786 61 15.5352 60.1967 16.9777 58.7667C18.4203 57.3367 19.2308 55.3973 19.2308 53.375C19.2308 51.7738 18.7923 46.9547 18.35 42.4369C18.0212 39.0932 17.6776 35.7509 17.3192 32.4101L17.3077 32.2004V30.2941C17.3077 29.5964 17.7692 28.7691 18.7308 28.0028C20.0861 26.9319 21.1806 25.572 21.933 24.0243C22.6854 22.4765 23.0764 20.7806 23.0769 19.0625C23.0769 13.6945 21.1808 1.91006 21.1308 1.61269C21.0742 1.25437 20.9157 0.919476 20.6739 0.647327C20.432 0.375179 20.1168 0.177068 19.7654 0.0762499C19.6041 0.0294499 19.4373 0.0038149 19.2692 0H19.1923H19.1962C18.6837 0.00402371 18.1936 0.208644 17.8327 0.569275C17.4717 0.929906 17.2692 1.41732 17.2692 1.92531V17.1753C17.2745 17.4231 17.2305 17.6696 17.1398 17.9006C17.049 18.1315 16.9132 18.3425 16.7402 18.5215C16.5671 18.7004 16.3602 18.8439 16.1313 18.9436C15.9023 19.0433 15.6558 19.0973 15.4058 19.1025C15.1558 19.1078 14.9071 19.0642 14.6741 18.9742C14.4411 18.8842 14.2283 18.7496 14.0477 18.5781C13.8672 18.4066 13.7225 18.2015 13.6219 17.9745C13.5213 17.7476 13.4668 17.5032 13.4615 17.2554V1.90625C13.4615 1.40068 13.2589 0.915819 12.8983 0.558328C12.5376 0.200837 12.0485 0 11.5385 0C11.0284 0 10.5393 0.200837 10.1786 0.558328C9.81799 0.915819 9.61538 1.40068 9.61538 1.90625V17.1562L9.61923 17.2782C9.60546 17.7788 9.39167 18.2534 9.02489 18.5976C8.65811 18.9419 8.16839 19.1276 7.66346 19.114C7.15853 19.1003 6.67975 18.8884 6.33245 18.5248C5.98514 18.1613 5.79777 17.6758 5.81154 17.1753V1.92913C5.81154 1.41815 5.60703 0.928045 5.24288 0.566373C4.87874 0.204702 4.38087 0.00100983 3.86539 0ZM28.8462 17.1562C28.8462 12.6061 30.6696 8.24237 33.9155 5.02495C37.1613 1.80753 41.5636 0 46.1538 0C46.6639 0 47.153 0.200837 47.5137 0.558328C47.8743 0.915819 48.0769 1.40068 48.0769 1.90625V28.5099L48.1538 29.3639C48.4536 32.7894 48.7459 36.2156 49.0308 39.6424C49.5077 45.3878 50 51.6937 50 53.375C50 55.3973 49.1896 57.3367 47.747 58.7667C46.3044 60.1967 44.3478 61 42.3077 61C40.2676 61 38.311 60.1967 36.8684 58.7667C35.4258 57.3367 34.6154 55.3973 34.6154 53.375C34.6154 51.6975 35.1077 45.3878 35.5846 39.6424C35.8231 36.7411 36.0654 33.9351 36.2462 31.8573L36.3615 30.5H34.6154C33.0853 30.5 31.6179 29.8975 30.5359 28.825C29.454 27.7525 28.8462 26.298 28.8462 24.7812V17.1562Z" fill="#0B60B0"/>
</svg>
