<svg width="33" height="25" viewBox="0 0 33 25" fill="none" xmlns="http://www.w3.org/2000/svg">
<path d="M13.3975 0.900391C13.552 0.900391 13.7037 0.943043 13.8369 1.02441C13.9369 1.08562 14.0244 1.16691 14.0938 1.2627L14.1562 1.36328L18.0469 8.51172L18.0693 8.55176L18.0527 8.59473C17.7687 9.34819 17.6065 10.1472 17.5732 10.958L17.5586 11.3193L17.3857 11.002L13.3975 3.6748L3.28613 22.2568H23.5088L21.1074 17.8428L20.9443 17.542L21.2441 17.707C21.8367 18.0337 22.4709 18.2652 23.126 18.3955L23.4082 18.4453L23.457 18.4531L23.4805 18.4971L25.7793 22.7197C25.8554 22.8595 25.8955 23.018 25.8955 23.1787C25.8955 23.3394 25.8555 23.4979 25.7793 23.6377C25.703 23.7775 25.5923 23.8941 25.459 23.9756C25.3257 24.0569 25.1742 24.0997 25.0195 24.0996H1.77539C1.62064 24.0996 1.46823 24.0571 1.33496 23.9756C1.20178 23.8941 1.09175 23.7765 1.01562 23.6367C0.939682 23.4971 0.900404 23.3391 0.900391 23.1787C0.900392 23.0181 0.939494 22.8595 1.01562 22.7197L12.6387 1.36328L12.7021 1.2627C12.7714 1.16704 12.8581 1.08556 12.958 1.02441C13.0912 0.942972 13.2428 0.900424 13.3975 0.900391Z" fill="#2F2F2F" stroke="#2F2F2F" stroke-width="0.2"/>
<path d="M22.7822 5.74902C23.8571 5.39961 25.0076 5.40915 26.0771 5.77637C27.1467 6.14359 28.0827 6.85054 28.7588 7.7998C29.4347 8.74897 29.8185 9.89488 29.8584 11.082C29.8975 12.2432 29.6044 13.389 29.0205 14.3721L32.0723 17.6064L32.1377 17.6758L32.0723 17.7441L30.9043 18.9824L30.8311 19.0596L30.7588 18.9824L27.7832 15.8301C26.8804 16.5884 25.7751 17.0246 24.625 17.0752L24.3887 17.0811C23.6555 17.0825 22.9298 16.9265 22.2549 16.624C21.2197 16.1599 20.3446 15.3699 19.749 14.3623C19.1535 13.3548 18.8654 12.1776 18.9229 10.9912C18.9804 9.80497 19.3805 8.66534 20.0703 7.72754C20.7603 6.78953 21.7074 6.09848 22.7822 5.74902ZM24.3887 7.44336C23.4306 7.44336 22.5104 7.84653 21.8311 8.56641C21.1515 9.28664 20.7686 10.2652 20.7686 11.2861C20.7686 12.307 21.1516 13.2847 21.8311 14.0049C22.5104 14.7249 23.4305 15.1289 24.3887 15.1289C25.3468 15.1289 26.2669 14.7249 26.9463 14.0049C27.6258 13.2847 28.0088 12.307 28.0088 11.2861C28.0088 10.2652 27.6259 9.28664 26.9463 8.56641C26.2669 7.84653 25.3467 7.44336 24.3887 7.44336Z" fill="#2F2F2F" stroke="#2F2F2F" stroke-width="0.2"/>
<path d="M14.4648 17.3721V19.625H12.3281V17.3721H14.4648ZM13.3965 9.1543C13.9917 9.1543 14.4647 9.66401 14.4648 10.2803V14.7979C14.4648 15.0948 14.354 15.3811 14.1543 15.5928C13.9544 15.8047 13.6819 15.9248 13.3965 15.9248C13.1111 15.9248 12.8386 15.8047 12.6387 15.5928C12.439 15.3811 12.3281 15.0948 12.3281 14.7979V10.2803C12.3283 9.66401 12.8012 9.1543 13.3965 9.1543Z" fill="#2F2F2F" stroke="#2F2F2F" stroke-width="0.2"/>
</svg>
