<svg width="32" height="32" viewBox="0 0 32 32" fill="none" xmlns="http://www.w3.org/2000/svg">
<path d="M26.0741 4.13346H27.8647V5.92413C27.8648 7.14983 27.6235 8.36355 27.1545 9.49599C26.6855 10.6284 25.9981 11.6574 25.1314 12.5241L15.0554 22.5988L9.39806 16.9415L19.4741 6.8668C20.3408 6.00014 21.3698 5.31269 22.5022 4.8437C23.6346 4.37471 24.8484 4.13337 26.0741 4.13346ZM24.0021 17.4241L27.0154 14.4095C28.1299 13.2953 29.0141 11.9724 29.6174 10.5165C30.2206 9.06059 30.5312 7.50009 30.5314 5.92413V1.4668H26.0741C24.4982 1.46678 22.9378 1.77716 21.4818 2.38021C20.0259 2.98326 18.703 3.86716 17.5887 4.98146L14.5741 7.9948L7.0314 7.05213L1.38473 12.6988L19.2981 30.6135L24.9447 24.9668L24.0021 17.4241ZM21.6127 19.8121L22.1367 24.0028L19.2981 26.8415L16.9407 24.4841L21.6127 19.8121ZM12.1861 10.3841L7.51273 15.0561L5.15806 12.6988L7.99673 9.86013L12.1861 10.3841ZM7.51273 22.5975L2.7994 27.3121L0.914062 25.4268L5.6274 20.7135L7.51273 22.5975ZM11.2847 26.3708L6.57006 31.0841L4.68473 29.1988L9.39806 24.4841L11.2847 26.3708Z" fill="black"/>
</svg>
