<svg width="34" height="33" viewBox="0 0 34 33" fill="none" xmlns="http://www.w3.org/2000/svg">
<path d="M14.5714 33C12.5476 33 10.6523 32.615 8.88533 31.845C7.11841 31.075 5.5733 30.0162 4.25 28.6687C2.9267 27.3212 1.88781 25.7466 1.13334 23.9448C0.37886 22.143 0.00108167 20.2114 2.30634e-06 18.15C-0.00107706 16.0886 0.376701 14.157 1.13334 12.3552C1.88997 10.5534 2.92886 8.97875 4.25 7.63125C5.57114 6.28375 7.11626 5.225 8.88533 4.455C10.6544 3.685 12.5498 3.3 14.5714 3.3C15.1381 3.3 15.6848 3.33465 16.2115 3.40395C16.7383 3.47325 17.2709 3.5761 17.8095 3.7125V7.095C17.2698 6.93 16.7372 6.80625 16.2115 6.72375C15.6859 6.64125 15.1392 6.6 14.5714 6.6C11.3873 6.6 8.70238 7.71375 6.51667 9.94125C4.33095 12.1687 3.2381 14.905 3.2381 18.15C3.2381 21.395 4.33095 24.1312 6.51667 26.3587C8.70238 28.5862 11.3873 29.7 14.5714 29.7C17.7556 29.7 20.4405 28.5862 22.6262 26.3587C24.8119 24.1312 25.9048 21.395 25.9048 18.15C25.9048 17.8475 25.8913 17.5725 25.8643 17.325C25.8373 17.0775 25.7968 16.8025 25.7429 16.5H29.0619C29.1159 16.8025 29.1429 17.0775 29.1429 17.325V18.15C29.1429 20.2125 28.7651 22.1446 28.0095 23.9464C27.254 25.7482 26.2151 27.3223 24.8929 28.6687C23.5706 30.0151 22.0255 31.0739 20.2575 31.845C18.4895 32.6161 16.5942 33.0011 14.5714 33ZM19.1048 25.08L12.9524 18.81V9.9H16.1905V17.49L21.3714 22.77L19.1048 25.08ZM25.9048 13.2V8.25H21.0476V4.95H25.9048V0H29.1429V4.95H34V8.25H29.1429V13.2H25.9048Z" fill="black"/>
</svg>
