<svg width="30" height="30" viewBox="0 0 30 30" fill="none" xmlns="http://www.w3.org/2000/svg">
<path d="M26.5224 12.2766C27.1943 11.5207 28.3533 10.3785 28.2917 9.91379C28.3393 9.46166 28.0944 9.03613 27.6044 8.18646L26.9129 6.98685C26.3908 6.0798 26.1291 5.62627 25.6853 5.4471C25.2402 5.26513 24.7377 5.4079 23.7326 5.69346L22.0249 6.17358C21.381 6.32196 20.7091 6.23797 20.1226 5.93702L19.6509 5.66546C19.1481 5.34304 18.7616 4.86824 18.5479 4.31048L18.0803 2.9149C17.7724 1.99104 17.6184 1.52912 17.2545 1.26316C16.8877 1 16.4006 1 15.4292 1H13.8698C12.897 1 12.4112 1 12.0459 1.26456C11.6791 1.52912 11.5266 1.99104 11.2186 2.9149L10.7511 4.31048C10.5374 4.86824 10.1509 5.34304 9.64807 5.66546L9.17634 5.93702C8.59001 6.23775 7.91639 6.32201 7.27404 6.17498L5.56631 5.69346C4.56127 5.4079 4.05875 5.26513 3.61362 5.4457C3.16989 5.62767 2.90813 6.0798 2.38601 6.98685L1.69452 8.18646C1.2046 9.03613 0.95964 9.46026 1.00863 9.91379C1.05483 10.3659 1.38237 10.7299 2.03887 11.4591L3.48064 13.0731C3.83479 13.5196 4.08535 14.2979 4.08535 14.9978C4.08535 15.6977 3.83339 16.476 3.48204 16.9225L2.03747 18.5364C1.38097 19.2643 1.05343 19.6297 1.00583 20.0818C0.95824 20.5339 1.2032 20.9594 1.69312 21.8091L2.38461 23.0087C2.90673 23.9158 3.16849 24.3693 3.61222 24.5485C4.05735 24.7305 4.55987 24.5877 5.56491 24.3021L7.27264 23.822C7.91654 23.6736 8.58844 23.7576 9.17634 24.0586L9.64667 24.3301C10.1492 24.6521 10.5355 25.128 10.7497 25.6851L11.2172 27.0821C11.5252 28.0059 11.6931 28.4861 11.9745 28.6876C12.0585 28.7478 12.3944 29.0236 13.2175 28.9984" stroke="black" stroke-width="2" stroke-linecap="round"/>
<path d="M19.1982 22.3044C19.1982 22.3044 20.598 22.7019 21.2979 24.1017C21.2979 24.1017 22.8321 20.6022 24.8086 19.9023" stroke="black" stroke-width="2" stroke-linecap="round" stroke-linejoin="round"/>
<path d="M18.0221 11.4207C16.8463 10.4633 15.9224 10.0938 14.5787 10.0938C12.059 10.1273 9.75781 12.2088 9.75781 14.9146C9.75781 16.4068 10.2113 17.3502 11.068 18.3412M28.9964 21.9975C28.9964 23.8537 28.259 25.6339 26.9464 26.9464C25.6339 28.259 23.8537 28.9964 21.9975 28.9964C20.1413 28.9964 18.3611 28.259 17.0485 26.9464C15.736 25.6339 14.9986 23.8537 14.9986 21.9975C14.9986 20.1412 15.736 18.3611 17.0485 17.0485C18.3611 15.736 20.1413 14.9986 21.9975 14.9986C23.8537 14.9986 25.6339 15.736 26.9464 17.0485C28.259 18.3611 28.9964 20.1412 28.9964 21.9975Z" stroke="black" stroke-width="2" stroke-linecap="round"/>
</svg>
