<svg width="37" height="34" viewBox="0 0 37 34" fill="none" xmlns="http://www.w3.org/2000/svg">
<path d="M15.1364 7.14C15.1364 3.91 13.1182 1.02 10.0909 0V6.29H5.04545V0C2.01818 1.02 0 3.91 0 7.14C0 10.37 2.01818 13.26 5.04545 14.28V32.98C5.04545 33.66 5.38182 34 5.88636 34H9.25C9.75455 34 10.0909 33.66 10.0909 33.15V14.45C13.1182 13.43 15.1364 10.54 15.1364 7.14ZM25.2273 10.2C18.6682 10.37 13.4545 15.64 13.4545 22.1C13.4545 28.73 18.6682 34 25.2273 34C31.7864 34 37 28.73 37 22.1C37 15.47 31.7864 10.2 25.2273 10.2ZM25.2273 30.6C20.5182 30.6 16.8182 26.86 16.8182 22.1C16.8182 17.34 20.5182 13.6 25.2273 13.6C29.9364 13.6 33.6364 17.34 33.6364 22.1C33.6364 26.86 29.9364 30.6 25.2273 30.6ZM23.5455 15.3V23.8L29.6 27.54L30.9455 25.5L26.0682 22.61V15.3H23.5455Z" fill="#2F2F2F"/>
</svg>
