<svg width="30" height="30" viewBox="0 0 30 30" fill="none" xmlns="http://www.w3.org/2000/svg">
<path d="M13.2558 2.76536C11.9606 2.76536 10.7184 3.27522 9.8025 4.18278C8.88663 5.09034 8.37209 6.32125 8.37209 7.60474C8.37209 8.88822 8.88663 10.1191 9.8025 11.0267C10.7184 11.9343 11.9606 12.4441 13.2558 12.4441C14.5511 12.4441 15.7933 11.9343 16.7091 11.0267C17.625 10.1191 18.1395 8.88822 18.1395 7.60474C18.1395 6.32125 17.625 5.09034 16.7091 4.18278C15.7933 3.27522 14.5511 2.76536 13.2558 2.76536ZM5.5814 7.60474C5.5814 5.58784 6.38995 3.65354 7.82918 2.22738C9.26841 0.801211 11.2204 0 13.2558 0C15.2912 0 17.2432 0.801211 18.6824 2.22738C20.1217 3.65354 20.9302 5.58784 20.9302 7.60474C20.9302 9.62164 20.1217 11.5559 18.6824 12.9821C17.2432 14.4083 15.2912 15.2095 13.2558 15.2095C11.2204 15.2095 9.26841 14.4083 7.82918 12.9821C6.38995 11.5559 5.5814 9.62164 5.5814 7.60474ZM20.2326 18.6662V23.6908C20.2326 23.9206 20.2904 24.1467 20.4008 24.3488C20.5111 24.5508 20.6706 24.7225 20.8646 24.8481L23.7209 26.6968L26.5772 24.8481C26.7713 24.7225 26.9307 24.5508 27.0411 24.3488C27.1515 24.1467 27.2093 23.9206 27.2093 23.6908V18.6662H20.2326ZM17.4419 15.9008H30V23.6908C29.9998 24.3802 29.8261 25.0587 29.4948 25.6649C29.1635 26.2711 28.6849 26.7859 28.1023 27.1627L23.7209 30L19.3395 27.1627C18.757 26.7859 18.2784 26.2711 17.9471 25.6649C17.6157 25.0587 17.4421 24.3802 17.4419 23.6908V15.9008ZM8.37209 19.3575C6.89181 19.3575 5.47216 19.9402 4.42545 20.9774C3.37874 22.0146 2.7907 23.4214 2.7907 24.8882H14.7209V27.6536H0V24.8882C0 22.688 0.882057 20.5778 2.45213 19.022C4.0222 17.4662 6.15168 16.5922 8.37209 16.5922H14.6512V19.3575H8.37209Z" fill="black"/>
</svg>
