<svg width="37" height="37" viewBox="0 0 37 37" fill="none" xmlns="http://www.w3.org/2000/svg">
<path d="M17.3893 0.599609L16.23 3.24658C15.6299 3.28315 15.0328 3.35872 14.4425 3.47281L12.669 1.18278L10.7576 1.83268L10.7481 4.74625C9.93834 5.16246 9.16238 5.66565 8.42938 6.25293L5.72794 5.03662L4.34489 6.50773L5.72787 9.13086C5.28664 9.75987 4.89889 10.4247 4.56868 11.1185L1.6027 11.1994L1.00049 13.125L3.39518 14.889C3.28054 15.6035 3.22455 16.3254 3.22136 17.048L0.5625 18.3953L0.840984 20.3948L3.75936 20.9661C3.93391 21.5769 4.15024 22.175 4.40682 22.7561L2.48355 25.1437L3.55704 26.8527L6.54679 26.1529C6.73597 26.3755 6.93203 26.5922 7.13469 26.8027C7.55789 27.2405 8.00874 27.6508 8.48445 28.0309L7.90364 31.0255L9.65087 32.0348L11.9336 30.0471C12.5868 30.3097 13.2593 30.5213 13.9451 30.6803L14.6902 33.6057L16.7015 33.77L17.9107 31.0111C18.7463 30.9608 19.5792 30.8359 20.3982 30.6349L22.3192 32.8607L24.1925 32.1108L24.1377 30.9825L19.765 27.6668C18.492 27.9886 17.1719 28.0747 15.8754 27.9285C13.4566 27.6558 11.1322 26.5635 9.30802 24.677C5.13853 20.3646 5.25773 13.5049 9.5699 9.33553C11.6585 7.31599 14.3451 6.29148 17.0347 6.26246C19.898 6.23153 22.7639 7.32856 24.9138 9.55209C28.4128 13.1712 28.8897 18.6154 26.4039 22.7371L28.8391 24.5842C29.1419 24.1095 29.4154 23.6166 29.6579 23.1084L32.6024 23.0274L33.2046 21.1018L30.8267 19.3498C30.9415 18.6295 30.9996 17.9012 31.0004 17.1718L33.6427 15.8293L33.3642 13.8298L30.4484 13.2585C30.203 12.4138 29.8778 11.5945 29.4772 10.8114L31.2147 8.40487L30.053 6.75521L27.192 7.58594C27.1561 7.54786 27.1212 7.50924 27.0848 7.47168C26.6344 7.00577 26.1525 6.57147 25.6423 6.17189L26.1898 3.34401L24.4424 2.3348L22.2715 4.22493C21.5687 3.94211 20.8469 3.72197 20.1148 3.55843L19.4032 0.763836L17.3893 0.599609ZM12.9595 12.292C12.1716 12.301 11.3906 12.4945 10.6743 12.8465L14.1188 15.4603C15.1605 16.2506 15.456 17.7527 14.6566 18.807C13.8569 19.862 12.3215 20.0206 11.2646 19.219L7.82259 16.6077C7.47015 18.4962 8.13757 20.4972 9.77214 21.7374C11.2381 22.8493 13.1194 23.0574 14.7401 22.4753L15.1042 22.3443L15.4111 22.5776L25.7088 30.3901L26.0158 30.6234L25.9896 31.009C25.8649 32.7267 26.5677 34.4832 28.0343 35.5959C29.669 36.8359 31.7778 36.9388 33.502 36.091L30.0601 33.4798C29.0033 32.678 28.7437 31.1561 29.5436 30.102C30.3434 29.0478 31.8697 28.9286 32.9117 29.7187L36.3538 32.3301C36.7054 30.4423 36.0407 28.4403 34.4066 27.2004C32.9355 26.0839 31.069 25.8627 29.4578 26.4362L29.096 26.5648L28.7891 26.3315L18.4914 18.5191L18.1844 18.2858L18.2106 17.9027C18.3287 16.1974 17.6127 14.4601 16.142 13.3442C15.1865 12.6193 14.0685 12.2794 12.9595 12.2921L12.9595 12.292ZM16.2777 19.1665L28.7604 28.638L27.901 29.7734L15.416 20.2996L16.2777 19.1665Z" fill="black"/>
</svg>
