<svg width="30" height="30" viewBox="0 0 30 30" fill="none" xmlns="http://www.w3.org/2000/svg">
<path d="M15 14.3396L12.75 10.1887M23.25 16C17.9202 13.8579 12.0798 13.8579 6.75 16L6 6.86792C11.25 4.37736 18.75 4.37736 24 6.86792L23.25 16Z" stroke="black" stroke-width="2" stroke-miterlimit="2" stroke-linecap="round" stroke-linejoin="round"/>
<path d="M29 26.6667C29 27.2855 28.7542 27.879 28.3166 28.3166C27.879 28.7542 27.2855 29 26.6667 29H3.33333C2.71449 29 2.121 28.7542 1.68342 28.3166C1.24583 27.879 1 27.2855 1 26.6667V3.33333C1 2.71449 1.24583 2.121 1.68342 1.68342C2.121 1.24583 2.71449 1 3.33333 1H26.6667C27.2855 1 27.879 1.24583 28.3166 1.68342C28.7542 2.121 29 2.71449 29 3.33333V26.6667Z" stroke="black" stroke-width="2" stroke-miterlimit="2" stroke-linecap="round" stroke-linejoin="round"/>
<path d="M19 15C16.3496 13.6667 13.6504 13.6667 11 15" stroke="black" stroke-width="2" stroke-miterlimit="2" stroke-linecap="round" stroke-linejoin="round"/>
</svg>
