<svg width="47" height="47" viewBox="0 0 47 47" fill="none" xmlns="http://www.w3.org/2000/svg">
<path d="M22.8068 41.0565C22.177 40.9375 21.5961 40.6361 21.1361 40.1898C20.6762 39.7434 20.3576 39.1718 20.2198 38.5459C20.0946 38.0293 19.8492 37.5495 19.5036 37.1457C19.158 36.7418 18.7219 36.4253 18.2308 36.2218C17.7397 36.0184 17.2076 35.9337 16.6776 35.9748C16.1476 36.0159 15.6348 36.1816 15.181 36.4583C12.1593 38.2991 8.69892 34.8407 10.5398 31.817C10.8161 31.3634 10.9815 30.8509 11.0224 30.3213C11.0634 29.7917 10.9789 29.2599 10.7757 28.7691C10.5725 28.2784 10.2563 27.8425 9.85291 27.4969C9.44952 27.1513 8.97027 26.9057 8.45413 26.7802C5.01529 25.946 5.01529 21.054 8.45413 20.2198C8.97073 20.0946 9.45048 19.8492 9.85433 19.5036C10.2582 19.158 10.5747 18.7219 10.7782 18.2308C10.9816 17.7397 11.0662 17.2076 11.0252 16.6776C10.9841 16.1476 10.8184 15.6348 10.5417 15.181C8.70087 12.1593 12.1593 8.69892 15.183 10.5397C17.1413 11.7304 19.6793 10.6768 20.2198 8.45412C21.054 5.01529 25.946 5.01529 26.7802 8.45412C26.9054 8.97073 27.1508 9.45048 27.4964 9.85433C27.842 10.2582 28.2781 10.5747 28.7692 10.7782C29.2603 10.9816 29.7924 11.0662 30.3224 11.0252C30.8524 10.9841 31.3652 10.8184 31.819 10.5417C34.8407 8.70087 38.3011 12.1593 36.4603 15.183C36.1839 15.6366 36.0185 16.1491 35.9776 16.6787C35.9366 17.2083 36.0211 17.7401 36.2243 18.2309C36.4275 18.7216 36.7437 19.1575 37.1471 19.5031C37.5505 19.8487 38.0297 20.0943 38.5459 20.2198C39.9715 20.5664 40.8058 21.6102 41.0506 22.7715" stroke="black" stroke-width="2" stroke-linecap="round" stroke-linejoin="round"/>
<path d="M29.3444 22.9015C29.2313 21.7963 28.8071 20.7459 28.121 19.8721C27.435 18.9983 26.5153 18.3369 25.4685 17.9646C24.4218 17.5924 23.291 17.5245 22.2072 17.769C21.1235 18.0135 20.1313 18.5602 19.3457 19.3457C18.5602 20.1313 18.0135 21.1235 17.769 22.2072C17.5245 23.291 17.5924 24.4218 17.9646 25.4685C18.3369 26.5153 18.9983 27.435 19.8721 28.121C20.7459 28.8071 21.7963 29.2313 22.9015 29.3444M39.5571 39.5591L43.0821 43.0841M29.3738 35.2508C29.3738 36.8089 29.9928 38.3032 31.0946 39.405C32.1963 40.5068 33.6907 41.1258 35.2488 41.1258C36.807 41.1258 38.3013 40.5068 39.4031 39.405C40.5048 38.3032 41.1238 36.8089 41.1238 35.2508C41.1238 33.6926 40.5048 32.1983 39.4031 31.0965C38.3013 29.9947 36.807 29.3758 35.2488 29.3758C33.6907 29.3758 32.1963 29.9947 31.0946 31.0965C29.9928 32.1983 29.3738 33.6926 29.3738 35.2508Z" stroke="black" stroke-width="2" stroke-linecap="round" stroke-linejoin="round"/>
</svg>
