<svg width="88" height="56" viewBox="0 0 88 56" fill="none" xmlns="http://www.w3.org/2000/svg">
<path d="M74.25 0C76.1406 0 77.9167 0.357325 79.5781 1.07198C81.2396 1.78663 82.6862 2.77284 83.918 4.03063C85.1497 5.28841 86.138 6.7463 86.8828 8.40429C87.6276 10.0623 88 11.8346 88 13.7213V32.9311H82.5V13.7213C82.5 12.5778 82.2852 11.5059 81.8555 10.5054C81.4258 9.50485 80.8385 8.63298 80.0938 7.88974C79.349 7.1465 78.4753 6.56049 77.4727 6.1317C76.4701 5.70291 75.3958 5.48851 74.25 5.48851H13.75C12.6042 5.48851 11.5299 5.70291 10.5273 6.1317C9.52474 6.56049 8.65104 7.1465 7.90625 7.88974C7.16146 8.63298 6.57422 9.50485 6.14453 10.5054C5.71484 11.5059 5.5 12.5778 5.5 13.7213V27.4426H66V32.9311H0V13.7213C0 11.8346 0.358073 10.0623 1.07422 8.40429C1.79036 6.7463 2.76432 5.30271 3.99609 4.07351C5.22786 2.84431 6.6888 1.85809 8.37891 1.11485C10.069 0.371618 11.8594 0 13.75 0H74.25ZM84.0039 38.5482L87.8711 42.4073L74.25 56L60.6289 42.4073L64.4961 38.5482L71.5 45.4946V21.9541H77V45.4946L84.0039 38.5482ZM77 16.4655H71.5V10.977H77V16.4655ZM60.5 10.977H66V16.4655H60.5V10.977Z" fill="#0B60B0"/>
</svg>
