<svg width="43" height="39" viewBox="0 0 43 39" fill="none" xmlns="http://www.w3.org/2000/svg">
<path d="M17.25 8.05C17.25 4.40833 14.95 1.15 11.5 0V7.09167H5.75V0C2.3 1.15 0 4.40833 0 8.05C0 11.6917 2.3 14.95 5.75 16.1V37.1833C5.75 37.95 6.13333 38.3333 6.70833 38.3333H10.5417C11.1167 38.3333 11.5 37.95 11.5 37.375V16.2917C14.95 15.1417 17.25 11.8833 17.25 8.05ZM28.75 11.5C21.275 11.6917 15.3333 17.6333 15.3333 24.9167C15.3333 32.3917 21.275 38.3333 28.75 38.3333C36.225 38.3333 42.1667 32.3917 42.1667 24.9167C42.1667 17.4417 36.225 11.5 28.75 11.5ZM28.75 34.5C23.3833 34.5 19.1667 30.2833 19.1667 24.9167C19.1667 19.55 23.3833 15.3333 28.75 15.3333C34.1167 15.3333 38.3333 19.55 38.3333 24.9167C38.3333 30.2833 34.1167 34.5 28.75 34.5ZM26.8333 17.25V26.8333L33.7333 31.05L35.2667 28.75L29.7083 25.4917V17.25H26.8333Z" fill="black"/>
</svg>
