<svg width="54" height="48" viewBox="0 0 54 48" fill="none" xmlns="http://www.w3.org/2000/svg">
<path fill-rule="evenodd" clip-rule="evenodd" d="M45.7982 2.43183L45.4756 0H37.9308L37.6073 2.43028L37.4058 3.93596L37.0097 4.16504L36.6548 4.39903L35.3202 3.83105L33.1696 2.91628L32.0085 5.03621L30.565 7.67166L29.4017 9.79524L31.23 11.3084L32.3595 12.2428L32.356 12.2866C32.3494 12.4262 32.346 12.566 32.3459 12.7058L32.356 13.1216L32.3622 13.1802L31.2303 14.1181L29.4009 15.631L30.5644 17.7552L32.0088 20.392L33.1696 22.5117L35.3202 21.5973L36.6521 21.0296L37.0225 21.2743L37.4058 21.4927L37.6038 22.9801L37.9264 25.4117H45.4708L45.7944 22.9815L45.9935 21.4729L46.392 21.2468L46.7446 21.0098L48.0812 21.5805L50.2321 22.4952L51.3932 20.3753L52.8368 17.74L54 15.6164L52.1717 14.1033L51.0425 13.1688L51.0455 13.1251C51.0523 12.9835 51.0557 12.8438 51.0556 12.7058L51.0457 12.2901L51.0398 12.2258L52.172 11.2921L54 9.77893L52.8368 7.65549L51.393 5.01947L50.2318 2.89997L48.0815 3.81432L46.7473 4.37921L46.3793 4.13719L45.9935 3.91613L45.7982 2.43183ZM41.9632 18.3528C44.9156 18.3528 47.3088 15.8245 47.3088 12.7058C47.3088 9.58698 44.9156 7.05882 41.9632 7.05882C39.0108 7.05882 36.6176 9.58698 36.6176 12.7058C36.6176 15.8245 39.0108 18.3528 41.9632 18.3528ZM16.397 25.0202L16.0746 22.5882H8.52975L8.20617 25.0183L8.00466 26.5242L7.60866 26.7532L7.25358 26.9872L5.91919 26.4194L3.76861 25.5046L2.60747 27.6245L1.16381 30.26L0.000562191 32.3836L1.82869 33.8967L2.95833 34.831L2.95509 34.8748C2.94836 35.0144 2.94494 35.1543 2.94483 35.2941L2.95481 35.7096L2.96114 35.7684L1.82911 36.7064L0 38.2192L1.16339 40.3434L2.60761 42.9802L3.76861 45.0999L5.91905 44.1857L7.25091 43.6178L7.62131 43.8627L8.00466 44.0809L8.20294 45.5683L8.52553 48H16.0698L16.3934 45.5697L16.5925 44.0611L16.9909 43.835L17.3436 43.5982L18.6803 44.1687L20.8309 45.0836L21.9921 42.9636L23.4357 40.3282L24.599 38.2046L22.7707 36.6915L21.6415 35.7572L21.6444 35.7134C21.6512 35.5717 21.6546 35.4319 21.6547 35.2941L21.6447 34.8784L21.6388 34.8141L22.771 33.8804L24.599 32.3673L23.4357 30.244L21.9919 27.6078L20.8309 25.4882L18.6805 26.4025L17.3462 26.9675L16.9782 26.7255L16.5925 26.5045L16.397 25.0202ZM12.5622 40.9412C15.5145 40.9412 17.9077 38.4129 17.9077 35.2941C17.9077 32.1752 15.5145 29.647 12.5622 29.647C9.60975 29.647 7.21645 32.1752 7.21645 35.2941C7.21645 38.413 9.60975 40.9412 12.5622 40.9412ZM54 41.9999H27V48H54V41.9999ZM0 0H27V5.99991H0V0ZM27 17.9999H21V23.9999H27V17.9999Z" fill="#0B60B0"/>
</svg>
