<svg width="31" height="35" viewBox="0 0 31 35" fill="none" xmlns="http://www.w3.org/2000/svg">
<path d="M4.75195 1.62222C5.02148 0.663637 5.88606 0 6.86675 0H17.7518C19.2529 0 20.3144 1.49582 19.8396 2.94528L19.8355 2.96214L17.221 10.5339H22.537C24.4984 10.5339 25.4542 12.9441 24.1252 14.3493L24.119 14.3577L23.6276 14.8676C22.6839 14.7298 21.7271 14.7107 20.7788 14.8107L22.6324 12.8893C22.6507 12.8711 22.663 12.8475 22.6676 12.8219C22.6697 12.7903 22.6648 12.7586 22.6531 12.7292C22.6411 12.7018 22.6234 12.6774 22.6013 12.6576C22.593 12.6477 22.5716 12.6421 22.537 12.6407H15.7572C15.5916 12.6405 15.4285 12.6 15.2814 12.5225C15.1344 12.4451 15.0078 12.3329 14.9121 12.1955C14.8165 12.0581 14.7547 11.8995 14.7318 11.7328C14.7089 11.5661 14.7257 11.3963 14.7807 11.2376L17.8762 2.27533C17.882 2.25569 17.8833 2.23493 17.8797 2.21473C17.8762 2.19452 17.8681 2.17544 17.856 2.15902C17.8439 2.14261 17.8281 2.12933 17.81 2.12025C17.7919 2.11118 17.772 2.10656 17.7518 2.10678H6.86882C6.84057 2.10588 6.81286 2.11477 6.79025 2.132C6.76764 2.14923 6.75147 2.17378 6.74442 2.20159L2.07942 18.7904C2.05868 18.8747 2.11881 18.9589 2.20382 18.9589H6.16181C6.31906 18.9591 6.47421 18.9955 6.61554 19.0656C6.75686 19.1357 6.88065 19.2375 6.97753 19.3633C7.07442 19.4892 7.14186 19.6357 7.17475 19.792C7.20764 19.9482 7.20512 20.11 7.16738 20.2652L4.42021 31.4311C4.41501 31.4517 4.41291 31.473 4.41399 31.4943C4.41399 31.5027 4.41607 31.5105 4.42021 31.5175C4.42712 31.5357 4.44786 31.5568 4.48241 31.5807C4.50958 31.5941 4.5393 31.6013 4.56949 31.6018L4.59023 31.5933C4.60859 31.5833 4.62537 31.5705 4.63999 31.5554L4.64621 31.547L10.6216 25.353C10.5421 26.3176 10.5797 27.2884 10.7335 28.2435L6.13071 33.0196C4.56742 34.6671 1.86171 33.146 2.40908 30.9213L4.83488 21.0636H2.20174C1.8609 21.0636 1.52472 20.9832 1.21966 20.8287C0.914612 20.6742 0.649023 20.4498 0.443811 20.1733C0.238599 19.8968 0.0993662 19.5756 0.037079 19.2351C-0.0252082 18.8946 -0.00885006 18.544 0.0848656 18.211L4.75195 1.62222ZM16.9369 19.8944C17.0862 20.4352 17.1276 21.0008 17.0586 21.5581C16.9896 22.1154 16.8117 22.6531 16.5353 23.1395C16.2589 23.6259 15.8895 24.0512 15.449 24.3905C15.0084 24.7297 14.5056 24.976 13.97 25.115L13.0142 25.3636C12.945 26.0757 12.9519 26.7934 13.0349 27.5041L13.7606 27.6789C14.3103 27.811 14.8276 28.0558 15.2809 28.3983C15.7341 28.7409 16.1138 29.1739 16.3964 29.6708C16.6791 30.1678 16.8589 30.7181 16.9247 31.2882C16.9906 31.8583 16.9411 32.436 16.7794 32.9859L16.5161 33.875C17.051 34.3062 17.6281 34.6699 18.2473 34.9663L18.9211 34.2416C19.309 33.8242 19.7768 33.4917 20.2957 33.2647C20.8146 33.0376 21.3737 32.9207 21.9387 32.9211C22.5037 32.9214 23.0627 33.0392 23.5813 33.267C24.0999 33.4948 24.5672 33.8278 24.9545 34.2458L25.6532 35C26.2614 34.7149 26.8295 34.3652 27.3575 33.9508L27.032 32.7794C26.8824 32.2385 26.8408 31.6726 26.9096 31.1151C26.9785 30.5576 27.1563 30.0196 27.4328 29.533C27.7092 29.0464 28.0787 28.6208 28.5194 28.2814C28.9601 27.942 29.4631 27.6956 29.999 27.5567L30.9527 27.3102C31.0221 26.5974 31.0151 25.879 30.932 25.1676L30.2104 24.9949C29.6605 24.8628 29.1429 24.6179 28.6895 24.2753C28.2361 23.9326 27.8564 23.4994 27.5737 23.0022C27.291 22.505 27.1113 21.9544 27.0456 21.3841C26.9799 20.8138 27.0296 20.2359 27.1917 19.6858L27.4529 18.7988C26.9189 18.3683 26.338 18.0014 25.7217 17.7054L25.0478 18.4301C24.6601 18.8477 24.1924 19.1803 23.6736 19.4075C23.1547 19.6348 22.5957 19.7519 22.0307 19.7517C21.4657 19.7515 20.9067 19.634 20.388 19.4064C19.8694 19.1787 19.4019 18.8458 19.0144 18.428L18.3157 17.6738C17.7116 17.9572 17.1407 18.3084 16.6135 18.7209L16.9369 19.8944ZM21.9814 28.4416C21.4315 28.4416 20.9041 28.2196 20.5153 27.8245C20.1265 27.4294 19.908 26.8935 19.908 26.3348C19.908 25.776 20.1265 25.2402 20.5153 24.8451C20.9041 24.45 21.4315 24.228 21.9814 24.228C22.5312 24.228 23.0586 24.45 23.4474 24.8451C23.8363 25.2402 24.0547 25.776 24.0547 26.3348C24.0547 26.8935 23.8363 27.4294 23.4474 27.8245C23.0586 28.2196 22.5312 28.4416 21.9814 28.4416Z" fill="#2F2F2F"/>
</svg>
