<svg width="96" height="96" viewBox="0 0 96 96" fill="none" xmlns="http://www.w3.org/2000/svg">
<path d="M62.4049 13.9298C55.2999 9.56983 37.0399 1.20983 20.5999 3.34483C30.5499 10.1948 35.7799 13.8748 49.8999 26.4448M82.0749 33.5948C86.4349 40.7048 94.7949 58.9598 92.6599 75.3998C85.8099 65.4548 82.1299 60.2248 69.5599 46.1048M40.3699 45.0898L5.11987 80.3398C2.25987 83.1998 2.30487 87.8748 5.21987 90.7898C8.12987 93.6998 12.8099 93.7398 15.6699 90.8848L50.9149 55.6348M47.9349 34.1298L61.8749 48.0648C63.4249 49.6148 65.9249 49.6198 67.4699 48.0798L84.7349 30.8098C85.1016 30.4423 85.3923 30.0061 85.5902 29.5262C85.7882 29.0462 85.8897 28.5319 85.8887 28.0128C85.8878 27.4936 85.7845 26.9797 85.5848 26.5004C85.3851 26.0212 85.0929 25.586 84.7249 25.2198L70.7849 11.2798C70.4187 10.9118 69.9835 10.6196 69.5043 10.4199C69.025 10.2202 68.5111 10.1169 67.9919 10.116C67.4728 10.115 66.9585 10.2165 66.4785 10.4145C65.9986 10.6124 65.5624 10.9031 65.1949 11.2698L47.9249 28.5348C47.5574 28.9024 47.2661 29.339 47.0677 29.8194C46.8692 30.2998 46.7676 30.8146 46.7685 31.3344C46.7694 31.8542 46.8729 32.3687 47.0731 32.8484C47.2732 33.3281 47.5661 33.7635 47.9349 34.1298Z" stroke="#0B60B0" stroke-width="5" stroke-linecap="round" stroke-linejoin="round"/>
</svg>
