<svg width="31" height="31" viewBox="0 0 31 31" fill="none" xmlns="http://www.w3.org/2000/svg">
<path d="M1 18.3986V29.999M1 28.0656H20.334C20.334 27.04 19.9266 26.0565 19.2014 25.3313C18.4763 24.6062 17.4927 24.1988 16.4672 24.1988H11.6337M11.6337 24.1988C11.6337 23.1732 11.2263 22.1897 10.5011 21.4645C9.77597 20.7394 8.79243 20.332 7.7669 20.332H1M11.6337 24.1988H7.7669M9.93746 16.5502C8.91621 14.5917 8.53019 12.3638 8.83301 10.1758C9.13584 7.98789 10.1125 5.94855 11.6273 4.34103C13.1421 2.7335 15.1199 1.63759 17.286 1.20548C19.4521 0.773366 21.6991 1.02651 23.7147 1.92975C25.7304 2.833 27.4148 4.34151 28.5339 6.24578C29.6531 8.15006 30.1515 10.3556 29.9599 12.5561C29.7683 14.7565 28.8963 16.8427 27.4648 18.5249C26.0334 20.2071 24.1137 21.4018 21.9722 21.9431" stroke="black" stroke-width="2" stroke-linecap="round" stroke-linejoin="round"/>
<path d="M18.4004 4.86523V12.5988H23.2339" stroke="black" stroke-width="2" stroke-linecap="round" stroke-linejoin="round"/>
</svg>
