<svg width="34" height="34" viewBox="0 0 34 34" fill="none" xmlns="http://www.w3.org/2000/svg">
<path d="M3.83125 4.73806C4.21597 4.95703 4.6513 5.07151 5.09397 5.0701C5.53664 5.0687 5.97123 4.95148 6.35456 4.73008C6.73788 4.50867 7.05659 4.19081 7.27901 3.80807C7.50143 3.42533 7.6198 2.99105 7.62238 2.54839H10.1725C10.1749 2.9913 10.2932 3.42586 10.5157 3.80883C10.7382 4.1918 11.0571 4.50984 11.4407 4.73129C11.8243 4.95274 12.2592 5.06988 12.7021 5.07107C13.145 5.07226 13.5805 4.95745 13.9653 4.73806L15.2403 6.94474C15.9493 6.54863 16.7976 6.28682 17.6612 6.13211C17.6091 5.97911 17.5411 5.8295 17.4572 5.6833L16.1669 3.45112C15.8332 2.87187 15.2841 2.448 14.6392 2.2719C13.9944 2.09579 13.306 2.18173 12.7243 2.51099C12.7184 1.84242 12.4485 1.20327 11.9734 0.732898C11.4982 0.262525 10.8564 -0.000920467 10.1878 2.41658e-06H7.61048C6.21643 2.41658e-06 5.08589 1.12204 5.07399 2.51269C4.49207 2.1829 3.80332 2.09666 3.15805 2.27279C2.51277 2.44891 1.96335 2.87311 1.62968 3.45282L0.341032 5.6833C-0.355992 6.89034 0.052022 8.43059 1.24886 9.13612C0.672349 9.47521 0.253344 10.0285 0.083269 10.6754C-0.086806 11.3223 0.00585409 12.0101 0.341032 12.5889L1.62968 14.8211C2.3267 16.0282 3.86355 16.4447 5.07399 15.7612C5.08419 16.8119 5.73362 17.7112 6.65165 18.0869C6.64655 17.1162 6.88966 16.1319 7.41157 15.2308L7.52718 15.0302C7.41981 14.6618 7.23038 14.3226 6.97311 14.0379C6.71583 13.7532 6.39741 13.5306 6.04174 13.3866C5.68607 13.2426 5.30241 13.1811 4.91956 13.2067C4.53671 13.2322 4.16462 13.3442 3.83125 13.5342L2.55621 11.3258C4.23076 10.3466 4.23076 7.92567 2.55621 6.94644L3.83125 4.73806Z" fill="black"/>
<path d="M8.89774 11.6881C9.57407 11.6881 10.2227 11.4194 10.7009 10.9412C11.1792 10.4629 11.4478 9.8143 11.4478 9.13798C11.4478 8.46165 11.1792 7.81303 10.7009 7.33479C10.2227 6.85656 9.57407 6.58789 8.89774 6.58789C8.22142 6.58789 7.57279 6.85656 7.09456 7.33479C6.61633 7.81303 6.34766 8.46165 6.34766 9.13798C6.34766 9.8143 6.61633 10.4629 7.09456 10.9412C7.57279 11.4194 8.22142 11.6881 8.89774 11.6881Z" fill="black"/>
<path fill-rule="evenodd" clip-rule="evenodd" d="M16.3906 21.2517C16.3906 19.8697 16.9396 18.5444 17.9168 17.5672C18.894 16.59 20.2193 16.041 21.6013 16.041C22.9833 16.041 24.3086 16.59 25.2858 17.5672C26.263 18.5444 26.812 19.8697 26.812 21.2517C26.812 22.6337 26.263 23.959 25.2858 24.9362C24.3086 25.9134 22.9833 26.4624 21.6013 26.4624C20.2193 26.4624 18.894 25.9134 17.9168 24.9362C16.9396 23.959 16.3906 22.6337 16.3906 21.2517ZM21.603 18.5928C21.2536 18.5928 20.9076 18.6616 20.5848 18.7953C20.262 18.929 19.9687 19.125 19.7217 19.3721C19.4746 19.6191 19.2786 19.9124 19.1449 20.2352C19.0112 20.558 18.9424 20.904 18.9424 21.2534C18.9424 21.6028 19.0112 21.9488 19.1449 22.2716C19.2786 22.5944 19.4746 22.8877 19.7217 23.1347C19.9687 23.3818 20.262 23.5778 20.5848 23.7115C20.9076 23.8452 21.2536 23.914 21.603 23.914C22.3086 23.914 22.9854 23.6337 23.4843 23.1347C23.9833 22.6358 24.2636 21.959 24.2636 21.2534C24.2636 20.5478 23.9833 19.871 23.4843 19.3721C22.9854 18.8731 22.3086 18.5928 21.603 18.5928Z" fill="black"/>
<path fill-rule="evenodd" clip-rule="evenodd" d="M9.61942 26.0009C9.41453 25.6464 9.2815 25.255 9.22795 24.8491C9.17439 24.4432 9.20135 24.0307 9.30729 23.6352C9.41323 23.2397 9.59607 22.8689 9.84536 22.5441C10.0947 22.2193 10.4055 21.9469 10.7602 21.7423C10.8459 21.6925 10.9171 21.6211 10.9666 21.5351C11.016 21.4492 11.0421 21.3518 11.0421 21.2526C11.0421 21.1535 11.016 21.0561 10.9666 20.9701C10.9171 20.8842 10.8459 20.8128 10.7602 20.763C10.0447 20.3495 9.52269 19.6687 9.30908 18.8704C9.09547 18.0721 9.20772 17.2216 9.62112 16.5061L11.5014 13.2488C11.9149 12.5337 12.5953 12.0121 13.3933 11.7985C14.1912 11.5849 15.0412 11.6969 15.7566 12.1097C15.8425 12.1597 15.9401 12.1862 16.0395 12.1863C16.1389 12.1865 16.2366 12.1604 16.3227 12.1108C16.4088 12.0611 16.4802 11.9895 16.5298 11.9034C16.5793 11.8172 16.6053 11.7195 16.605 11.6201C16.605 9.89965 17.999 8.50391 19.7195 8.50391H23.4817C25.2039 8.50391 26.5979 9.89965 26.5979 11.6201C26.5979 12.0553 27.0688 12.3273 27.4445 12.1097C27.7986 11.9046 28.1897 11.7714 28.5953 11.7176C29.0009 11.6639 29.4132 11.6907 29.8085 11.7965C30.2037 11.9023 30.5742 12.085 30.8988 12.3342C31.2233 12.5834 31.4955 12.8942 31.6998 13.2488L33.5817 16.5095C33.7866 16.8635 33.9196 17.2544 33.9732 17.6598C34.0268 18.0653 34 18.4774 33.8942 18.8724C33.7884 19.2675 33.6057 19.6378 33.3567 19.9622C33.1076 20.2867 32.797 20.5588 32.4427 20.763C32.3565 20.8125 32.2849 20.8838 32.2351 20.9697C32.1853 21.0557 32.1591 21.1533 32.1591 21.2526C32.1591 21.352 32.1853 21.4496 32.2351 21.5356C32.2849 21.6215 32.3565 21.6928 32.4427 21.7423C33.1578 22.1557 33.6794 22.8362 33.893 23.6341C34.1066 24.432 33.9946 25.2821 33.5817 25.9975L31.7032 29.2548C31.4986 29.6092 31.2262 29.9199 30.9015 30.169C30.5768 30.4182 30.2063 30.6009 29.811 30.7069C29.4157 30.8128 29.0034 30.8398 28.5976 30.7864C28.1919 30.733 27.8006 30.6002 27.4462 30.3956C27.3602 30.3457 27.2625 30.3194 27.1631 30.3192C27.0637 30.3191 26.9659 30.3451 26.8798 30.3948C26.7936 30.4444 26.722 30.5159 26.6722 30.602C26.6225 30.688 26.5962 30.7857 26.5962 30.8852C26.5962 32.6073 25.2022 34.0014 23.4817 34.0014H19.7212C18.895 34.0014 18.1026 33.6733 17.5183 33.0893C16.9339 32.5052 16.6054 31.713 16.605 30.8869C16.6049 30.7874 16.5787 30.6897 16.5289 30.6037C16.4792 30.5176 16.4076 30.4461 16.3214 30.3965C16.2352 30.3468 16.1375 30.3208 16.0381 30.3209C15.9386 30.3211 15.841 30.3474 15.7549 30.3973C15.0393 30.81 14.1891 30.9217 13.3912 30.7078C12.5932 30.4938 11.9129 29.9719 11.4997 29.2565L9.61942 26.0009ZM12.0352 23.9506C11.9706 23.9878 11.9139 24.0374 11.8684 24.0965C11.823 24.1556 11.7897 24.2231 11.7704 24.2951C11.7511 24.3672 11.7463 24.4423 11.7561 24.5162C11.766 24.5901 11.7903 24.6614 11.8278 24.7259L13.7081 27.9815C13.8645 28.2535 14.2096 28.3453 14.4816 28.1889C16.5574 26.9903 19.1551 28.4881 19.1551 30.8869C19.1551 31.198 19.4084 31.4513 19.7212 31.4513H23.4817C23.6318 31.4513 23.7758 31.3916 23.882 31.2855C23.9882 31.1793 24.0478 31.0353 24.0478 30.8852C24.0478 28.4881 26.6438 26.9886 28.7213 28.1872C28.9933 28.3436 29.3384 28.2501 29.4948 27.9798L31.3751 24.7225C31.4496 24.5925 31.4697 24.4384 31.4308 24.2937C31.3919 24.149 31.2973 24.0257 31.1677 23.9506C29.0919 22.7521 29.0902 19.7549 31.1677 18.5546C31.232 18.5178 31.2884 18.4687 31.3336 18.4099C31.3788 18.3512 31.4119 18.2841 31.4311 18.2125C31.4502 18.1409 31.455 18.0662 31.445 17.9927C31.4351 17.9193 31.4108 17.8485 31.3734 17.7845L29.4914 14.5255C29.4547 14.4608 29.4056 14.404 29.3468 14.3585C29.288 14.313 29.2207 14.2796 29.1489 14.2603C29.0771 14.241 29.0021 14.2362 28.9284 14.2461C28.8547 14.256 28.7837 14.2805 28.7196 14.3181C26.6438 15.5183 24.0478 14.0172 24.0478 11.6201C24.0478 11.47 23.9882 11.326 23.882 11.2198C23.7758 11.1136 23.6318 11.054 23.4817 11.054H19.7212C19.6468 11.0535 19.573 11.0679 19.5042 11.0962C19.4355 11.1245 19.373 11.1662 19.3205 11.2189C19.2679 11.2716 19.2264 11.3342 19.1983 11.4031C19.1702 11.4719 19.1561 11.5457 19.1568 11.6201C19.1568 14.0172 16.5608 15.5166 14.4833 14.3164C14.3534 14.2418 14.1992 14.2218 14.0545 14.2607C13.9099 14.2995 13.7865 14.3942 13.7115 14.5238L11.8312 17.7811C11.794 17.8455 11.7699 17.9166 11.7602 17.9904C11.7505 18.0641 11.7554 18.139 11.7746 18.2109C11.7939 18.2827 11.8271 18.35 11.8724 18.409C11.9177 18.468 11.9742 18.5175 12.0386 18.5546C14.1161 19.7532 14.1127 22.7538 12.0386 23.9506" fill="black"/>
</svg>
