<svg width="33" height="26" viewBox="0 0 33 26" fill="none" xmlns="http://www.w3.org/2000/svg">
<path d="M27.9395 25C28.4151 25.0011 28.885 24.8966 29.3152 24.6939C29.7454 24.4911 30.1252 24.1953 30.4271 23.8278C30.729 23.4603 30.9454 23.0303 31.0607 22.5689C31.176 22.1075 31.1873 21.6263 31.0938 21.16L27.9395 5.41188C27.6912 4.16782 27.0194 3.04828 26.0384 2.24386C25.0575 1.43944 23.828 0.999878 22.5594 1H6.30664C5.99868 1.00008 5.69466 1.06929 5.41702 1.20255C5.13938 1.3358 4.8952 1.52969 4.7025 1.76991C4.5098 2.01013 4.37349 2.29055 4.30363 2.59049C4.23377 2.89042 4.23214 3.20221 4.29887 3.50286L6.00492 11.1952C6.14042 11.8047 6.47985 12.3498 6.9671 12.7403C7.45436 13.1308 8.06027 13.3434 8.68469 13.3429H14.9466C16.0816 13.3429 17.1886 13.6949 18.1151 14.3505C19.0416 15.0061 19.742 15.9329 20.1197 17.0032L21.8915 22.0226C22.1982 22.8938 22.7679 23.6482 23.5218 24.1816C24.2758 24.715 25.1769 25.0009 26.1005 25H27.9395Z" stroke="#2F2F2F" stroke-width="2" stroke-linecap="round" stroke-linejoin="round"/>
<path d="M16.1118 13.4658C16.3385 15.1345 16.067 16.8331 15.3314 18.3481C15.2724 18.4743 15.2464 18.6136 15.2559 18.7526C15.2654 18.8917 15.3101 19.0261 15.3858 19.1432C15.4615 19.2602 15.5657 19.3562 15.6886 19.422C15.8115 19.4877 15.9491 19.5212 16.0885 19.5193H21.0091M26.8432 3.05664H29.8C30.3456 3.05664 30.8688 3.27337 31.2546 3.65916C31.6404 4.04495 31.8571 4.56819 31.8571 5.11378V7.17092C31.8571 7.71651 31.6404 8.23975 31.2546 8.62554C30.8688 9.01133 30.3456 9.22807 29.8 9.22807H28.7028M6.0304 11.2852H3.05714C2.51155 11.2852 1.98831 11.0685 1.60252 10.6827C1.21673 10.2969 1 9.77365 1 9.22807V5.11378C1 4.56819 1.21673 4.04495 1.60252 3.65916C1.98831 3.27337 2.51155 3.05664 3.05714 3.05664H4.25028M19.5143 7.17092C19.5143 7.71651 19.2975 8.23975 18.9118 8.62554C18.526 9.01133 18.0027 9.22807 17.4571 9.22807H12.6571C12.1116 9.22807 11.5883 9.01133 11.2025 8.62554C10.8167 8.23975 10.6 7.71651 10.6 7.17092C10.6 6.62534 10.8167 6.10209 11.2025 5.71631C11.5883 5.33052 12.1116 5.11378 12.6571 5.11378H17.4571C18.0027 5.11378 18.526 5.33052 18.9118 5.71631C19.2975 6.10209 19.5143 6.62534 19.5143 7.17092Z" stroke="#2F2F2F" stroke-width="2" stroke-linecap="round" stroke-linejoin="round"/>
</svg>
