<svg width="81" height="81" viewBox="0 0 81 81" fill="none" xmlns="http://www.w3.org/2000/svg">
<path d="M40.5001 0.000168811C18.1507 0.000168811 0 18.1506 0 40.4999C0 62.8493 18.1507 81 40.4997 81C62.8491 81 81 62.8496 81 40.5003C81 18.1509 62.8491 0 40.4997 0L40.5001 0.000168811ZM40.5001 3.02456C61.2166 3.02456 77.9756 19.7835 77.9756 40.5001C77.9756 41.2635 77.952 42.0226 77.9069 42.7749C72.6801 44.1515 66.4096 40.3724 63.4815 35.3695C55.4484 46.5256 48.3247 47.7319 41.6665 35.1055C35.4269 46.5149 24.0715 47.4618 18.5056 38.4944C12.8095 46.2611 8.93721 47.2868 3.12455 43.3186C3.05465 42.3807 3.01944 41.4406 3.01899 40.5001C3.01899 19.7834 19.7834 3.02439 40.4999 3.02439L40.5001 3.02456ZM63.8933 44.4431C67.3071 51.2375 73.7915 49.0941 77.738 44.7066C76.939 51.8783 74.1243 58.4307 69.8681 63.7928C64.1687 66.9313 59.925 65.0089 54.7407 56.0867C47.6665 68.7129 36.193 67.507 27.658 56.3507C24.6944 61.1168 17.0306 64.7695 11.227 63.9142C7.53091 59.2981 4.90243 53.7894 3.72095 47.7575C7.6885 51.4912 14.5122 52.6856 17.9778 47.1453C23.4449 55.3634 34.9361 55.8499 41.6665 46.2903C45.6908 52.0409 56.1863 57.1998 63.8933 44.4428V44.4431ZM27.22 65.4186C35.4085 78.1756 50.4651 73.022 54.7407 67.2715C57.6453 70.5871 61.083 70.784 64.4844 69.3085C57.988 74.7222 49.6283 77.9809 40.5001 77.9809C31.2624 77.9809 22.8135 74.6438 16.2835 69.1134C20.3659 70.4998 24.8219 69.9106 27.22 65.4186Z" fill="#0B60B0"/>
</svg>
