<svg width="30" height="38" viewBox="0 0 30 38" fill="none" xmlns="http://www.w3.org/2000/svg">
<path d="M13.125 30.4H15L22.5 19H16.875V11.4H15L7.5 22.8H13.125V30.4ZM15 38C10.7188 38 7.14875 36.5117 4.29 33.535C1.43125 30.5583 0.00125 26.8533 0 22.42C0 19.2533 1.2425 15.8099 3.7275 12.0897C6.2125 8.3695 9.97 4.3396 15 0C20.0312 4.33833 23.7894 8.36823 26.2744 12.0897C28.7594 15.8112 30.0012 19.2546 30 22.42C30 26.8533 28.5706 30.5583 25.7119 33.535C22.8531 36.5117 19.2825 38 15 38ZM15 34.2C18.25 34.2 20.9375 33.0834 23.0625 30.8503C25.1875 28.6172 26.25 25.8071 26.25 22.42C26.25 20.1083 25.3044 17.4958 23.4131 14.5825C21.5219 11.6692 18.7175 8.48667 15 5.035C11.2812 8.48667 8.47688 11.6692 6.58687 14.5825C4.69688 17.4958 3.75125 20.1083 3.75 22.42C3.75 25.8083 4.8125 28.6191 6.9375 30.8522C9.0625 33.0853 11.75 34.2013 15 34.2Z" fill="black"/>
</svg>
