<svg width="33" height="31" viewBox="0 0 33 31" fill="none" xmlns="http://www.w3.org/2000/svg">
<path d="M30 30H1V1M22.75 12.3929C23.8488 12.3929 24.9025 11.9564 25.6794 11.1794M22.75 12.3929C21.6512 12.3929 20.5975 11.9564 19.8206 11.1794M22.75 12.3929V15.5M25.6794 11.1794C26.4564 10.4025 26.8929 9.34875 26.8929 8.25M25.6794 11.1794L27.8761 13.3761M26.8929 8.25C26.8929 7.15125 26.4564 6.09749 25.6794 5.32056M26.8929 8.25H30M25.6794 5.32056C24.9025 4.54362 23.8488 4.10714 22.75 4.10714M25.6794 5.32056L27.8761 3.1239M22.75 4.10714C21.6512 4.10714 20.5975 4.54362 19.8206 5.32056M22.75 4.10714V1M19.8206 5.32056C19.0436 6.09749 18.6071 7.15125 18.6071 8.25M19.8206 5.32056L17.6225 3.1239M18.6071 8.25C18.6071 9.34875 19.0436 10.4025 19.8206 11.1794M18.6071 8.25H15.5M19.8206 11.1794L17.6225 13.3761M22.0595 1H23.4405M27.3886 2.63505L28.365 3.61138M30 7.55952V8.94048M28.365 12.8886L27.3886 13.865M23.4405 15.5H22.0595M18.1114 13.865L17.135 12.8886M15.5 8.94048V7.55952M17.135 3.61138L18.1114 2.63505" stroke="black" stroke-width="2" stroke-linecap="round" stroke-linejoin="round"/>
<path d="M1 11.1855H2.93333C5.2307 11.1859 7.49709 11.7156 9.55669 12.7334C11.6163 13.7513 13.4137 15.2299 14.8095 17.0546C16.2046 18.8801 18.0019 20.3593 20.0617 21.3772C22.1214 22.3951 24.3882 22.9243 26.6857 22.9236H31.9969" stroke="black" stroke-width="2" stroke-linecap="round" stroke-linejoin="round"/>
<path d="M28.6953 19.6211L31.9961 22.9233L28.6953 26.2255" stroke="black" stroke-width="2" stroke-linecap="round" stroke-linejoin="round"/>
</svg>
