<svg width="111" height="111" viewBox="0 0 111 111" fill="none" xmlns="http://www.w3.org/2000/svg">
<path d="M107.625 32.3333V78.6667C107.625 86.3469 104.574 93.7126 99.1433 99.1433C93.7126 104.574 86.3469 107.625 78.6667 107.625H32.3333C24.6531 107.625 17.2874 104.574 11.8567 99.1433C6.42596 93.7126 3.375 86.3469 3.375 78.6667V32.3333C3.375 24.6531 6.42596 17.2874 11.8567 11.8567C17.2874 6.42596 24.6531 3.375 32.3333 3.375H78.6667C86.3469 3.375 93.7126 6.42596 99.1433 11.8567C104.574 17.2874 107.625 24.6531 107.625 32.3333Z" stroke="#0B60B0" stroke-width="5" stroke-linecap="round" stroke-linejoin="round"/>
<path d="M66.5042 90.25H44.4958C43.5742 90.25 42.6903 89.8839 42.0386 89.2322C41.3869 88.5805 41.0208 87.6966 41.0208 86.775V73.4542C41.0208 72.5325 40.6547 71.6487 40.003 70.997C39.3513 70.3453 38.4675 69.9792 37.5458 69.9792H24.225C23.3034 69.9792 22.4195 69.6131 21.7678 68.9614C21.1161 68.3097 20.75 67.4258 20.75 66.5042V44.4958C20.75 43.5742 21.1161 42.6903 21.7678 42.0386C22.4195 41.3869 23.3034 41.0208 24.225 41.0208H37.5458C38.4675 41.0208 39.3513 40.6547 40.003 40.003C40.6547 39.3513 41.0208 38.4675 41.0208 37.5458V24.225C41.0208 23.3034 41.3869 22.4195 42.0386 21.7678C42.6903 21.1161 43.5742 20.75 44.4958 20.75H66.5042C67.4258 20.75 68.3097 21.1161 68.9614 21.7678C69.6131 22.4195 69.9792 23.3034 69.9792 24.225V37.5458C69.9792 38.4675 70.3453 39.3513 70.997 40.003C71.6487 40.6547 72.5325 41.0208 73.4542 41.0208H86.775C87.6966 41.0208 88.5805 41.3869 89.2322 42.0386C89.8839 42.6903 90.25 43.5742 90.25 44.4958V66.5042C90.25 67.4258 89.8839 68.3097 89.2322 68.9614C88.5805 69.6131 87.6966 69.9792 86.775 69.9792H73.4542C72.5325 69.9792 71.6487 70.3453 70.997 70.997C70.3453 71.6487 69.9792 72.5325 69.9792 73.4542V86.775C69.9792 87.6966 69.6131 88.5805 68.9614 89.2322C68.3097 89.8839 67.4258 90.25 66.5042 90.25Z" stroke="#0B60B0" stroke-width="5"/>
</svg>
