<svg width="31" height="31" viewBox="0 0 31 31" fill="none" xmlns="http://www.w3.org/2000/svg">
<path d="M15.5 20.125C18.0543 20.125 20.125 18.0543 20.125 15.5C20.125 12.9457 18.0543 10.875 15.5 10.875C12.9457 10.875 10.875 12.9457 10.875 15.5C10.875 18.0543 12.9457 20.125 15.5 20.125Z" stroke="black" stroke-width="2" stroke-linecap="round" stroke-linejoin="round"/>
<path d="M1.625 7.79167V4.70833C1.625 3.89058 1.94985 3.10632 2.52809 2.52809C3.10632 1.94985 3.89058 1.625 4.70833 1.625H7.79167M23.2083 1.625H26.2917C27.1094 1.625 27.8937 1.94985 28.4719 2.52809C29.0501 3.10632 29.375 3.89058 29.375 4.70833V7.79167M29.375 23.2083V26.2917C29.375 27.1094 29.0501 27.8937 28.4719 28.4719C27.8937 29.0501 27.1094 29.375 26.2917 29.375H23.2083M7.79167 29.375H4.70833C3.89058 29.375 3.10632 29.0501 2.52809 28.4719C1.94985 27.8937 1.625 27.1094 1.625 26.2917V23.2083" stroke="black" stroke-width="2" stroke-linecap="round" stroke-linejoin="round"/>
</svg>
