<svg width="29" height="33" viewBox="0 0 29 33" fill="none" xmlns="http://www.w3.org/2000/svg">
<path d="M1 4.97405L14.5068 1L28 4.97405V13.1233C27.9995 17.2996 26.6956 21.3699 24.2732 24.7578C21.8507 28.1457 18.4323 30.6793 14.5023 32C10.5707 30.6799 7.15097 28.146 4.72758 24.7573C2.30418 21.3686 1.00006 17.297 1 13.1195V4.97405Z" stroke="black" stroke-width="2" stroke-linejoin="round"/>
<path d="M15.3327 13.8353C15.3327 13.7469 15.2976 13.6621 15.2351 13.5996C15.1725 13.5371 15.0878 13.502 14.9993 13.502C14.9109 13.502 14.8262 13.5371 14.7636 13.5996C14.7011 13.6621 14.666 13.7469 14.666 13.8353V17.8353C14.666 17.9237 14.7011 18.0085 14.7636 18.071C14.8262 18.1335 14.9109 18.1686 14.9993 18.1686C15.0878 18.1686 15.1725 18.1335 15.2351 18.071C15.2976 18.0085 15.3327 17.9237 15.3327 17.8353V13.8353Z" fill="black"/>
<path d="M14.9993 19.4909C15.1834 19.4909 15.3327 19.3416 15.3327 19.1576C15.3327 18.9735 15.1834 18.8242 14.9993 18.8242C14.8153 18.8242 14.666 18.9735 14.666 19.1576C14.666 19.3416 14.8153 19.4909 14.9993 19.4909Z" fill="black"/>
<path d="M19.4279 21.9564H10.5899C10.3042 21.9563 10.0233 21.8828 9.77426 21.7429C9.52518 21.603 9.31624 21.4014 9.16751 21.1575C9.01878 20.9135 8.93524 20.6355 8.92492 20.35C8.91459 20.0645 8.97783 19.7811 9.10856 19.5271L13.5279 10.9478C13.6681 10.6758 13.8805 10.4477 14.1418 10.2884C14.4031 10.1292 14.7032 10.0449 15.0092 10.0449C15.3152 10.0449 15.6153 10.1292 15.8766 10.2884C16.1379 10.4477 16.3503 10.6758 16.4906 10.9478L20.9099 19.5271C21.0407 19.7812 21.1039 20.0646 21.0935 20.3501C21.0832 20.6357 20.9996 20.9138 20.8508 21.1577C20.702 21.4017 20.4929 21.6033 20.2438 21.7431C19.9946 21.883 19.7136 21.9564 19.4279 21.9564ZM15.0092 10.7104C14.8251 10.7089 14.6443 10.7589 14.4871 10.8548C14.3299 10.9507 14.2027 11.0887 14.1199 11.2531L9.70123 19.8324C9.62286 19.9848 9.58497 20.1548 9.59119 20.3261C9.5974 20.4973 9.64753 20.6641 9.73674 20.8104C9.82596 20.9567 9.95128 21.0776 10.1007 21.1616C10.2501 21.2455 10.4185 21.2897 10.5899 21.2898H19.4279C19.5993 21.2898 19.7679 21.2457 19.9174 21.1618C20.0668 21.0779 20.1923 20.957 20.2815 20.8107C20.3708 20.6643 20.421 20.4975 20.4273 20.3262C20.4335 20.1549 20.3956 19.9849 20.3172 19.8324L15.8986 11.2531C15.8157 11.0887 15.6885 10.9507 15.5314 10.8548C15.3742 10.7589 15.1933 10.7089 15.0092 10.7104Z" fill="black"/>
</svg>
