<svg width="35" height="35" viewBox="0 0 35 35" fill="none" xmlns="http://www.w3.org/2000/svg">
<path d="M29.0504 1V7.6M29.0504 14.2165L29.0669 14.1983M24.1004 20.8V23.11C24.1004 23.3726 23.9961 23.6244 23.8104 23.81C23.6248 23.9957 23.373 24.1 23.1104 24.1H11.8904C11.6278 24.1 11.376 23.9957 11.1904 23.81C11.0047 23.6244 10.9004 23.3726 10.9004 23.11V11.89C10.9004 11.6274 11.0047 11.3756 11.1904 11.19C11.376 11.0043 11.6278 10.9 11.8904 10.9H20.8004" stroke="black" stroke-width="2" stroke-linecap="round" stroke-linejoin="round"/>
<path d="M30.7 20.8V29.71C30.7 29.9726 30.5957 30.2244 30.41 30.41C30.2244 30.5957 29.9726 30.7 29.71 30.7H5.29C5.02744 30.7 4.77563 30.5957 4.58996 30.41C4.4043 30.2244 4.3 29.9726 4.3 29.71V5.29C4.3 5.02744 4.4043 4.77563 4.58996 4.58996C4.77563 4.4043 5.02744 4.3 5.29 4.3H20.8M30.7 25.75H34M25.75 30.7V34M17.5 30.7V34M9.25 30.7V34M4.3 25.75H1M4.3 17.5H1M4.3 9.25H1M17.5 4.3V1M9.25 4.3V1" stroke="black" stroke-width="2" stroke-linecap="round" stroke-linejoin="round"/>
</svg>
