<svg width="58" height="52" viewBox="0 0 58 52" fill="none" xmlns="http://www.w3.org/2000/svg">
<path d="M5.8 52C4.205 52 2.84007 51.4347 1.7052 50.3042C0.570333 49.1737 0.00193333 47.813 0 46.2222V5.77778C0 4.18889 0.5684 2.82919 1.7052 1.69867C2.842 0.568148 4.20693 0.00192593 5.8 0H52.2C53.795 0 55.1609 0.566222 56.2977 1.69867C57.4345 2.83111 58.0019 4.19081 58 5.77778V46.2222C58 47.8111 57.4326 49.1718 56.2977 50.3042C55.1628 51.4367 53.7969 52.0019 52.2 52H5.8ZM5.8 46.2222H52.2V5.77778H5.8V46.2222ZM8.7 40.4444H23.2V34.6667H8.7V40.4444ZM36.395 34.6667L50.75 20.3667L46.6175 16.25L36.395 26.5056L32.2625 22.3889L28.2025 26.5056L36.395 34.6667ZM8.7 28.8889H23.2V23.1111H8.7V28.8889ZM8.7 17.3333H23.2V11.5556H8.7V17.3333Z" fill="#0B60B0"/>
</svg>
