<svg width="30" height="30" viewBox="0 0 30 30" fill="none" xmlns="http://www.w3.org/2000/svg">
<path d="M28.7774 13.895L21.7561 6.83112C22.4505 5.04575 22.0647 2.94987 20.5987 1.475C19.0555 -0.077502 16.7408 -0.388002 14.8891 0.465873L18.2068 3.80375L15.8921 6.1325L12.4972 2.79462C11.5713 4.65762 11.9571 6.98637 13.5002 8.53887C14.9662 10.0137 17.0495 10.4019 18.8241 9.70325L25.8454 16.7671C26.154 17.0776 26.617 17.0776 26.9256 16.7671L28.7002 14.9817C29.086 14.6712 29.086 14.1279 28.7774 13.895Z" fill="black"/>
<path d="M29 29H1V1" stroke="black" stroke-width="1.5" stroke-linecap="round" stroke-linejoin="round"/>
<path d="M4 14L12.2581 22.4211L15.3548 19.2632L20 24" stroke="black" stroke-width="1.5" stroke-linecap="round" stroke-linejoin="round"/>
</svg>
