<svg width="33" height="33" viewBox="0 0 33 33" fill="none" xmlns="http://www.w3.org/2000/svg">
<path d="M25.4404 12.9648L22.3926 9.91706V4.71484H24.7497V8.9412L27.1069 11.2983L25.4404 12.9648Z" fill="black"/>
<path d="M23.5712 18.8571C21.7064 18.8571 19.8834 18.3042 18.3329 17.2681C16.7824 16.2321 15.5739 14.7596 14.8603 13.0367C14.1467 11.3139 13.9599 9.41812 14.3237 7.58915C14.6876 5.76019 15.5855 4.08018 16.9041 2.76157C18.2228 1.44296 19.9028 0.544975 21.7317 0.181172C23.5607 -0.182632 25.4565 0.00408522 27.1793 0.717712C28.9022 1.43134 30.3747 2.63982 31.4107 4.19034C32.4467 5.74086 32.9997 7.56378 32.9997 9.42858C32.9966 11.9282 32.0022 14.3246 30.2347 16.0921C28.4672 17.8597 26.0708 18.854 23.5712 18.8571ZM23.5712 2.35715C22.1726 2.35715 20.8054 2.77188 19.6425 3.5489C18.4796 4.32592 17.5732 5.43032 17.038 6.72246C16.5028 8.01459 16.3627 9.43642 16.6356 10.8081C16.9085 12.1799 17.5819 13.4399 18.5709 14.4288C19.5599 15.4178 20.8199 16.0913 22.1916 16.3641C23.5633 16.637 24.9851 16.4969 26.2773 15.9617C27.5694 15.4265 28.6738 14.5201 29.4508 13.3573C30.2278 12.1944 30.6426 10.8272 30.6426 9.42858C30.6404 7.55379 29.8947 5.75641 28.569 4.43073C27.2433 3.10506 25.4459 2.35933 23.5712 2.35715Z" fill="black"/>
<path d="M7.81393 18.8571L16.0639 25.9286H33V23.5714H16.9361L8.68607 16.5H2.35714V0H0V30.6429C0.000935196 31.2677 0.249577 31.8667 0.691424 32.3086C1.13327 32.7504 1.73228 32.9991 2.35714 33H33V30.6429H2.35714V18.8571H7.81393Z" fill="black"/>
</svg>
