<svg width="33" height="33" viewBox="0 0 33 33" fill="none" xmlns="http://www.w3.org/2000/svg">
<path d="M7.81393 18.8571L16.0639 25.9286H33V23.5714H16.9361L8.68607 16.5H2.35714V0H0V30.6429C0.000935196 31.2677 0.249577 31.8667 0.691424 32.3086C1.13327 32.7504 1.73228 32.9991 2.35714 33H33V30.6429H2.35714V18.8571H7.81393Z" fill="black"/>
<path d="M21.4392 19H21.0392L20.6392 16.4C19.4392 16.2 18.4392 15.5 17.6392 14.6L15.2392 15.6L14.4392 14.3L16.5392 12.7C16.1392 11.5 16.1392 10.3 16.5392 9.1L14.4392 7.7L15.2392 6.4L17.6392 7.4C18.4392 6.5 19.4392 5.9 20.6392 5.6L20.9392 3H22.4392L22.8392 5.6C24.0392 5.8 25.1392 6.5 25.8392 7.4L28.2392 6.4L29.0392 7.7L26.9392 9.2C27.1392 9.8 27.2392 10.4 27.2392 11H27.7392C28.2392 11 28.7392 11.1 29.2392 11.2V11L29.1392 10L31.2392 8.4C31.4392 8.2 31.4392 8 31.3392 7.8L29.3392 4.3C29.2392 4 29.0392 4 28.7392 4L26.2392 5C25.7392 4.6 25.1392 4.3 24.5392 4L24.1392 1.3C24.2392 1.2 23.9392 1 23.7392 1H19.7392C19.5392 1 19.2392 1.2 19.2392 1.4L18.8392 4.1C18.2392 4.3 17.7392 4.7 17.1392 5L14.7392 4C14.4392 4 14.2392 4 14.0392 4.3L12.0392 7.8C11.9392 8 12.0392 8.2 12.2392 8.4L14.3392 10L14.2392 11L14.3392 12L12.2392 13.7C12.0392 13.9 12.0392 14.1 12.1392 14.3L14.1392 17.8C14.2392 18 14.4392 18 14.7392 18L17.2392 17C17.7392 17.4 18.3392 17.7 18.9392 18L19.3392 20.7C19.3392 20.9 19.5392 21.1 19.8392 21.1H22.3392C21.8392 20.4 21.6392 19.7 21.4392 19ZM25.7392 11.3V11C25.7392 8.8 23.9392 7 21.7392 7C19.5392 7 17.7392 8.8 17.7392 11C17.7392 13.2 19.5392 15 21.7392 15C22.4392 13.3 23.9392 11.9 25.7392 11.3ZM19.7392 11C19.7392 9.9 20.6392 9 21.7392 9C22.8392 9 23.7392 9.9 23.7392 11C23.7392 12.1 22.8392 13 21.7392 13C20.6392 13 19.7392 12.1 19.7392 11ZM27.7392 13.5V12L25.5392 14.2L27.7392 16.4V15C29.1392 15 30.2392 16.1 30.2392 17.5C30.2392 17.9 30.1392 18.3 29.9392 18.6L31.0392 19.7C32.2392 17.9 31.7392 15.4 29.9392 14.2C29.3392 13.7 28.5392 13.5 27.7392 13.5ZM27.7392 20C26.3392 20 25.2392 18.9 25.2392 17.5C25.2392 17.1 25.3392 16.7 25.5392 16.4L24.4392 15.3C23.2392 17.1 23.7392 19.6 25.5392 20.8C26.2392 21.2 26.9392 21.5 27.7392 21.5V23L29.9392 20.8L27.7392 18.5V20Z" fill="black"/>
</svg>
