<svg width="31" height="31" viewBox="0 0 31 31" fill="none" xmlns="http://www.w3.org/2000/svg">
<path d="M15.2515 27.895C13.9525 28.27 12.3805 27.646 11.9875 26.0245C11.8916 25.6288 11.7037 25.2613 11.4389 24.952C11.1742 24.6427 10.8402 24.4002 10.464 24.2444C10.0879 24.0885 9.68025 24.0237 9.27432 24.0552C8.86839 24.0867 8.47563 24.2135 8.128 24.4255C5.8135 25.8355 3.163 23.1865 4.573 20.8705C4.78465 20.523 4.91133 20.1305 4.94273 19.7248C4.97413 19.3192 4.90936 18.9118 4.75371 18.5359C4.59805 18.16 4.35589 17.8261 4.04691 17.5614C3.73793 17.2967 3.37085 17.1086 2.9755 17.0125C0.3415 16.3735 0.3415 12.6265 2.9755 11.9875C3.3712 11.8916 3.73867 11.7037 4.048 11.4389C4.35733 11.1742 4.59978 10.8402 4.75562 10.464C4.91146 10.0879 4.97628 9.68025 4.9448 9.27432C4.91333 8.86839 4.78645 8.47563 4.5745 8.128C3.1645 5.8135 5.8135 3.163 8.1295 4.573C9.6295 5.485 11.5735 4.678 11.9875 2.9755C12.6265 0.3415 16.3735 0.3415 17.0125 2.9755C17.1084 3.3712 17.2963 3.73867 17.5611 4.048C17.8258 4.35733 18.1598 4.59978 18.536 4.75562C18.9121 4.91146 19.3197 4.97628 19.7257 4.9448C20.1316 4.91333 20.5244 4.78645 20.872 4.5745C23.1865 3.1645 25.837 5.8135 24.427 8.1295C24.2153 8.47698 24.0887 8.86951 24.0573 9.27516C24.0259 9.68081 24.0906 10.0882 24.2463 10.4641C24.4019 10.84 24.6441 11.1739 24.9531 11.4386C25.2621 11.7033 25.6292 11.8914 26.0245 11.9875C27.6355 12.3775 28.2595 13.9315 27.9025 15.2245M25 29.5V20.5M25 20.5L29.5 25M25 20.5L20.5 25" stroke="black" stroke-width="2" stroke-linecap="round" stroke-linejoin="round"/>
<path d="M10 14.5C10 15.6935 10.4741 16.8381 11.318 17.682C12.1619 18.5259 13.3065 19 14.5 19C15.6935 19 16.8381 18.5259 17.682 17.682C18.5259 16.8381 19 15.6935 19 14.5C19 13.3065 18.5259 12.1619 17.682 11.318C16.8381 10.4741 15.6935 10 14.5 10C13.3065 10 12.1619 10.4741 11.318 11.318C10.4741 12.1619 10 13.3065 10 14.5Z" stroke="black" stroke-width="2" stroke-linecap="round" stroke-linejoin="round"/>
</svg>
