<svg width="37" height="35" viewBox="0 0 37 35" fill="none" xmlns="http://www.w3.org/2000/svg">
<path d="M31.3883 26.9603C32.4473 26.5788 33.3617 25.886 34.0077 24.9755C34.6537 24.065 35.0001 22.9809 35 21.8699V7.41908C35 5.98185 34.4205 4.60348 33.3891 3.58721C32.3576 2.57094 30.9587 2 29.5 2H7.5C6.04131 2 4.64236 2.57094 3.61091 3.58721C2.57946 4.60348 2 5.98185 2 7.41908V21.8699C2 24.2489 3.55833 26.2702 5.72167 27" stroke="black" stroke-width="3" stroke-linecap="round" stroke-linejoin="round"/>
<path d="M11 33C11 32.057 11.3951 31.1526 12.0984 30.4858C12.8016 29.819 13.7554 29.4444 14.75 29.4444H22.25C23.2446 29.4444 24.1984 29.819 24.9016 30.4858C25.6049 31.1526 26 32.057 26 33M14.75 20.5556C14.75 21.4985 15.1451 22.4029 15.8484 23.0697C16.5516 23.7365 17.5054 24.1111 18.5 24.1111C19.4946 24.1111 20.4484 23.7365 21.1516 23.0697C21.8549 22.4029 22.25 21.4985 22.25 20.5556C22.25 19.6126 21.8549 18.7082 21.1516 18.0414C20.4484 17.3746 19.4946 17 18.5 17C17.5054 17 16.5516 17.3746 15.8484 18.0414C15.1451 18.7082 14.75 19.6126 14.75 20.5556Z" stroke="black" stroke-width="3" stroke-linecap="round" stroke-linejoin="round"/>
</svg>
