<svg width="34" height="34" viewBox="0 0 34 34" fill="none" xmlns="http://www.w3.org/2000/svg">
<path d="M14.875 17.6269L12.1231 14.875L10.625 16.3731L14.875 20.6231L23.375 12.1231L21.8769 10.625L14.875 17.6269Z" fill="#2F2F2F"/>
<path d="M17 31.875L10.438 28.3762C8.56715 27.3811 7.00263 25.8953 5.91243 24.0783C4.82223 22.2612 4.24752 20.1815 4.25001 18.0625V4.25C4.25001 3.68641 4.47389 3.14591 4.87241 2.7474C5.27092 2.34888 5.81142 2.125 6.37501 2.125H27.625C28.1886 2.125 28.7291 2.34888 29.1276 2.7474C29.5261 3.14591 29.75 3.68641 29.75 4.25V18.0625C29.7525 20.1815 29.1778 22.2612 28.0876 24.0783C26.9974 25.8953 25.4329 27.3811 23.562 28.3762L17 31.875ZM6.37501 4.25V18.0625C6.37382 19.7962 6.8445 21.4975 7.73658 22.984C8.62866 24.4706 9.90849 25.6863 11.4389 26.5009L17 29.4663L22.5611 26.5019C24.0917 25.6873 25.3716 24.4714 26.2637 22.9846C27.1558 21.4979 27.6264 19.7964 27.625 18.0625V4.25H6.37501Z" fill="#2F2F2F"/>
</svg>
