<svg width="30" height="32" viewBox="0 0 30 32" fill="none" xmlns="http://www.w3.org/2000/svg">
<path d="M13.83 0.20421C14.4877 -0.0335389 15.2063 -0.0645337 15.8833 0.115647L16.17 0.20421L27.8367 4.43109C28.4282 4.6454 28.9445 5.01771 29.3255 5.50464C29.7064 5.99158 29.9363 6.57308 29.9883 7.18138L30 7.44707V16.0828C29.9999 18.6921 29.2707 21.2529 27.8893 23.495C26.508 25.7372 24.5257 27.5774 22.1517 28.8214L21.7083 29.0452L16.1183 31.7456C15.8105 31.8941 15.4743 31.9796 15.1308 31.9968C14.7872 32.014 14.4437 31.9624 14.1217 31.8454L13.8817 31.7456L8.29167 29.0452C5.87602 27.8783 3.83129 26.1028 2.37334 23.9063C0.915388 21.7098 0.0983009 19.1738 0.00833352 16.5659L0 16.0828V7.44707C9.69175e-06 6.837 0.179378 6.23948 0.517223 5.72407C0.855068 5.20866 1.33749 4.79657 1.90833 4.53576L2.16333 4.43109L13.83 0.20421ZM15 3.22019L3.33333 7.44707V16.0828C3.33338 18.1037 3.89576 20.0874 4.96159 21.8262C6.02743 23.565 7.55752 24.995 9.39167 25.9665L9.78333 26.1645L15 28.6845L20.2167 26.1645C22.0879 25.2608 23.6731 23.8875 24.8064 22.1886C25.9397 20.4897 26.5794 18.5276 26.6583 16.5079L26.6667 16.0828V7.44707L15 3.22019ZM20.7217 10.5645C21.0216 10.2757 21.4241 10.108 21.8473 10.0956C22.2706 10.0831 22.6829 10.2267 23.0005 10.4973C23.3181 10.7678 23.5172 11.1451 23.5573 11.5523C23.5975 11.9596 23.4757 12.3664 23.2167 12.69L23.0783 12.8414L14.355 21.271C14.0372 21.5779 13.6139 21.7615 13.1653 21.7867C12.7167 21.8119 12.2741 21.6771 11.9217 21.4079L11.7617 21.271L7.755 17.4C7.45291 17.1109 7.27661 16.7211 7.26219 16.3106C7.24778 15.9 7.39633 15.4996 7.67744 15.1914C7.95856 14.8832 8.35097 14.6904 8.77437 14.6526C9.19777 14.6147 9.62013 14.7347 9.955 14.9878L10.1117 15.1215L13.0583 17.9684L20.7217 10.5645Z" fill="#3F3F3F"/>
</svg>
