<svg width="95" height="59" viewBox="0 0 95 59" fill="none" xmlns="http://www.w3.org/2000/svg">
<path fill-rule="evenodd" clip-rule="evenodd" d="M53.6182 58.702H93.5002C94.3282 58.702 95.0002 58.03 95.0002 57.202C95.0002 56.374 94.3282 55.702 93.5002 55.702H53.6182C52.7902 55.702 52.1182 56.374 52.1182 57.202C52.1182 58.03 52.7902 58.702 53.6182 58.702ZM93.5002 39.967H53.6182C52.7902 39.967 52.1182 40.639 52.1182 41.467C52.1182 42.295 52.7902 42.967 53.6182 42.967H93.5002C94.3282 42.967 95.0002 42.295 95.0002 41.467C95.0002 40.639 94.3282 39.967 93.5002 39.967ZM53.6182 18.735H93.5002C94.3282 18.735 95.0002 18.063 95.0002 17.235C95.0002 16.407 94.3282 15.735 93.5002 15.735H53.6182C52.7902 15.735 52.1182 16.407 52.1182 17.235C52.1182 18.063 52.7902 18.735 53.6182 18.735ZM93.5002 0H53.6182C52.7902 0 52.1182 0.672 52.1182 1.5C52.1182 2.328 52.7902 3 53.6182 3H93.5002C94.3282 3 95.0002 2.328 95.0002 1.5C95.0002 0.672 94.3282 0 93.5002 0Z" fill="#0B60B0"/>
<path fill-rule="evenodd" clip-rule="evenodd" d="M10.279 0H4.5C3.307 0 2.162 0.473999 1.318 1.318C0.474 2.162 0 3.306 0 4.5C0 7.295 0 11.44 0 14.235C0 15.428 0.474 16.573 1.318 17.417C2.162 18.261 3.307 18.735 4.5 18.735C8.548 18.735 15.719 18.735 19.767 18.735C20.165 18.735 20.546 18.893 20.828 19.174C21.109 19.456 21.267 19.837 21.267 20.235C21.267 24.892 21.267 33.81 21.267 38.467C21.267 38.865 21.109 39.246 20.828 39.528C20.546 39.809 20.165 39.967 19.767 39.967H4.5C3.307 39.967 2.162 40.441 1.318 41.285C0.474 42.129 0 43.274 0 44.467C0 47.262 0 51.407 0 54.202C0 55.396 0.474 56.54 1.318 57.384C2.162 58.228 3.307 58.702 4.5 58.702C14.518 58.702 46.751 58.702 56.769 58.702C57.963 58.702 59.108 58.228 59.951 57.384C60.795 56.54 61.269 55.396 61.269 54.202C61.269 51.407 61.269 47.262 61.269 44.467C61.269 43.274 60.795 42.129 59.951 41.285C59.108 40.441 57.963 39.967 56.769 39.967C52.721 39.967 45.551 39.967 41.502 39.967C41.105 39.967 40.723 39.809 40.442 39.528C40.16 39.246 40.002 38.865 40.002 38.467C40.002 33.81 40.002 24.892 40.002 20.235C40.002 19.837 40.16 19.456 40.442 19.174C40.723 18.893 41.105 18.735 41.502 18.735H56.769C57.963 18.735 59.108 18.261 59.951 17.417C60.795 16.573 61.269 15.428 61.269 14.235C61.269 11.44 61.269 7.295 61.269 4.5C61.269 3.306 60.795 2.162 59.951 1.318C59.108 0.473999 57.963 0 56.769 0C49.675 0 30.229 0 16.632 0C15.804 0 15.132 0.672 15.132 1.5C15.132 2.328 15.804 3 16.632 3C30.229 3 49.675 3 56.769 3C57.167 3 57.549 3.158 57.83 3.439C58.111 3.72 58.269 4.102 58.269 4.5C58.269 7.295 58.269 11.44 58.269 14.235C58.269 14.633 58.111 15.014 57.83 15.296C57.549 15.577 57.167 15.735 56.769 15.735H41.502C40.309 15.735 39.164 16.209 38.32 17.053C37.476 17.897 37.002 19.041 37.002 20.235C37.002 24.892 37.002 33.81 37.002 38.467C37.002 39.661 37.476 40.805 38.32 41.649C39.164 42.493 40.309 42.967 41.502 42.967C45.551 42.967 52.721 42.967 56.769 42.967C57.167 42.967 57.549 43.125 57.83 43.406C58.111 43.688 58.269 44.069 58.269 44.467C58.269 47.262 58.269 51.407 58.269 54.202C58.269 54.6 58.111 54.982 57.83 55.263C57.549 55.544 57.167 55.702 56.769 55.702H4.5C4.102 55.702 3.721 55.544 3.439 55.263C3.158 54.982 3 54.6 3 54.202C3 51.407 3 47.262 3 44.467C3 44.069 3.158 43.688 3.439 43.406C3.721 43.125 4.102 42.967 4.5 42.967H19.767C20.961 42.967 22.105 42.493 22.949 41.649C23.793 40.805 24.267 39.661 24.267 38.467C24.267 33.81 24.267 24.892 24.267 20.235C24.267 19.041 23.793 17.897 22.949 17.053C22.105 16.209 20.961 15.735 19.767 15.735C15.719 15.735 8.548 15.735 4.5 15.735C4.102 15.735 3.721 15.577 3.439 15.296C3.158 15.014 3 14.633 3 14.235C3 11.44 3 7.295 3 4.5C3 4.102 3.158 3.72 3.439 3.439C3.721 3.158 4.102 3 4.5 3H10.279C11.107 3 11.779 2.328 11.779 1.5C11.779 0.672 11.107 0 10.279 0Z" fill="#0B60B0"/>
</svg>
