<svg width="34" height="34" viewBox="0 0 34 34" fill="none" xmlns="http://www.w3.org/2000/svg">
<path d="M13.6 18.7C13.2638 18.7 12.9351 18.7997 12.6555 18.9865C12.376 19.1733 12.1581 19.4388 12.0294 19.7494C11.9007 20.0601 11.8671 20.4019 11.9327 20.7317C11.9983 21.0614 12.1602 21.3643 12.3979 21.6021C12.6357 21.8398 12.9386 22.0017 13.2683 22.0673C13.5981 22.1329 13.9399 22.0993 14.2506 21.9706C14.5612 21.8419 14.8267 21.624 15.0135 21.3445C15.2003 21.0649 15.3 20.7362 15.3 20.4C15.3 19.9491 15.1209 19.5167 14.8021 19.1979C14.4833 18.8791 14.0509 18.7 13.6 18.7ZM13.6 11.9C13.2638 11.9 12.9351 11.9997 12.6555 12.1865C12.376 12.3733 12.1581 12.6388 12.0294 12.9494C11.9007 13.2601 11.8671 13.6019 11.9327 13.9317C11.9983 14.2614 12.1602 14.5643 12.3979 14.8021C12.6357 15.0398 12.9386 15.2017 13.2683 15.2673C13.5981 15.3329 13.9399 15.2993 14.2506 15.1706C14.5612 15.0419 14.8267 14.824 15.0135 14.5445C15.2003 14.2649 15.3 13.9362 15.3 13.6C15.3 13.1491 15.1209 12.7167 14.8021 12.3979C14.4833 12.0791 14.0509 11.9 13.6 11.9ZM20.4 11.9C20.0638 11.9 19.7351 11.9997 19.4555 12.1865C19.176 12.3733 18.9581 12.6388 18.8294 12.9494C18.7007 13.2601 18.6671 13.6019 18.7327 13.9317C18.7983 14.2614 18.9602 14.5643 19.1979 14.8021C19.4357 15.0398 19.7386 15.2017 20.0683 15.2673C20.3981 15.3329 20.7399 15.2993 21.0506 15.1706C21.3612 15.0419 21.6267 14.824 21.8135 14.5445C22.0003 14.2649 22.1 13.9362 22.1 13.6C22.1 13.1491 21.9209 12.7167 21.6021 12.3979C21.2833 12.0791 20.8509 11.9 20.4 11.9ZM32.3 18.7C32.7509 18.7 33.1833 18.5209 33.5021 18.2021C33.8209 17.8833 34 17.4509 34 17C34 16.5491 33.8209 16.1167 33.5021 15.7979C33.1833 15.4791 32.7509 15.3 32.3 15.3H28.9V11.9H32.3C32.7509 11.9 33.1833 11.7209 33.5021 11.4021C33.8209 11.0833 34 10.6509 34 10.2C34 9.74913 33.8209 9.31673 33.5021 8.99792C33.1833 8.67911 32.7509 8.5 32.3 8.5H28.594C28.3402 7.78702 27.9308 7.13948 27.3957 6.60433C26.8605 6.06918 26.213 5.65984 25.5 5.406V1.7C25.5 1.24913 25.3209 0.81673 25.0021 0.497918C24.6833 0.179107 24.2509 0 23.8 0C23.3491 0 22.9167 0.179107 22.5979 0.497918C22.2791 0.81673 22.1 1.24913 22.1 1.7V5.1H18.7V1.7C18.7 1.24913 18.5209 0.81673 18.2021 0.497918C17.8833 0.179107 17.4509 0 17 0C16.5491 0 16.1167 0.179107 15.7979 0.497918C15.4791 0.81673 15.3 1.24913 15.3 1.7V5.1H11.9V1.7C11.9 1.24913 11.7209 0.81673 11.4021 0.497918C11.0833 0.179107 10.6509 0 10.2 0C9.74913 0 9.31673 0.179107 8.99792 0.497918C8.67911 0.81673 8.5 1.24913 8.5 1.7V5.406C7.78702 5.65984 7.13948 6.06918 6.60433 6.60433C6.06918 7.13948 5.65984 7.78702 5.406 8.5H1.7C1.24913 8.5 0.81673 8.67911 0.497918 8.99792C0.179107 9.31673 0 9.74913 0 10.2C0 10.6509 0.179107 11.0833 0.497918 11.4021C0.81673 11.7209 1.24913 11.9 1.7 11.9H5.1V15.3H1.7C1.24913 15.3 0.81673 15.4791 0.497918 15.7979C0.179107 16.1167 0 16.5491 0 17C0 17.4509 0.179107 17.8833 0.497918 18.2021C0.81673 18.5209 1.24913 18.7 1.7 18.7H5.1V22.1H1.7C1.24913 22.1 0.81673 22.2791 0.497918 22.5979C0.179107 22.9167 0 23.3491 0 23.8C0 24.2509 0.179107 24.6833 0.497918 25.0021C0.81673 25.3209 1.24913 25.5 1.7 25.5H5.406C5.65984 26.213 6.06918 26.8605 6.60433 27.3957C7.13948 27.9308 7.78702 28.3402 8.5 28.594V32.3C8.5 32.7509 8.67911 33.1833 8.99792 33.5021C9.31673 33.8209 9.74913 34 10.2 34C10.6509 34 11.0833 33.8209 11.4021 33.5021C11.7209 33.1833 11.9 32.7509 11.9 32.3V28.9H15.3V32.3C15.3 32.7509 15.4791 33.1833 15.7979 33.5021C16.1167 33.8209 16.5491 34 17 34C17.4509 34 17.8833 33.8209 18.2021 33.5021C18.5209 33.1833 18.7 32.7509 18.7 32.3V28.9H22.1V32.3C22.1 32.7509 22.2791 33.1833 22.5979 33.5021C22.9167 33.8209 23.3491 34 23.8 34C24.2509 34 24.6833 33.8209 25.0021 33.5021C25.3209 33.1833 25.5 32.7509 25.5 32.3V28.594C26.213 28.3402 26.8605 27.9308 27.3957 27.3957C27.9308 26.8605 28.3402 26.213 28.594 25.5H32.3C32.7509 25.5 33.1833 25.3209 33.5021 25.0021C33.8209 24.6833 34 24.2509 34 23.8C34 23.3491 33.8209 22.9167 33.5021 22.5979C33.1833 22.2791 32.7509 22.1 32.3 22.1H28.9V18.7H32.3ZM25.5 23.8C25.5 24.2509 25.3209 24.6833 25.0021 25.0021C24.6833 25.3209 24.2509 25.5 23.8 25.5H10.2C9.74913 25.5 9.31673 25.3209 8.99792 25.0021C8.67911 24.6833 8.5 24.2509 8.5 23.8V10.2C8.5 9.74913 8.67911 9.31673 8.99792 8.99792C9.31673 8.67911 9.74913 8.5 10.2 8.5H23.8C24.2509 8.5 24.6833 8.67911 25.0021 8.99792C25.3209 9.31673 25.5 9.74913 25.5 10.2V23.8ZM20.4 18.7C20.0638 18.7 19.7351 18.7997 19.4555 18.9865C19.176 19.1733 18.9581 19.4388 18.8294 19.7494C18.7007 20.0601 18.6671 20.4019 18.7327 20.7317C18.7983 21.0614 18.9602 21.3643 19.1979 21.6021C19.4357 21.8398 19.7386 22.0017 20.0683 22.0673C20.3981 22.1329 20.7399 22.0993 21.0506 21.9706C21.3612 21.8419 21.6267 21.624 21.8135 21.3445C22.0003 21.0649 22.1 20.7362 22.1 20.4C22.1 19.9491 21.9209 19.5167 21.6021 19.1979C21.2833 18.8791 20.8509 18.7 20.4 18.7Z" fill="#2F2F2F"/>
</svg>
