<svg width="31" height="31" viewBox="0 0 31 31" fill="none" xmlns="http://www.w3.org/2000/svg">
<path d="M14.5882 29.1765C14.7438 29.1765 14.8982 29.174 15.0514 29.1692C14.5512 28.563 14.124 27.9002 13.7786 27.1943C12.8011 26.8168 11.7763 25.7482 10.901 23.8736C10.4746 22.9388 10.134 21.9671 9.88349 20.9706H12.9324C13.0491 20.3384 13.2218 19.7306 13.4503 19.1471H9.49326C9.24097 17.6406 9.11532 16.1157 9.11761 14.5882C9.11761 12.9781 9.25073 11.4427 9.49326 10.0294H19.6832C19.8509 11.0159 19.9676 12.0627 20.0223 13.1531C20.6059 12.9854 21.2088 12.8711 21.8313 12.8103C21.7755 11.8791 21.6751 10.951 21.5304 10.0294H26.5141C26.9718 11.2257 27.2545 12.5094 27.3311 13.8479C27.9912 14.1834 28.6039 14.5846 29.1692 15.0514C29.2614 12.1479 28.4847 9.28291 26.9385 6.82358C25.3922 4.36425 23.147 2.42255 20.4903 1.24725C17.8337 0.0719475 14.8867 -0.283428 12.0268 0.22665C9.16689 0.736728 6.52442 2.08903 4.43791 4.1103C2.3514 6.13158 0.915863 8.72977 0.315228 11.572C-0.285407 14.4142 -0.0237911 17.3711 1.06656 20.0637C2.15691 22.7563 4.02634 25.0621 6.43534 26.6856C8.84433 28.3091 11.6832 29.1765 14.5882 29.1765ZM14.5882 1.82354C15.7863 1.82354 17.1539 2.89942 18.2754 5.30283C18.6711 6.15259 19.0157 7.13001 19.2947 8.20589H9.88167C10.1607 7.13001 10.5053 6.15259 10.9028 5.30283C12.0207 2.89942 13.3883 1.82354 14.5882 1.82354ZM9.2489 4.53148C8.71041 5.71095 8.29311 6.94207 8.00343 8.20589H3.5303C5.06955 5.54491 7.51497 3.5267 10.4196 2.52013C9.98014 3.12189 9.58808 3.80389 9.2489 4.53148ZM7.64419 10.0294C7.40842 11.5375 7.29135 13.0618 7.29408 14.5882C7.29408 16.1747 7.41625 17.7101 7.64602 19.1471H2.6623C2.10681 17.6914 1.82252 16.1463 1.82348 14.5882C1.82348 12.9835 2.12071 11.4445 2.6623 10.0294H7.64419ZM8.00343 20.9706C8.32437 22.3255 8.74561 23.5636 9.2489 24.645C9.58808 25.3726 9.98014 26.0546 10.4196 26.6564C7.51497 25.6498 5.06955 23.6316 3.5303 20.9706H8.00343ZM18.7568 2.52013C21.6614 3.5267 24.1069 5.54491 25.6461 8.20589H21.1712C20.8815 6.94207 20.4642 5.71095 19.9257 4.53148C19.6013 3.82478 19.2093 3.15118 18.755 2.52013M14.5882 22.7941C14.5882 24.9705 15.4528 27.0576 16.9917 28.5965C18.5306 30.1355 20.6178 31 22.7941 31C24.9704 31 27.0576 30.1355 28.5965 28.5965C30.1355 27.0576 31 24.9705 31 22.7941C31 20.6178 30.1355 18.5306 28.5965 16.9917C27.0576 15.4528 24.9704 14.5882 22.7941 14.5882C20.6178 14.5882 18.5306 15.4528 16.9917 16.9917C15.4528 18.5306 14.5882 20.6178 14.5882 22.7941ZM26.4412 17.3235C26.683 17.3235 26.9149 17.4196 27.0859 17.5906C27.2569 17.7616 27.3529 17.9935 27.3529 18.2353V20.9706C27.3529 21.2124 27.2569 21.4443 27.0859 21.6153C26.9149 21.7863 26.683 21.8824 26.4412 21.8824H23.7059C23.4641 21.8824 23.2321 21.7863 23.0612 21.6153C22.8902 21.4443 22.7941 21.2124 22.7941 20.9706C22.7941 20.7288 22.8902 20.4969 23.0612 20.3259C23.2321 20.1549 23.4641 20.0588 23.7059 20.0588H24.5593C23.8666 19.6755 23.068 19.5279 22.2841 19.6385C21.5001 19.749 20.7735 20.1116 20.2138 20.6715C20.0406 20.8307 19.8125 20.9168 19.5773 20.9118C19.3421 20.9067 19.1179 20.811 18.9516 20.6445C18.7854 20.478 18.6899 20.2537 18.6852 20.0185C18.6805 19.7832 18.7669 19.5553 18.9264 19.3823C19.7778 18.5308 20.8864 17.9841 22.0803 17.8268C23.2741 17.6695 24.4865 17.9105 25.5294 18.5125V18.2353C25.5294 17.9935 25.6255 17.7616 25.7965 17.5906C25.9674 17.4196 26.1994 17.3235 26.4412 17.3235ZM24.8438 27.4113C24.0731 27.7225 23.2416 27.8541 22.4125 27.7959C21.5834 27.7378 20.7785 27.4915 20.0588 27.0758V27.3529C20.0588 27.5948 19.9627 27.8267 19.7918 27.9977C19.6208 28.1686 19.3889 28.2647 19.147 28.2647C18.9052 28.2647 18.6733 28.1686 18.5023 27.9977C18.3313 27.8267 18.2353 27.5948 18.2353 27.3529V24.6176C18.2353 24.3758 18.3313 24.1439 18.5023 23.9729C18.6733 23.8019 18.9052 23.7059 19.147 23.7059H21.8823C22.1242 23.7059 22.3561 23.8019 22.5271 23.9729C22.698 24.1439 22.7941 24.3758 22.7941 24.6176C22.7941 24.8595 22.698 25.0914 22.5271 25.2624C22.3561 25.4334 22.1242 25.5294 21.8823 25.5294H21.0289C21.1201 25.5805 21.2143 25.6273 21.3116 25.6698C21.9853 25.9695 22.734 26.058 23.459 25.9235C24.1839 25.7891 24.8511 25.438 25.3726 24.9167C25.5445 24.7506 25.7749 24.6587 26.0139 24.6608C26.253 24.6629 26.4817 24.7588 26.6507 24.9278C26.8198 25.0969 26.9156 25.3255 26.9177 25.5646C26.9198 25.8037 26.8279 26.034 26.6618 26.2059C26.1439 26.7256 25.5239 27.1378 24.8438 27.4113Z" fill="#2F2F2F"/>
</svg>
