<svg width="130" height="151" viewBox="0 0 130 151" fill="none" xmlns="http://www.w3.org/2000/svg">
<path d="M72.4688 0.96875C62.5313 15.875 60.3668 36.9891 60.668 55.625C60.7047 57.892 61.4401 61.072 62.2475 63.9135C63.8956 63.1583 65.6872 62.7675 67.5001 62.7676C68.4441 62.7676 69.3634 62.875 70.2506 63.0725L72.4688 0.96875ZM67.5001 68.3574C63.522 68.3574 60.3575 71.5219 60.3575 75.5C60.3575 79.4781 63.522 82.6426 67.5001 82.6426C71.4782 82.6426 74.6427 79.4781 74.6427 75.5C74.6427 71.5219 71.4782 68.3574 67.5001 68.3574ZM80.1704 76.7524C79.8918 79.5641 78.6872 82.115 76.8687 84.0947L129.551 117.073C121.61 101.013 104.408 88.5821 88.1179 79.5247C86.141 78.4253 83.0296 77.4735 80.1704 76.7524ZM55.3589 79.3219L0.460449 108.455C18.3386 109.609 37.7065 100.927 53.6953 91.3472C55.6437 90.1802 58.0275 87.9511 60.0864 85.8288C57.8815 84.2382 56.1977 81.9634 55.3589 79.3219ZM72.7061 87.1073C71.0707 87.8488 69.2957 88.2324 67.5001 88.2324C65.7045 88.2327 63.9296 87.8494 62.2941 87.1082L60.0469 150.031H74.9532L72.7061 87.1073Z" fill="#0B60B0"/>
</svg>
